SplineFontDB: 3.0
FontName: LMRoman10-Regular
FullName: LMRoman10-Regular
FamilyName: LMRoman10
Weight: Normal
Copyright: Copyright 2003, 2009 B. Jackowski and J. M. Nowacki (on behalf of TeX users groups). This work is released under the GUST Font License --  see http://tug.org/fonts/licenses/GUST-FONT-LICENSE.txt for details.
Version: 2.004
ItalicAngle: 0
UnderlinePosition: -106
UnderlineWidth: 40
Ascent: 806
Descent: 194
sfntRevision: 0x00020106
LayerCount: 2
Layer: 0 0 "Back"  1
Layer: 1 0 "Fore"  0
XUID: [1021 777 149012601 1498566]
FSType: 12
OS2Version: 3
OS2_WeightWidthSlopeOnly: 0
OS2_UseTypoMetrics: 1
CreationTime: 1254995892
ModificationTime: 1254995892
PfmFamily: 81
TTFWeight: 400
TTFWidth: 5
LineGap: 0
VLineGap: 0
Panose: 0 0 5 0 0 0 0 0 0 0
OS2TypoAscent: 0
OS2TypoAOffset: 1
OS2TypoDescent: 0
OS2TypoDOffset: 1
OS2TypoLinegap: 200
OS2WinAscent: 0
OS2WinAOffset: 1
OS2WinDescent: 0
OS2WinDOffset: 1
HheadAscent: 0
HheadAOffset: 1
HheadDescent: 0
HheadDOffset: 1
OS2SubXSize: 650
OS2SubYSize: 600
OS2SubXOff: 0
OS2SubYOff: 75
OS2SupXSize: 650
OS2SupYSize: 600
OS2SupXOff: 0
OS2SupYOff: 350
OS2StrikeYSize: 40
OS2StrikeYPos: 258
OS2Vendor: 'UKWN'
OS2CodePages: 20000193.00000000
OS2UnicodeRanges: 20000007.00000000.00000000.00000000
Lookup: 1 0 0 "'aalt' Access All Alternates lookup 0"  {"'aalt' Access All Alternates lookup 0 subtable"  } ['aalt' ('DFLT' <'dflt' > 'cyrl' <'dflt' > 'latn' <'AZE ' 'CRT ' 'MOL ' 'NLD ' 'PLK ' 'ROM ' 'TRK ' 'dflt' > ) ]
Lookup: 3 0 0 "'aalt' Access All Alternates lookup 1"  {"'aalt' Access All Alternates lookup 1 subtable"  } ['aalt' ('DFLT' <'dflt' > 'cyrl' <'dflt' > 'latn' <'AZE ' 'CRT ' 'MOL ' 'NLD ' 'PLK ' 'ROM ' 'TRK ' 'dflt' > ) ]
Lookup: 1 0 0 "'locl' Localized Forms in Latin lookup 2"  {"'locl' Localized Forms in Latin lookup 2 subtable"  } ['locl' ('latn' <'MOL ' 'ROM ' > ) ]

StartChar: acute.dup
Encoding: 65537 -1 1
Width: 500
Flags: MW
HStem: 510 21G<205 205> 678 20G<330.5 347>
LayerCount: 2
Fore
SplineSet
374 662 m 0
 374 650 366 639 357 632 c 2
 205 510 l 1
 188 528 l 1
 308 681 l 2
 312 687 323 698 338 698 c 0
 356 698 374 680 374 662 c 0
EndSplineSet
EndChar

StartChar: AE.dup
Encoding: 65538 -1 2
Width: 903
Flags: MW
HStem: 0 31<32 67 339 372 548 643 643 727> 313 31<266 416 266 416 255 416 499 584> 652 31<258 303 258 818 524.5 548 548 643>
VStem: 175 83 416 83<76 313 344 604 604 612> 687 25<196 238 419 461> 821 25<458 458> 849 25<258 258>
LayerCount: 2
Fore
SplineSet
874 258 m 1
 832 0 l 1
 339 0 l 1
 339 31 l 1
 405 31 416 31 416 76 c 2
 416 313 l 1
 255 313 l 1
 180 103 l 2
 175 90 175 89 175 81 c 0
 175 56 199 32 249 31 c 1
 249 0 l 1
 134 3 l 1
 94 3 54 1 32 0 c 1
 32 31 l 1
 102 31 131 59 145 98 c 2
 343 651 l 1
 330 651 316 652 303 652 c 2
 258 652 l 1
 258 683 l 1
 818 683 l 1
 846 458 l 1
 821 458 l 1
 805 594 785 652 643 652 c 2
 548 652 l 2
 501 652 499 645 499 612 c 2
 499 344 l 1
 584 344 l 2
 678 344 687 377 687 461 c 1
 712 461 l 1
 712 196 l 1
 687 196 l 1
 687 280 678 313 584 313 c 2
 499 313 l 1
 499 71 l 2
 499 38 501 31 548 31 c 2
 643 31 l 2
 811 31 824 110 849 258 c 1
 874 258 l 1
416 344 m 1
 416 604 l 2
 416 620 416 647 375 648 c 1
 266 344 l 1
 416 344 l 1
EndSplineSet
EndChar

StartChar: ae.dup
Encoding: 65539 -1 3
Width: 722
Flags: MW
HStem: -11 22<185.5 244.5> 111 21 132 22 229 21<326 326> 231 21<396 627 396 668 395 627> 288 93 426 22<202 245.5 507 572.5>
VStem: 45 77<68.5 119 68.5 140> 163 57 338 57<122.5 133.5> 627 66<252 252>
LayerCount: 2
Fore
SplineSet
693 119 m 0x4ee0
 693 100 651 -11 538 -11 c 0
 508 -11 430 -3 371 78 c 1
 347 29 285 -11 204 -11 c 0
 137 -11 45 13 45 92 c 0
 45 188 164 250 326 250 c 1x9120
 326 298 l 2
 326 385 271 426 220 426 c 0
 184 426 137 412 112 380 c 1
 158 379 163 346 163 334 c 0
 163 308 145 288 117 288 c 0
 91 288 71 305 71 335 c 0
 71 402 142 448 222 448 c 0
 286 448 346 419 375 371 c 1
 426 432 482 448 526 448 c 0
 635 448 693 363 693 252 c 0
 693 231 690 231 668 231 c 2
 395 231 l 1
 395 14 532 14 542 14 c 0
 604 14 650 61 665 111 c 0
 670 127 671 131 680 131 c 0
 685 131 693 129 693 119 c 0x4ee0
627 252 m 1
 625 291 620 426 525 426 c 0
 489 426 406 398 396 252 c 1x8b20
 627 252 l 1
338 132 m 0
 338 135 338 143 335 154 c 0
 326 185 326 205 326 229 c 1x3040
 164 223 122 146 122 92 c 0
 122 45 162 11 209 11 c 0
 281 11 338 68 338 132 c 0
EndSplineSet
EndChar

StartChar: cedilla.dup
Encoding: 65540 -1 4
Width: 444
Flags: MW
HStem: -200 26<89 102 102 115 89 102> -92 26
VStem: 196 52<-66 5 -66 5 -66 5> 272 84<-153.5 -117>
LayerCount: 2
Fore
SplineSet
356 -133 m 0
 356 -200 223 -200 115 -200 c 2
 89 -200 l 1
 89 -174 l 1
 102 -174 l 2
 177 -174 272 -174 272 -133 c 0
 272 -101 233 -92 196 -92 c 1
 196 5 l 1
 248 5 l 1
 248 -66 l 1
 302 -66 356 -86 356 -133 c 0
EndSplineSet
EndChar

StartChar: circumflex.dup
Encoding: 65541 -1 5
Width: 500
Flags: MW
HStem: 516 21G<111 111 389 389> 672 20G<250 250>
LayerCount: 2
Fore
SplineSet
402 530 m 1
 389 516 l 1
 250 624 l 1
 111 516 l 1
 98 530 l 1
 250 692 l 1
 402 530 l 1
EndSplineSet
EndChar

StartChar: dieresis.dup
Encoding: 65542 -1 6
Width: 500
Flags: MW
HStem: 557 95<147.5 175.5 146.5 176.5 325.5 353.5>
VStem: 113 97<593.5 616> 291 97<593.5 616>
LayerCount: 2
Fore
SplineSet
210 605 m 0
 210 582 192 557 161 557 c 0
 134 557 113 580 113 605 c 0
 113 627 131 652 162 652 c 0
 189 652 210 629 210 605 c 0
388 605 m 0
 388 582 370 557 339 557 c 0
 312 557 291 580 291 605 c 0
 291 627 309 652 340 652 c 0
 367 652 388 629 388 605 c 0
EndSplineSet
EndChar

StartChar: Gcedilla
Encoding: 65543 -1 7
Width: 785
Flags: MW
HStem: -290 21G<366 372.5> -145 79<375 393.5> -22 31<389.5 436 389.5 442.5> 242 31<452 484 452 452> 674 31<386 453.5 311 469.5>
VStem: 56 103<239.5 444.5> 577 89<130 194 194 198>
LayerCount: 2
Fore
SplineSet
735 242 m 1
 670 242 666 237 666 198 c 2
 666 24 l 2
 666 9 666 1 657 1 c 0
 646 1 606 41 593 63 c 1
 559 4 479 -22 406 -22 c 0
 216 -22 56 137 56 342 c 0
 56 547 218 705 404 705 c 0
 503 705 557 651 589 619 c 1
 639 693 l 2
 647 705 651 705 655 705 c 0
 666 705 666 698 666 681 c 2
 666 444 l 2
 666 423 666 420 650 420 c 0
 636 420 636 423 634 437 c 0
 614 584 523 674 416 674 c 0
 356 674 159 641 159 342 c 0
 159 44 357 9 422 9 c 0
 450 9 577 18 577 130 c 2
 577 194 l 2
 577 231 574 242 484 242 c 2
 452 242 l 1
 452 273 l 1
 488 270 573 270 613 270 c 2
 735 273 l 1
 735 242 l 1
436 -145 m 0
 436 -231 377 -290 368 -290 c 0
 364 -290 360 -287 360 -282 c 0
 360 -279 361 -278 365 -274 c 0
 398 -238 419 -193 418 -133 c 1
 410 -141 399 -145 388 -145 c 0
 361 -145 348 -125 348 -106 c 0
 348 -86 362 -66 388 -66 c 0
 418 -66 436 -97 436 -145 c 0
EndSplineSet
EndChar

StartChar: gcedilla
Encoding: 65544 -1 8
Width: 500
Flags: MW
HStem: -206 23<199.5 299 199.5 308> 7 58<162 264.5> 110 23 149 23<212.5 242 178.5 268.5> 419 23<202 233 175.5 265.5> 430 23 514 79<213.5 232> 718 20G<234.5 241>
VStem: 28 52<-105.5 -59> 60 75<283.5 308.5 283.5 334.5> 76 75 107 52 159 75<66 66> 309 75<282.5 307.5> 419 52<-106 -59.5 -116 -36> 433 52<392.5 431>
LayerCount: 2
Fore
SplineSet
259 554 m 0x07
 259 534 245 514 219 514 c 0
 189 514 171 545 171 593 c 0
 171 679 230 738 239 738 c 0
 243 738 247 735 247 730 c 0
 247 727 246 726 242 722 c 0
 209 686 188 641 189 581 c 1
 197 589 208 593 219 593 c 0
 246 593 259 573 259 554 c 0x07
485 404 m 0
 485 381 466 374 456 374 c 0
 440 374 427 386 427 403 c 0
 427 415 432 426 443 430 c 1
 440 431 433 431 433 431 c 1x1441
 415 431 379 426 343 392 c 1
 368 369 384 332 384 295 c 0
 384 218 315 149 222 149 c 0
 203 149 162 152 123 180 c 1
 106 160 106 137 106 133 c 0
 106 101 127 70 159 66 c 0
 166 65 209 65 234 65 c 0
 295 65 353 65 406 37 c 0
 457 9 471 -42 471 -77 c 0
 471 -155 367 -206 249 -206 c 0
 127 -206 28 -151 28 -79 c 0xf08e
 28 -39 60 4 120 21 c 1
 89 41 76 79 76 110 c 0x2020
 76 145 94 178 107 193 c 1x0010
 82 214 60 252 60 296 c 0
 60 373 129 442 222 442 c 0x0840
 244 442 286 439 328 406 c 1
 370 447 414 453 434 453 c 0
 473 453 485 421 485 404 c 0
309 296 m 0
 309 319 309 419 222 419 c 0
 182 419 159 391 151 379 c 0x8824
 136 354 135 322 135 295 c 0
 135 272 135 172 222 172 c 0
 262 172 285 200 293 212 c 0
 308 237 309 269 309 296 c 0
419 -79 m 0
 419 7 307 7 221 7 c 2
 162 7 l 1
 118 4 80 -33 80 -79 c 0x4082
 80 -132 149 -183 250 -183 c 0
 348 -183 419 -133 419 -79 c 0
EndSplineSet
EndChar

StartChar: germandbls.dup
Encoding: 65545 -1 9
Width: 500
Flags: MW
HStem: -11 22<288.5 312 288.5 339> 0 31<28 61.5> 31 71 102 71 400 31<28 106 28 106> 409 22 683 22<262 292.5>
VStem: 106 66<76 400 400 400 431 556 556 558 0 606> 126 75<3 77.5> 172 72 201 72<54 77 54 77.5> 244 66 293 75 296 72 368 75<534 600.5 534 608> 396 75<118 210 118 225>
LayerCount: 2
Fore
SplineSet
471 174 m 0x2b12
 471 62 382 -11 296 -11 c 0x8005
 238 -11 201 25 201 65 c 0
 201 90 220 102 237 102 c 0
 257 102 273 88 273 66 c 0
 273 42 254 32 243 30 c 1
 261 13 284 11 293 11 c 0
 331 11 396 44 396 173 c 0
 396 277 356 399 237 409 c 0x9429
 228 410 228 420 228 420 c 1
 228 430 235 430 244 431 c 0
 333 439 368 500 368 564 c 0
 368 652 313 683 272 683 c 0
 252 683 172 672 172 558 c 2
 172 0 l 1x4a44
 154 3 137 3 126 3 c 2
 28 0 l 1x4080
 28 31 l 1
 95 31 106 31 106 76 c 2
 106 400 l 1
 28 400 l 1
 28 431 l 1
 106 431 l 1
 106 556 l 2
 106 656 195 705 272 705 c 0
 371 705 443 638 443 563 c 0
 443 505 399 444 310 419 c 1
 439 366 471 246 471 174 c 0x2b12
EndSplineSet
EndChar

StartChar: hyphen.dup
Encoding: 65546 -1 10
Width: 333
Flags: MW
HStem: 187 58<11 276 11 276>
VStem: 11 265<187 245 187 245>
LayerCount: 2
Fore
SplineSet
276 187 m 1
 11 187 l 1
 11 245 l 1
 276 245 l 1
 276 187 l 1
EndSplineSet
EndChar

StartChar: Kcedilla
Encoding: 65547 -1 11
Width: 778
Flags: MW
HStem: -290 21G<363 369.5> -145 79<372 390.5> 0 31<33 57> 652 31<33 57 33 33>
VStem: 136 89<78 253 287 605>
LayerCount: 2
Fore
SplineSet
736 0 m 1
 621 3 l 2
 583 3 513 3 478 0 c 1
 478 31 l 1
 498 31 537 31 537 61 c 0
 537 73 528 86 522 95 c 2
 341 363 l 1
 225 253 l 1
 225 78 l 2
 225 42 227 31 304 31 c 2
 328 31 l 1
 328 0 l 1
 293 3 218 3 180 3 c 0
 142 3 68 3 33 0 c 1
 33 31 l 1
 57 31 l 2
 134 31 136 42 136 78 c 2
 136 605 l 2
 136 641 134 652 57 652 c 2
 33 652 l 1
 33 683 l 1
 68 680 143 680 181 680 c 0
 219 680 293 680 328 683 c 1
 328 652 l 1
 304 652 l 2
 227 652 225 641 225 605 c 2
 225 287 l 1
 538 586 l 2
 546 593 556 603 556 619 c 0
 556 628 550 651 510 652 c 1
 510 683 l 1
 544 680 601 680 637 680 c 0
 664 680 696 680 722 683 c 1
 722 652 l 1
 641 651 588 600 580 592 c 2
 400 419 l 1
 631 79 l 2
 661 35 682 31 736 31 c 1
 736 0 l 1
433 -145 m 0
 433 -231 374 -290 365 -290 c 0
 361 -290 357 -287 357 -282 c 0
 357 -279 358 -278 362 -274 c 0
 395 -238 416 -193 415 -133 c 1
 407 -141 396 -145 385 -145 c 0
 358 -145 345 -125 345 -106 c 0
 345 -86 359 -66 385 -66 c 0
 415 -66 433 -97 433 -145 c 0
EndSplineSet
EndChar

StartChar: kcedilla
Encoding: 65548 -1 12
Width: 528
Flags: MW
HStem: -290 21G<238 244.5> -145 79<247 265.5> 0 31<28 61.5> 400 31<306 306> 652 31<28 63> 652 42
VStem: 106 66<214 596 596 620.5> 247 66 352 66
LayerCount: 2
Fore
SplineSet
511 0 m 1x3780
 482 2 453 3 424 3 c 2
 316 0 l 1
 316 31 l 1
 335 31 352 35 352 54 c 0
 352 72 310 128 233 234 c 1
 169 179 l 1
 169 76 l 2
 169 31 180 31 247 31 c 1
 247 0 l 1
 137 3 l 1
 28 0 l 1
 28 31 l 1
 95 31 106 31 106 76 c 2
 106 596 l 2
 106 645 98 652 28 652 c 1
 28 683 l 1xeb80
 172 694 l 1
 172 214 l 1
 313 336 l 2
 321 343 335 355 335 375 c 0
 335 388 325 399 306 400 c 1
 306 431 l 1
 320 430 382 428 418 428 c 0
 446 428 459 428 488 431 c 1
 488 400 l 1
 467 399 425 397 362 346 c 0
 352 338 281 278 281 274 c 0
 281 271 286 265 287 263 c 2
 414 84 l 2
 452 31 474 31 511 31 c 1
 511 0 l 1x3780
308 -145 m 0
 308 -231 249 -290 240 -290 c 0
 236 -290 232 -287 232 -282 c 0
 232 -279 233 -278 237 -274 c 0
 270 -238 291 -193 290 -133 c 1
 282 -141 271 -145 260 -145 c 0
 233 -145 220 -125 220 -106 c 0
 220 -86 234 -66 260 -66 c 0
 290 -66 308 -97 308 -145 c 0
EndSplineSet
EndChar

StartChar: Lcedilla
Encoding: 65549 -1 13
Width: 625
Flags: MW
HStem: -290 21G<287 293.5> -145 79<296 314.5> 0 31<33 57 57 95.5 274 356 356 444 33 57> 238 20G<557 582 582 582> 652 31<33 57 33 33>
VStem: 136 89<78 604> 185 89 557 25<258 258>
LayerCount: 2
Fore
SplineSet
582 258 m 1x33
 554 0 l 1
 33 0 l 1
 33 31 l 1
 57 31 l 2
 134 31 136 42 136 78 c 2
 136 605 l 2xf5
 136 641 134 652 57 652 c 2
 33 652 l 1
 33 683 l 1
 68 680 146 680 185 680 c 0x0a
 226 680 317 680 353 683 c 1
 353 652 l 1
 320 652 l 2
 225 652 225 638 225 604 c 2
 225 71 l 2x0c
 225 38 227 31 274 31 c 2
 356 31 l 2
 532 31 546 156 557 258 c 1
 582 258 l 1x33
357 -145 m 0
 357 -231 298 -290 289 -290 c 0
 285 -290 281 -287 281 -282 c 0
 281 -279 282 -278 286 -274 c 0
 319 -238 340 -193 339 -133 c 1
 331 -141 320 -145 309 -145 c 0
 282 -145 269 -125 269 -106 c 0
 269 -86 283 -66 309 -66 c 0
 339 -66 357 -97 357 -145 c 0
EndSplineSet
EndChar

StartChar: lcedilla
Encoding: 65550 -1 14
Width: 278
Flags: MW
HStem: -290 21G<113 119.5> -145 79<122 140.5> 0 31<33 66.5> 652 31<33 68> 652 42
VStem: 111 66<76 596 596 620.5>
LayerCount: 2
Fore
SplineSet
255 0 m 1x2c
 144 3 l 1
 33 0 l 1
 33 31 l 1
 100 31 111 31 111 76 c 2
 111 596 l 2
 111 645 103 652 33 652 c 1
 33 683 l 1xf4
 177 694 l 1
 177 76 l 2
 177 31 188 31 255 31 c 1
 255 0 l 1x2c
183 -145 m 0
 183 -231 124 -290 115 -290 c 0
 111 -290 107 -287 107 -282 c 0
 107 -279 108 -278 112 -274 c 0
 145 -238 166 -193 165 -133 c 1
 157 -141 146 -145 135 -145 c 0
 108 -145 95 -125 95 -106 c 0
 95 -86 109 -66 135 -66 c 0
 165 -66 183 -97 183 -145 c 0
EndSplineSet
EndChar

StartChar: macron.dup
Encoding: 65551 -1 15
Width: 500
Flags: MW
HStem: 589 31<70 431 70 431>
LayerCount: 2
Fore
SplineSet
431 589 m 1
 70 589 l 1
 70 620 l 1
 431 620 l 1
 431 589 l 1
EndSplineSet
EndChar

StartChar: Ncedilla
Encoding: 65552 -1 16
Width: 750
Flags: MW
HStem: -290 21G<349 355.5> -145 79<358 376.5> 0 31<33 84.5> 652 31<33 62 33 203>
VStem: 136 28<105 625> 585 28<151 578>
LayerCount: 2
Fore
SplineSet
716 652 m 1
 613 652 613 605 613 578 c 2
 613 26 l 2
 613 7 613 0 599 0 c 0
 592 0 591 1 582 13 c 2
 174 613 l 2
 170 619 169 620 164 625 c 1
 164 105 l 2
 164 78 164 31 267 31 c 1
 267 0 l 1
 150 3 l 1
 33 0 l 1
 33 31 l 1
 136 31 136 78 136 105 c 2
 136 627 l 2
 136 646 135 647 112 650 c 0
 97 651 77 652 62 652 c 2
 33 652 l 1
 33 683 l 1
 203 683 l 2
 222 683 223 682 232 670 c 2
 585 151 l 1
 585 578 l 2
 585 605 585 652 482 652 c 1
 482 683 l 1
 599 680 l 1
 716 683 l 1
 716 652 l 1
419 -145 m 0
 419 -231 360 -290 351 -290 c 0
 347 -290 343 -287 343 -282 c 0
 343 -279 344 -278 348 -274 c 0
 381 -238 402 -193 401 -133 c 1
 393 -141 382 -145 371 -145 c 0
 344 -145 331 -125 331 -106 c 0
 331 -86 345 -66 371 -66 c 0
 401 -66 419 -97 419 -145 c 0
EndSplineSet
EndChar

StartChar: ncedilla
Encoding: 65553 -1 17
Width: 556
Flags: MW
HStem: -290 21G<252 258.5> -145 79<261 279.5> 0 31<32 65.5> 400 31<32 67> 420 22<284.5 345.5>
VStem: 110 69<76 260> 388 69<76 252 61 309 61 337.5>
LayerCount: 2
Fore
SplineSet
535 0 m 1x2a
 423 3 l 1
 310 0 l 1
 310 31 l 1
 377 31 388 31 388 76 c 2
 388 309 l 2
 388 366 377 420 314 420 c 0xea
 250 420 179 364 179 260 c 2
 179 76 l 2
 179 31 190 31 257 31 c 1
 257 0 l 1
 145 3 l 1
 32 0 l 1
 32 31 l 1
 99 31 110 31 110 76 c 2
 110 344 l 2
 110 393 102 400 32 400 c 1
 32 431 l 1x34
 173 442 l 1
 173 337 l 1
 201 399 248 442 321 442 c 0
 379 442 412 422 426 405 c 0
 457 369 457 338 457 252 c 2
 457 61 l 1
 458 31 483 31 535 31 c 1
 535 0 l 1x2a
322 -145 m 0
 322 -231 263 -290 254 -290 c 0
 250 -290 246 -287 246 -282 c 0
 246 -279 247 -278 251 -274 c 0
 284 -238 305 -193 304 -133 c 1
 296 -141 285 -145 274 -145 c 0
 247 -145 234 -125 234 -106 c 0
 234 -86 248 -66 274 -66 c 0
 304 -66 322 -97 322 -145 c 0
EndSplineSet
EndChar

StartChar: OE.dup
Encoding: 65554 -1 18
Width: 1014
Flags: MW
HStem: -22 22<339.5 412.5> 0 31<639 749 749 834.5> 339 31<590 698 590 698> 652 31<615.5 639 639 751> 683 22<341 405.5 314 448>
VStem: 70 100<255 444.5> 514 76<277.5 339 370 395> 812 25<222 265 444 487> 932 25<458 458> 960 25<258 258>
LayerCount: 2
Fore
SplineSet
985 258 m 1x73c0
 943 0 l 1
 556 0 l 2
 540 0 527 0 479 -11 c 0
 442 -19 425 -22 400 -22 c 0
 228 -22 70 130 70 339 c 0
 70 550 228 705 400 705 c 0xae40
 411 705 428 705 470 695 c 0
 525 683 539 683 556 683 c 2
 929 683 l 1
 957 458 l 1
 932 458 l 1
 916 593 894 652 751 652 c 2
 639 652 l 2
 592 652 590 645 590 612 c 2
 590 370 l 1
 698 370 l 2
 798 370 812 401 812 487 c 1
 837 487 l 1
 837 222 l 1
 812 222 l 1
 812 308 798 339 698 339 c 2
 590 339 l 1
 590 71 l 2
 590 38 592 31 639 31 c 2
 749 31 l 2
 920 31 935 109 960 258 c 1
 985 258 l 1x73c0
514 341 m 0
 514 449 514 534 509 578 c 0
 503 635 492 683 404 683 c 0
 278 683 170 544 170 354 c 0
 170 156 275 0 404 0 c 0
 488 0 503 43 510 109 c 0
 514 155 514 214 514 341 c 0
EndSplineSet
EndChar

StartChar: oe.dup
Encoding: 65555 -1 19
Width: 778
Flags: MW
HStem: -11 22<231 258 231 281> -11 25<593 629 593 650.5> 231 21<452 683 452 724 451 683> 426 22<229.5 251 563 628.5>
VStem: 28 77<154 284> 382 69<127.5 231 122.5 320.5> 683 66<252 252>
LayerCount: 2
Fore
SplineSet
749 119 m 0x7e
 749 100 707 -11 594 -11 c 0
 533 -11 461 20 417 93 c 1
 384 37 321 -11 241 -11 c 0
 126 -11 28 89 28 219 c 0
 28 349 127 448 241 448 c 0
 317 448 380 404 416 347 c 1
 456 414 519 448 582 448 c 0
 691 448 749 363 749 252 c 0
 749 231 746 231 724 231 c 2
 451 231 l 1
 451 14 588 14 598 14 c 0
 660 14 706 61 721 111 c 0
 726 127 727 131 736 131 c 0
 741 131 749 129 749 119 c 0x7e
683 252 m 1
 681 291 676 426 581 426 c 0
 545 426 462 398 452 252 c 1
 683 252 l 1
382 223 m 0
 382 418 260 426 242 426 c 0
 217 426 105 416 105 223 c 0
 105 20 220 11 242 11 c 0x9c
 274 11 382 32 382 223 c 0
EndSplineSet
EndChar

StartChar: Oslash.dup
Encoding: 65556 -1 20
Width: 778
Flags: MW
HStem: -56 21G<132 132> -22 22<358 425 358 479> 683 22<353 434> 719 20G<644 644>
VStem: 56 89<275 367 275 442> 576 89<642 725> 632 89<313.5 371>
LayerCount: 2
Fore
SplineSet
721 339 m 0xfc
 721 137 570 -22 388 -22 c 0
 300 -22 241 11 200 40 c 1
 132 -56 l 1
 112 -42 l 1
 120 -31 l 1
 180 58 l 1
 136 95 56 190 56 339 c 0
 56 545 209 705 388 705 c 0
 482 705 545 662 569 647 c 1
 574 642 576 642 576 642 c 1
 644 739 l 1
 665 725 l 1
 596 624 l 1
 671 554 721 463 721 339 c 0xfc
554 607 m 1
 535 627 480 683 388 683 c 0
 318 683 244 647 197 572 c 0
 148 494 145 395 145 339 c 0
 145 211 171 146 206 97 c 1
 554 607 l 1
632 339 m 0
 632 403 627 510 570 586 c 1
 223 76 l 1
 266 27 327 0 389 0 c 0
 461 0 530 38 574 100 c 0
 630 181 632 288 632 339 c 0
EndSplineSet
EndChar

StartChar: oslash.dup
Encoding: 65557 -1 21
Width: 500
Flags: MW
HStem: -102 22<67 79> -11 22<237.5 269.5 237.5 308.5> 426 22<231 269> 514 20G<420 420>
VStem: 35 69<186 235 186 277.5> 60 69 395 69<197.5 234.5>
LayerCount: 2
Fore
SplineSet
464 213 m 0x38
 464 89 368 -11 249 -11 c 0
 207 -11 170 3 147 16 c 1
 79 -102 l 1
 60 -90 l 1
 67 -80 l 1
 129 28 l 1xc6
 75 66 35 133 35 213 c 0
 35 342 131 448 250 448 c 0
 293 448 331 433 354 418 c 1
 420 534 l 1
 439 522 l 1
 372 406 l 1
 410 378 464 311 464 213 c 0x38
338 392 m 1
 320 408 289 426 249 426 c 0
 213 426 163 409 133 357 c 0
 106 312 104 256 104 214 c 0x6a
 104 158 109 101 146 59 c 1
 338 392 l 1
395 214 m 0
 395 255 393 328 354 374 c 1
 163 42 l 1
 191 18 225 11 250 11 c 0
 289 11 337 29 366 75 c 0
 395 121 395 181 395 214 c 0
EndSplineSet
EndChar

StartChar: quoteleft.dup
Encoding: 65558 -1 22
Width: 278
Flags: MW
HStem: 394 106<129 156.5> 673 20G<160.5 168.5>
VStem: 72 22<497 515 497 558>
LayerCount: 2
Fore
SplineSet
192 447 m 0
 192 421 174 394 139 394 c 0
 96 394 72 439 72 499 c 0
 72 617 155 693 166 693 c 0
 171 693 176 689 176 682 c 0
 176 679 176 677 164 665 c 0
 101 603 94 531 94 499 c 0
 94 495 96 481 96 481 c 1
 96 481 98 482 99 484 c 0
 105 490 119 500 139 500 c 0
 175 500 192 473 192 447 c 0
EndSplineSet
EndChar

StartChar: quoteright.dup
Encoding: 65559 -1 23
Width: 278
Flags: MW
HStem: 395 21G<109.5 117.5> 588 106<121.5 149>
VStem: 184 22<573 591>
LayerCount: 2
Fore
SplineSet
206 589 m 0
 206 471 123 395 112 395 c 0
 107 395 102 399 102 406 c 0
 102 409 102 411 114 423 c 0
 177 485 184 557 184 589 c 0
 184 593 182 607 182 607 c 1
 182 607 180 606 179 604 c 0
 173 598 159 588 139 588 c 0
 103 588 86 615 86 641 c 0
 86 667 104 694 139 694 c 0
 182 694 206 649 206 589 c 0
EndSplineSet
EndChar

StartChar: Rcedilla
Encoding: 65560 -1 24
Width: 736
Flags: MW
HStem: -290 21G<342 348.5> -145 79<351 369.5> -22 22<622 653.5> 0 31<35 59> 331 22<224 335 335 339 224 335> 652 31<35 59 35 349 295 349 349 350>
VStem: 35 103<0 605 31 605 78 683 78 683> 138 86<78 331 353 605 605 612> 224 103<0 78 0 331> 246 103 349 86 507 103<468.5 551 464 575.5> 706 26
LayerCount: 2
Fore
SplineSet
732 88 m 0x2630
 732 60 715 -22 637 -22 c 0xed58
 607 -22 552 -16 511 20 c 1
 470 58 470 98 470 163 c 0
 470 230 470 261 432 297 c 0
 397 331 355 331 339 331 c 2
 224 331 l 1
 224 78 l 2
 224 42 226 31 303 31 c 2
 327 31 l 1
 327 0 l 1
 291 3 220 3 181 3 c 0
 142 3 71 3 35 0 c 1
 35 31 l 1
 59 31 l 2x1a80
 136 31 138 42 138 78 c 2
 138 605 l 2
 138 641 136 652 59 652 c 2
 35 652 l 1
 35 683 l 1
 349 683 l 2
 496 683 610 599 610 503 c 0
 610 425 532 364 435 340 c 1
 490 321 539 288 557 224 c 1
 570 144 l 1
 584 51 592 0 641 0 c 0
 666 0 701 18 707 89 c 0
 708 96 708 105 719 105 c 0
 732 105 732 94 732 88 c 0x2630
507 503 m 0
 507 648 395 652 305 652 c 0
 285 652 256 652 246 650 c 0
 224 647 224 635 224 612 c 2
 224 353 l 1
 335 353 l 2
 483 353 507 434 507 503 c 0
412 -145 m 0
 412 -231 353 -290 344 -290 c 0
 340 -290 336 -287 336 -282 c 0
 336 -279 337 -278 341 -274 c 0
 374 -238 395 -193 394 -133 c 1
 386 -141 375 -145 364 -145 c 0
 337 -145 324 -125 324 -106 c 0
 324 -86 338 -66 364 -66 c 0
 394 -66 412 -97 412 -145 c 0
EndSplineSet
EndChar

StartChar: rcedilla
Encoding: 65561 -1 25
Width: 392
Flags: MW
HStem: -290 21G<113 119.5> -145 79<122 140.5> 0 31<28 61.5> 400 31<28 63> 420 22<253.5 293.5>
VStem: 106 66<76 78 78 232> 278 86<366 393>
LayerCount: 2
Fore
SplineSet
364 381 m 0x08
 364 349 339 337 321 337 c 0
 299 337 278 352 278 380 c 0
 278 406 298 418 301 419 c 1
 299 420 297 420 290 420 c 0xca
 214 420 172 331 172 232 c 2
 172 78 l 2
 172 42 174 31 248 31 c 2
 269 31 l 1
 269 0 l 1
 229 3 182 3 142 3 c 1
 28 0 l 1
 28 31 l 1
 95 31 106 31 106 76 c 2
 106 344 l 2
 106 393 98 400 28 400 c 1
 28 431 l 1x34
 167 442 l 1
 167 332 l 1
 181 375 217 442 290 442 c 0
 333 442 364 413 364 381 c 0x08
183 -145 m 0
 183 -231 124 -290 115 -290 c 0
 111 -290 107 -287 107 -282 c 0
 107 -279 108 -278 112 -274 c 0
 145 -238 166 -193 165 -133 c 1
 157 -141 146 -145 135 -145 c 0
 108 -145 95 -125 95 -106 c 0
 95 -86 109 -66 135 -66 c 0
 165 -66 183 -97 183 -145 c 0
EndSplineSet
EndChar

StartChar: tilde.dup
Encoding: 65562 -1 26
Width: 500
Flags: MW
HStem: 558 45<307.5 328> 606 45<173 193.5>
LayerCount: 2
Fore
SplineSet
417 636 m 1
 366 580 347 558 309 558 c 0
 292 558 274 565 247 581 c 0
 230 591 205 606 182 606 c 0
 138 606 100 558 100 558 c 1
 84 573 l 1
 135 629 154 651 192 651 c 0
 209 651 227 644 254 628 c 0
 271 618 296 603 319 603 c 0
 363 603 401 651 401 651 c 1
 417 636 l 1
EndSplineSet
EndChar

StartChar: A
Encoding: 65 65 27
Width: 750
Flags: MW
HStem: 0 31<32 32> 228 31<233 458 233 469 222 458> 696 20G<351 383 367 398>
LayerCount: 2
Fore
SplineSet
717 0 m 1
 586 3 l 2
 548 3 478 3 442 0 c 1
 442 31 l 1
 469 31 525 31 525 61 c 0
 525 65 523 71 522 75 c 2
 469 228 l 1
 222 228 l 1
 176 97 l 2
 175 95 174 85 174 82 c 0
 174 56 199 31 249 31 c 1
 249 0 l 1
 134 3 l 1
 32 0 l 1
 32 31 l 1
 86 32 126 47 144 98 c 2
 351 696 l 2
 356 710 359 716 375 716 c 0
 391 716 393 709 398 696 c 2
 614 71 l 2
 625 38 639 31 699 31 c 2
 717 31 l 1
 717 0 l 1
458 259 m 1
 345 584 l 1
 233 259 l 1
 458 259 l 1
EndSplineSet
Position2: "'cpsp' Capital Spacing lookup 0 subtable" dx=7 dy=0 dh=14 dv=0
EndChar

StartChar: a
Encoding: 97 97 28
Width: 500
Flags: MW
HStem: -11 22<174.5 221.5 174.5 225> -6 31<405.5 411.5> 288 90 426 22<194 234.5>
VStem: 32 77<71 117> 316 69<140 240 240 240 261 275> 458 25<89 145>
LayerCount: 2
Fore
SplineSet
483 89 m 2x7e
 483 8 422 -6 401 -6 c 0x42
 354 -6 327 36 323 76 c 1
 304 29 258 -11 192 -11 c 0x80
 129 -11 32 14 32 95 c 0
 32 139 57 191 132 225 c 1
 195 255 265 258 316 261 c 1
 316 298 l 2
 316 387 259 426 210 426 c 0
 178 426 129 415 102 380 c 1
 148 379 153 346 153 334 c 0
 153 308 135 288 107 288 c 0
 81 288 61 305 61 335 c 0
 61 401 130 448 212 448 c 0
 260 448 310 432 349 393 c 0
 385 356 385 317 385 275 c 2
 385 75 l 2
 385 70 389 25 422 25 c 0
 433 25 458 31 458 89 c 2
 458 145 l 1
 483 145 l 1
 483 89 l 2x7e
316 140 m 2
 316 240 l 1
 151 234 109 151 109 96 c 0
 109 46 150 11 199 11 c 0x8c
 244 11 316 45 316 140 c 2
EndSplineSet
EndChar

StartChar: ampersand
Encoding: 38 38 29
Width: 778
Flags: MW
HStem: -22 31<189.5 245 189.5 265.5 557 606.5> 298 31 400 31<508 531> 409 22 694 22<283.5 331>
VStem: 42 83<133 155> 163 63<562.5 608> 231 25 361 25<555 588> 696 25<121 121>
LayerCount: 2
Fore
SplineSet
727 400 m 1xeec0
 638 399 617 364 578 298 c 0
 532 219 492 151 446 98 c 1
 478 60 530 9 584 9 c 0
 629 9 693 42 696 121 c 1
 721 121 l 1
 719 35 656 -22 580 -22 c 0
 532 -22 473 -6 404 54 c 1
 367 21 308 -22 223 -22 c 0
 124 -22 42 41 42 128 c 0
 42 182 68 209 113 255 c 1
 204 352 l 1
 169 441 163 513 163 555 c 0
 163 661 237 716 299 716 c 0
 370 716 386 633 386 587 c 0
 386 521 318 445 264 385 c 1
 308 270 417 133 430 118 c 1
 473 171 518 239 573 336 c 0
 574 339 579 346 579 356 c 0
 579 381 554 400 508 400 c 1
 508 431 l 1
 535 429 619 428 630 428 c 2
 727 431 l 1
 727 400 l 1xeec0
361 588 m 1
 361 588 361 694 301 694 c 0
 266 694 226 662 226 578 c 0
 226 547 229 489 256 409 c 1xdf80
 280 435 361 522 361 588 c 1
385 73 m 1
 348 110 312 162 293 190 c 0
 250 252 235 282 213 329 c 1
 159 277 125 241 125 160 c 0
 125 106 148 9 231 9 c 0
 259 9 321 16 385 73 c 1
EndSplineSet
Substitution2: "'lnum' Lining Figures lookup 5 subtable" ampersand
Substitution2: "'onum' Oldstyle Figures lookup 4 subtable" ampersand
Substitution2: "'aalt' Access All Alternates lookup 0 subtable" ampersand
EndChar

StartChar: asciicircum
Encoding: 94 94 30
Width: 556
Flags: MW
HStem: 562 21G<6 6 549 549> 685 59<277 278>
VStem: -5 566<584 584>
LayerCount: 2
Fore
SplineSet
561 584 m 1
 549 562 l 1
 277 685 l 1
 6 562 l 1
 -5 584 l 1
 278 744 l 1
 561 584 l 1
EndSplineSet
EndChar

StartChar: asciitilde
Encoding: 126 126 31
Width: 556
Flags: MW
HStem: 193 43<368 383.5> 211 43 246 43 264 43<171.5 187>
LayerCount: 2
Fore
SplineSet
555 290 m 1x90
 501 246 l 2x20
 484 232 464 221 444 211 c 0x40
 422 201 396 193 371 193 c 0
 331 193 300 210 271 227 c 0
 236 247 207 264 167 264 c 0
 116 264 63 234 14 193 c 1x90
 0 210 l 1
 54 254 l 2x40
 71 268 91 279 111 289 c 0x20
 133 299 159 307 184 307 c 0
 224 307 255 290 284 273 c 0
 319 253 348 236 388 236 c 0
 439 236 492 266 541 307 c 1
 555 290 l 1x90
EndSplineSet
EndChar

StartChar: asterisk
Encoding: 42 42 32
Width: 500
Flags: MW
HStem: 319 21G<242.5 257> 730 20G<242 256.5>
VStem: 65 369<441 446.5 434.5 447 622.5 634.5>
LayerCount: 2
Fore
SplineSet
434 441 m 0
 434 428 423 413 407 413 c 0
 399 413 396 416 391 419 c 2
 261 514 l 1
 276 344 l 1
 276 331 265 319 249 319 c 0
 236 319 223 329 223 344 c 1
 238 514 l 1
 98 413 l 1
 65 413 65 441 65 441 c 1
 65 453 69 460 88 469 c 2
 227 535 l 1
 86 601 l 2
 69 609 65 617 65 628 c 0
 65 641 76 656 92 656 c 0
 98 656 100 656 114 645 c 2
 238 555 l 1
 223 725 l 1
 223 738 234 750 250 750 c 0
 263 750 276 740 276 725 c 1
 261 555 l 1
 372 637 l 2
 398 656 400 656 407 656 c 0
 423 656 434 641 434 628 c 0
 434 616 430 609 411 600 c 2
 272 534 l 1
 413 468 l 2
 430 460 434 452 434 441 c 0
EndSplineSet
EndChar

StartChar: at
Encoding: 64 64 33
Width: 778
Flags: MW
HStem: -11 22<302 420> 128 22<354 400 354 414 605.5 656> 461 20G<547 564 564 575.5> 544 22<353.5 406> 683 22<306 456.5>
VStem: 56 25<257.5 442.5 257.5 446.5> 189 69<291.5 402.5 291.5 410> 505 69 519 69<262 432 432 441> 619 69 696 25<286 452.5>
LayerCount: 2
Fore
SplineSet
721 338 m 0xcd60
 721 231 707 128 619 128 c 0
 581 128 529 147 519 199 c 1
 489 157 441 128 387 128 c 0
 284 128 189 221 189 347 c 0
 189 473 284 566 387 566 c 0
 426 566 478 552 524 489 c 0
 530 482 531 481 547 481 c 2
 564 481 l 2
 587 481 588 480 588 457 c 2
 588 216 l 2x72e0
 588 201 588 150 623 150 c 0
 689 150 696 240 696 332 c 0
 696 573 525 683 388 683 c 0
 224 683 81 538 81 347 c 0
 81 168 211 11 393 11 c 0
 487 11 580 35 665 75 c 0
 670 78 672 78 688 78 c 2
 697 78 l 2
 713 78 720 78 720 68 c 0
 720 52 600 17 574 11 c 0
 510 -4 446 -11 394 -11 c 0
 194 -11 56 159 56 347 c 0
 56 546 206 705 389 705 c 0
 550 705 721 572 721 338 c 0xcd60
519 262 m 2
 519 432 l 2x0080
 519 450 519 453 506 472 c 0
 470 528 422 544 390 544 c 0
 317 544 258 458 258 347 c 0
 258 236 318 150 390 150 c 0
 410 150 461 156 505 219 c 0x53
 519 240 519 244 519 262 c 2
EndSplineSet
EndChar

StartChar: B
Encoding: 66 66 34
Width: 708
Flags: MW
HStem: 0 31<36 60 60 98.5 271 396 396 428 36 60> 344 22<222 367 367 410 222 367> 652 31<36 60 36 402 247.5 271 271 395>
VStem: 139 83<78 344 366 605 605 612> 527 97<482 540.5> 551 100<148.5 217.5>
LayerCount: 2
Fore
SplineSet
651 183 m 0xb8
 651 89 561 0 428 0 c 2
 36 0 l 1
 36 31 l 1
 60 31 l 2
 137 31 139 42 139 78 c 2
 139 605 l 2
 139 641 137 652 60 652 c 2
 36 652 l 1
 36 683 l 1
 402 683 l 2
 532 683 624 601 624 514 c 0
 624 440 555 376 458 357 c 1
 569 345 651 270 651 183 c 0xb8
527 514 m 0
 527 567 492 652 395 652 c 2
 271 652 l 2
 224 652 222 645 222 612 c 2
 222 366 l 1
 367 366 l 2
 478 366 527 450 527 514 c 0
551 184 m 0
 551 251 509 344 410 344 c 2
 222 344 l 1
 222 71 l 2
 222 38 224 31 271 31 c 2
 396 31 l 2
 499 31 551 113 551 184 c 0
EndSplineSet
Position2: "'cpsp' Capital Spacing lookup 0 subtable" dx=7 dy=0 dh=14 dv=0
EndChar

StartChar: b
Encoding: 98 98 35
Width: 556
Flags: MW
HStem: -11 22<271.5 321 271.5 357.5> 72 42 420 22<292 326.5> 652 42
VStem: 106 66<377 596 596 620.5> 106 83 438 83<198.5 237.5>
LayerCount: 2
Fore
SplineSet
521 216 m 0xba
 521 87 417 -11 298 -11 c 0
 224 -11 182 39 167 62 c 1
 131 0 l 1
 106 0 l 1
 106 596 l 2
 106 645 98 652 28 652 c 1
 28 683 l 1
 172 694 l 1
 172 377 l 1
 188 395 231 442 309 442 c 0
 423 442 521 343 521 216 c 0xba
438 217 m 0
 438 258 435 315 409 356 c 0
 385 394 349 420 304 420 c 0
 280 420 225 412 186 356 c 0
 175 340 175 339 175 320 c 2
 175 114 l 2
 175 96 175 93 189 72 c 0x66
 213 35 249 11 294 11 c 0
 348 11 386 44 407 75 c 0
 436 120 438 180 438 217 c 0
EndSplineSet
EndChar

StartChar: backslash
Encoding: 92 92 36
Width: 500
Flags: MW
HStem: -250 21G<416 428.5> 730 20G<56 83>
VStem: 56 387
LayerCount: 2
Fore
SplineSet
443 -230 m 1
 443 -241 434 -250 423 -250 c 0
 409 -250 405 -239 401 -228 c 2
 61 712 l 2
 56 725 56 730 56 730 c 1
 56 741 65 750 76 750 c 0
 90 750 94 739 98 728 c 2
 438 -212 l 2
 443 -225 443 -230 443 -230 c 1
EndSplineSet
EndChar

StartChar: bar
Encoding: 124 124 37
Width: 278
Flags: MW
HStem: -250 21G<129 149> 730 20G<129 149>
VStem: 119 40<-217 717>
LayerCount: 2
Fore
SplineSet
159 -217 m 2
 159 -231 159 -250 139 -250 c 0
 119 -250 119 -231 119 -217 c 2
 119 717 l 2
 119 731 119 750 139 750 c 0
 159 750 159 731 159 717 c 2
 159 -217 l 2
EndSplineSet
EndChar

StartChar: braceleft
Encoding: 123 123 38
Width: 500
Flags: MW
HStem: -250 21G<391.5 413> 237 24 730 20G<357 413>
VStem: 216 67<-83 56 444 563>
LayerCount: 2
Fore
SplineSet
427 -239 m 0
 427 -250 419 -250 407 -250 c 0
 376 -250 311 -242 268 -212 c 0
 216 -175 216 -141 216 -83 c 2
 216 115 l 2
 216 215 131 236 88 239 c 0
 78 240 72 240 72 250 c 0
 72 260 79 261 86 261 c 0
 149 265 176 292 190 306 c 0
 216 334 216 350 216 444 c 2
 216 627 l 1
 218 699 307 750 407 750 c 0
 419 750 427 750 427 739 c 0
 427 733 423 729 418 728 c 0
 348 724 325 700 307 682 c 0
 283 657 283 635 283 563 c 2
 283 383 l 2
 283 355 283 284 165 250 c 1
 204 239 268 213 281 147 c 0
 283 137 283 86 283 56 c 2
 283 -94 l 2
 283 -129 283 -131 286 -142 c 0
 295 -178 332 -223 411 -228 c 0
 421 -229 427 -229 427 -239 c 0
EndSplineSet
EndChar

StartChar: braceright
Encoding: 125 125 39
Width: 500
Flags: MW
HStem: -250 21G<87 142> 239 21G<413 416.5> 730 20G<87 108>
VStem: 216 67<-63 56 -127 117 -127 131 444 583>
LayerCount: 2
Fore
SplineSet
427 250 m 0
 427 240 420 239 413 239 c 0
 350 235 323 208 309 194 c 0
 283 166 283 150 283 56 c 2
 283 -127 l 1
 281 -199 192 -250 92 -250 c 0
 82 -250 72 -250 72 -239 c 0
 72 -233 76 -229 81 -228 c 0
 151 -224 174 -200 192 -182 c 0
 216 -157 216 -135 216 -63 c 2
 216 117 l 2
 216 145 216 216 334 250 c 1
 295 261 231 287 218 353 c 0
 216 363 216 414 216 444 c 2
 216 594 l 2
 216 629 216 631 213 642 c 0
 204 678 167 723 88 728 c 0
 78 729 72 729 72 739 c 0
 72 750 82 750 92 750 c 0
 124 750 188 741 231 712 c 1
 283 675 283 641 283 583 c 2
 283 385 l 2
 283 285 368 264 411 261 c 0
 421 260 427 260 427 250 c 0
EndSplineSet
EndChar

StartChar: bracketleft
Encoding: 91 91 40
Width: 278
Flags: MW
HStem: -250 40<158 255 158 255> 710 40<158 255 158 158>
VStem: 118 40<-210 710 -210 750>
LayerCount: 2
Fore
SplineSet
255 -250 m 1
 118 -250 l 1
 118 750 l 1
 255 750 l 1
 255 710 l 1
 158 710 l 1
 158 -210 l 1
 255 -210 l 1
 255 -250 l 1
EndSplineSet
EndChar

StartChar: bracketright
Encoding: 93 93 41
Width: 278
Flags: MW
HStem: -250 40<22 119 22 159 22 119> 710 40<22 119 22 159>
VStem: 119 40<-210 710 710 710>
LayerCount: 2
Fore
SplineSet
159 -250 m 1
 22 -250 l 1
 22 -210 l 1
 119 -210 l 1
 119 710 l 1
 22 710 l 1
 22 750 l 1
 159 750 l 1
 159 -250 l 1
EndSplineSet
EndChar

StartChar: C
Encoding: 67 67 42
Width: 722
Flags: MW
HStem: -22 31<385.5 470.5 385.5 485.5> 674 31<384.5 452 310.5 469.5>
VStem: 56 103<238.5 444> 635 30
LayerCount: 2
Fore
SplineSet
665 233 m 0
 665 117 567 -22 404 -22 c 0
 218 -22 56 135 56 342 c 0
 56 546 217 705 404 705 c 0
 500 705 551 655 588 619 c 1
 638 693 l 2
 646 705 650 705 654 705 c 0
 665 705 665 698 665 681 c 2
 665 444 l 2
 665 423 665 420 649 420 c 0
 635 420 635 423 633 437 c 0
 613 583 524 674 415 674 c 0
 354 674 159 640 159 341 c 0
 159 43 355 9 416 9 c 0
 525 9 632 91 640 234 c 0
 641 244 641 250 652 250 c 0
 665 250 665 243 665 233 c 0
EndSplineSet
Position2: "'cpsp' Capital Spacing lookup 0 subtable" dx=7 dy=0 dh=14 dv=0
EndChar

StartChar: c
Encoding: 99 99 43
Width: 444
Flags: MW
HStem: -11 25<231.5 276.5 231.5 316> 294 92<358 358> 423 25<225.5 256.5>
VStem: 34 83<152 278> 312 92<327 346.5>
LayerCount: 2
Fore
SplineSet
415 119 m 0
 415 109 383 -11 249 -11 c 0
 133 -11 34 88 34 216 c 0
 34 340 126 448 251 448 c 0
 328 448 404 409 404 341 c 0
 404 311 384 294 358 294 c 0
 330 294 312 314 312 340 c 0
 312 353 318 383 359 386 c 1
 324 422 261 423 252 423 c 0
 199 423 117 381 117 218 c 0
 117 57 205 14 258 14 c 0
 295 14 360 26 389 119 c 0
 391 125 393 129 402 129 c 0
 405 129 415 129 415 119 c 0
EndSplineSet
EndChar

StartChar: colon
Encoding: 58 58 44
Width: 278
Flags: MW
HStem: 0 106<124.5 153.5> 325 106<124.5 153.5>
VStem: 86 106<38.5 67.5 363.5 392.5>
LayerCount: 2
Fore
SplineSet
192 378 m 0
 192 349 168 325 139 325 c 0
 110 325 86 349 86 378 c 0
 86 407 110 431 139 431 c 0
 168 431 192 407 192 378 c 0
192 53 m 0
 192 24 168 0 139 0 c 0
 110 0 86 24 86 53 c 0
 86 82 110 106 139 106 c 0
 168 106 192 82 192 53 c 0
EndSplineSet
EndChar

StartChar: comma
Encoding: 44 44 45
Width: 278
Flags: MW
HStem: -193 21G<109.5 118> 0 106<121.5 146.5>
VStem: 181 22
LayerCount: 2
Fore
SplineSet
203 1 m 0
 203 -114 124 -193 112 -193 c 0
 107 -193 102 -189 102 -182 c 0
 102 -178 103 -177 109 -171 c 0
 153 -124 181 -63 179 16 c 1
 168 6 154 0 139 0 c 0
 103 0 86 27 86 53 c 0
 86 79 104 106 139 106 c 0
 179 106 203 65 203 1 c 0
EndSplineSet
EndChar

StartChar: D
Encoding: 68 68 46
Width: 764
Flags: MW
HStem: 0 31<35 59 59 97.5 273 374 374 401 35 59> 652 31<35 59 35 401 249.5 273 273 373>
VStem: 138 86<78 605 605 612> 273 100<652 652> 607 100<280.5 375>
LayerCount: 2
Fore
SplineSet
707 336 m 0
 707 148 569 0 401 0 c 2
 35 0 l 1
 35 31 l 1
 59 31 l 2
 136 31 138 42 138 78 c 2
 138 605 l 2
 138 641 136 652 59 652 c 2
 35 652 l 1
 35 683 l 1
 401 683 l 2
 572 683 707 526 707 336 c 0
607 336 m 0
 607 414 598 500 555 559 c 0
 504 630 435 652 373 652 c 2
 273 652 l 2
 226 652 224 645 224 612 c 2
 224 71 l 2
 224 38 226 31 273 31 c 2
 374 31 l 2
 475 31 532 89 552 116 c 0
 588 165 607 225 607 336 c 0
EndSplineSet
Position2: "'cpsp' Capital Spacing lookup 0 subtable" dx=7 dy=0 dh=14 dv=0
EndChar

StartChar: d
Encoding: 100 100 47
Width: 556
Flags: MW
HStem: -11 22<228.5 272.5 228.5 278> 0 31<492 527> 87 31 420 22<234 278.5> 652 31<305 340> 652 42
VStem: 34 83<193.5 232.5 193.5 279.5> 383 66<380 596 596 620.5>
LayerCount: 2
Fore
SplineSet
527 0 m 1x65
 380 -11 l 1
 380 55 l 1
 355 23 310 -11 246 -11 c 0
 132 -11 34 88 34 215 c 0
 34 344 139 442 257 442 c 0
 311 442 354 416 383 380 c 1
 383 596 l 2
 383 645 375 652 305 652 c 1
 305 683 l 1x9b
 449 694 l 1
 449 87 l 2
 449 38 457 31 527 31 c 1
 527 0 l 1x65
380 118 m 2x40
 380 323 l 2
 380 341 380 343 369 360 c 0
 338 405 296 420 261 420 c 0
 207 420 169 387 148 356 c 0
 119 311 117 251 117 214 c 0
 117 173 120 116 146 75 c 0
 170 37 206 11 251 11 c 0xb2
 294 11 339 33 369 81 c 0
 380 98 380 100 380 118 c 2x40
EndSplineSet
EndChar

StartChar: dollar
Encoding: 36 36 48
Width: 500
Flags: MW
HStem: -56 21G<234 265 234 234> -10 31<265 265> 137 92<100 114.5 99 115.5> 311 92<265 265> 319 92<234 234> 479 92<386.5 398.5> 673 31<234 234> 730 20G<234 265 265 265>
VStem: 56 51<533 558.5> 234 31<-56 -11 -11 -11 21 311 411 673 705 750> 392 51<143.5 177>
CounterMasks: 1 00e0
LayerCount: 2
Fore
SplineSet
443 195 m 0x17e0
 443 92 370 -1 265 -10 c 1
 265 -56 l 1
 234 -56 l 1
 234 -11 l 1
 109 -3 56 89 56 178 c 0
 56 227 96 229 102 229 c 0
 127 229 148 211 148 183 c 0
 148 156 129 137 102 137 c 0
 98 137 90 138 86 139 c 1
 99 77 146 26 234 21 c 1
 234 319 l 1xe8e0
 183 332 149 340 111 379 c 1
 93 396 56 444 56 513 c 0
 56 604 123 694 234 704 c 1
 234 750 l 1
 265 750 l 1
 265 705 l 1
 377 699 443 626 443 529 c 0
 443 480 400 479 397 479 c 0
 376 479 351 494 351 525 c 0
 351 553 371 571 397 571 c 0
 407 571 409 570 413 569 c 1
 398 625 350 669 265 673 c 1
 265 403 l 1
 313 391 349 382 389 338 c 0
 398 329 443 278 443 195 c 0x17e0
392 165 m 0
 392 189 385 286 265 311 c 1x12e0
 265 21 l 1
 344 31 392 98 392 165 c 0
234 411 m 1
 234 673 l 1
 154 665 107 603 107 543 c 0
 107 523 111 437 234 411 c 1
EndSplineSet
Substitution2: "'onum' Oldstyle Figures lookup 4 subtable" dollar.oldstyle
Substitution2: "'aalt' Access All Alternates lookup 0 subtable" dollar.oldstyle
EndChar

StartChar: E
Encoding: 69 69 49
Width: 681
Flags: MW
HStem: 0 31<33 57 57 95.5 274 407 407 493 33 57> 338 31<225 315 225 315> 455 31 649 31<33 57 33 596 250.5 274 274 403>
VStem: 136 89<78 338 369 602 602 609> 423 25<221 263.5 443 486> 599 25<455 455> 627 25<258 258>
LayerCount: 2
Fore
SplineSet
652 258 m 1
 610 0 l 1
 33 0 l 1
 33 31 l 1
 57 31 l 2
 134 31 136 42 136 78 c 2
 136 602 l 2
 136 638 134 649 57 649 c 2
 33 649 l 1
 33 680 l 1
 596 680 l 1
 624 455 l 1
 599 455 l 1
 583 594 556 649 403 649 c 2
 274 649 l 2
 227 649 225 642 225 609 c 2
 225 369 l 1
 315 369 l 2
 412 369 423 400 423 486 c 1
 448 486 l 1
 448 221 l 1
 423 221 l 1
 423 306 412 338 315 338 c 2
 225 338 l 1
 225 71 l 2
 225 38 227 31 274 31 c 2
 407 31 l 2
 579 31 602 104 627 258 c 1
 652 258 l 1
EndSplineSet
Position2: "'cpsp' Capital Spacing lookup 0 subtable" dx=7 dy=0 dh=14 dv=0
EndChar

StartChar: e
Encoding: 101 101 50
Width: 444
Flags: MW
HStem: -11 25<229 259 229 309> 231 21<112 349 112 390 111 349> 426 22<219 287.5>
VStem: 28 83<213 231 213 282.5> 349 66<252 271.5>
LayerCount: 2
Fore
SplineSet
415 119 m 0
 415 100 370 -11 248 -11 c 0
 133 -11 28 86 28 220 c 0
 28 345 120 448 236 448 c 0
 361 448 415 351 415 252 c 0
 415 231 412 231 390 231 c 2
 111 231 l 1
 111 195 111 129 141 81 c 0
 164 44 204 14 254 14 c 0
 264 14 354 14 389 117 c 0
 391 125 393 131 402 131 c 0
 407 131 415 129 415 119 c 0
349 252 m 1
 349 291 339 426 236 426 c 0
 202 426 118 401 112 252 c 1
 349 252 l 1
EndSplineSet
EndChar

StartChar: eight
Encoding: 56 56 51
Width: 500
Flags: MW
HStem: -22 28<207 291 207 305.5> 641 25<213.5 285.5>
VStem: 42 50<109.5 180 109.5 200.5> 113 50 407 50<114.5 162.5>
LayerCount: 2
Fore
SplineSet
457 168 m 0
 457 61 362 -22 249 -22 c 0
 144 -22 42 45 42 151 c 0
 42 250 128 306 186 335 c 1
 161 352 124 377 113 389 c 0
 71 436 69 481 69 499 c 0
 69 592 150 666 250 666 c 0
 341 666 430 609 430 517 c 0
 430 451 381 399 309 362 c 1
 373 322 389 312 408 291 c 0
 446 249 457 204 457 168 c 0
386 517 m 0
 386 589 322 641 249 641 c 0
 178 641 113 599 113 538 c 0
 113 521 117 487 163 457 c 2
 287 377 l 1
 347 412 386 460 386 517 c 0
407 132 m 0
 407 193 360 223 332 242 c 1
 209 320 l 1
 124 273 92 209 92 151 c 0
 92 68 164 6 250 6 c 0
 332 6 407 58 407 132 c 0
EndSplineSet
Substitution2: "'pnum' Proportional Numbers lookup 6 subtable" eight.prop
Substitution2: "'onum' Oldstyle Figures lookup 4 subtable" eight.oldstyle
AlternateSubs2: "'aalt' Access All Alternates lookup 1 subtable" eight.oldstyle eight.prop
EndChar

StartChar: equal
Encoding: 61 61 52
Width: 778
Flags: MW
HStem: 133 40<82 687 90 687 687 688> 327 40<89 90 90 687>
VStem: 56 665<143 163 337 357>
LayerCount: 2
Fore
SplineSet
721 347 m 0
 721 327 702 327 687 327 c 2
 90 327 l 2
 75 327 56 327 56 347 c 0
 56 367 75 367 89 367 c 2
 688 367 l 2
 702 367 721 367 721 347 c 0
721 153 m 0
 721 133 702 133 688 133 c 2
 89 133 l 2
 75 133 56 133 56 153 c 0
 56 173 75 173 90 173 c 2
 687 173 l 2
 702 173 721 173 721 153 c 0
EndSplineSet
EndChar

StartChar: exclam
Encoding: 33 33 53
Width: 278
Flags: MW
HStem: 0 106<124.5 153.5>
LayerCount: 2
Fore
SplineSet
192 665 m 1
 153 209 l 2
 152 192 149 187 139 187 c 0
 127 187 126 195 125 210 c 2
 86 665 l 1
 86 698 113 716 139 716 c 0
 165 716 192 698 192 665 c 1
192 53 m 0
 192 24 168 0 139 0 c 0
 110 0 86 24 86 53 c 0
 86 82 110 106 139 106 c 0
 168 106 192 82 192 53 c 0
EndSplineSet
EndChar

StartChar: F
Encoding: 70 70 54
Width: 653
Flags: MW
HStem: 0 31<33 57> 325 31<225 311 225 311> 649 31<33 57 33 582 250.5 274 274 394>
VStem: 136 89<78 79 79 325 356 602 602 609> 185 89 353 89 417 25<208 250.5 431 473> 585 25<455 455>
LayerCount: 2
Fore
SplineSet
610 455 m 1xb0
 585 455 l 1
 569 593 544 649 394 649 c 2
 274 649 l 2x29
 227 649 225 642 225 609 c 2
 225 356 l 1
 311 356 l 2
 407 356 417 389 417 473 c 1
 442 473 l 1
 442 208 l 1
 417 208 l 1
 417 293 407 325 311 325 c 2
 225 325 l 1
 225 79 l 2x52
 225 44 225 31 320 31 c 2
 353 31 l 1
 353 0 l 1
 317 3 226 3 185 3 c 0x8c
 146 3 68 3 33 0 c 1
 33 31 l 1
 57 31 l 2
 134 31 136 42 136 78 c 2
 136 602 l 2
 136 638 134 649 57 649 c 2
 33 649 l 1
 33 680 l 1
 582 680 l 1
 610 455 l 1xb0
EndSplineSet
Position2: "'cpsp' Capital Spacing lookup 0 subtable" dx=7 dy=0 dh=14 dv=0
EndChar

StartChar: f
Encoding: 102 102 55
Width: 306
Flags: MW
HStem: 0 31<34 67.5> 400 31<33 112 33 112 178 292 178 178> 591 84 683 22<245 268.5>
VStem: 112 66<76 78 78 400> 270 87<623 646.5>
LayerCount: 2
Fore
SplineSet
357 635 m 0
 357 611 342 591 313 591 c 0
 286 591 270 611 270 634 c 0
 270 659 288 672 300 676 c 1
 285 683 270 683 267 683 c 0
 223 683 175 635 175 547 c 2
 175 431 l 1
 292 431 l 1
 292 400 l 1
 178 400 l 1
 178 78 l 2
 178 42 180 31 254 31 c 2
 275 31 l 1
 275 0 l 1
 235 3 188 3 148 3 c 1
 34 0 l 1
 34 31 l 1
 101 31 112 31 112 76 c 2
 112 400 l 1
 33 400 l 1
 33 431 l 1
 112 431 l 1
 112 546 l 2
 112 652 197 705 267 705 c 0
 320 705 357 672 357 635 c 0
EndSplineSet
EndChar

StartChar: five
Encoding: 53 53 56
Width: 500
Flags: MW
HStem: -22 28<192.5 252 192.5 289> 116 98<93.5 115.5> 118 83 398 22<235 283> 551 83<236 278.5> 564 98 634 28 641 22 646 20G<400 403.5>
VStem: 50 99<153 177 153 184> 128 89 132 99 360 89<190.5 233>
LayerCount: 2
Fore
SplineSet
449 201 m 0x1410
 449 74 347 -22 231 -22 c 0xa018
 119 -22 50 75 50 161 c 0
 50 207 85 214 99 214 c 0
 132 214 149 189 149 165 c 0
 149 141 132 116 99 116 c 0x4040
 88 116 85 117 82 118 c 1
 99 59 156 6 229 6 c 0
 275 6 312 32 336 71 c 1
 360 113 360 173 360 208 c 0
 360 258 358 297 342 334 c 0
 334 352 309 398 257 398 c 0
 176 398 139 344 128 328 c 0
 124 322 122 319 115 319 c 0
 101 319 101 327 101 345 c 2
 101 641 l 2xb128
 101 657 101 665 111 665 c 1
 111 665 115 665 123 662 c 0x02
 170 641 216 634 256 634 c 0
 323 634 372 654 392 663 c 0x09
 397 666 400 666 400 666 c 1
 407 666 410 661 410 655 c 0
 410 642 340 551 217 551 c 0x08a0
 185 551 152 558 132 564 c 1
 132 369 l 1
 168 404 211 420 259 420 c 0
 367 420 449 320 449 201 c 0x1410
EndSplineSet
Substitution2: "'pnum' Proportional Numbers lookup 6 subtable" five.prop
Substitution2: "'onum' Oldstyle Figures lookup 4 subtable" five.oldstyle
AlternateSubs2: "'aalt' Access All Alternates lookup 1 subtable" five.oldstyle five.prop
EndChar

StartChar: four
Encoding: 52 52 57
Width: 500
Flags: MW
HStem: 0 31<197 218> 165 31<56 294 28 28 371 471> 657 20G<350.5 363>
VStem: 300 71<196 569 569 569>
LayerCount: 2
Fore
SplineSet
471 165 m 1
 371 165 l 1
 371 78 l 2
 371 42 373 31 447 31 c 2
 468 31 l 1
 468 0 l 1
 427 3 374 3 332 3 c 0
 290 3 238 3 197 0 c 1
 197 31 l 1
 218 31 l 2
 292 31 294 42 294 78 c 2
 294 165 l 1
 28 165 l 1
 28 196 l 1
 335 665 l 2
 343 677 346 677 355 677 c 0
 371 677 371 671 371 651 c 2
 371 196 l 1
 471 196 l 1
 471 165 l 1
300 196 m 1
 300 569 l 1
 56 196 l 1
 300 196 l 1
EndSplineSet
Substitution2: "'pnum' Proportional Numbers lookup 6 subtable" four.prop
Substitution2: "'onum' Oldstyle Figures lookup 4 subtable" four.oldstyle
AlternateSubs2: "'aalt' Access All Alternates lookup 1 subtable" four.oldstyle four.prop
EndChar

StartChar: G
Encoding: 71 71 58
Width: 785
Flags: MW
HStem: -22 31<389.5 436 389.5 442.5> 242 31<452 484 452 452> 674 31<386 453.5 311 469.5>
VStem: 56 103<239.5 444.5> 577 89<130 194 194 198>
LayerCount: 2
Fore
SplineSet
735 242 m 1
 670 242 666 237 666 198 c 2
 666 24 l 2
 666 9 666 1 657 1 c 0
 646 1 606 41 593 63 c 1
 559 4 479 -22 406 -22 c 0
 216 -22 56 137 56 342 c 0
 56 547 218 705 404 705 c 0
 503 705 557 651 589 619 c 1
 639 693 l 2
 647 705 651 705 655 705 c 0
 666 705 666 698 666 681 c 2
 666 444 l 2
 666 423 666 420 650 420 c 0
 636 420 636 423 634 437 c 0
 614 584 523 674 416 674 c 0
 356 674 159 641 159 342 c 0
 159 44 357 9 422 9 c 0
 450 9 577 18 577 130 c 2
 577 194 l 2
 577 231 574 242 484 242 c 2
 452 242 l 1
 452 273 l 1
 488 270 573 270 613 270 c 2
 735 273 l 1
 735 242 l 1
EndSplineSet
Position2: "'cpsp' Capital Spacing lookup 0 subtable" dx=7 dy=0 dh=14 dv=0
EndChar

StartChar: g
Encoding: 103 103 59
Width: 500
Flags: MW
HStem: -206 23<199.5 299 199.5 308> 7 58<162 264.5> 110 23 149 23<212.5 242 178.5 268.5> 419 23<202 233 175.5 265.5> 430 23
VStem: 159 75<66 66> 234 75 309 75<282.5 307.5>
CounterMasks: 1 0380
LayerCount: 2
Fore
SplineSet
485 404 m 0x0780
 485 381 466 374 456 374 c 0
 440 374 427 386 427 403 c 0
 427 415 432 426 443 430 c 1x1780
 440 431 433 431 433 431 c 1
 415 431 379 426 343 392 c 1
 368 369 384 332 384 295 c 0
 384 218 315 149 222 149 c 0
 203 149 162 152 123 180 c 1
 106 160 106 137 106 133 c 0
 106 101 127 70 159 66 c 0
 166 65 209 65 234 65 c 0
 295 65 353 65 406 37 c 0
 457 9 471 -42 471 -77 c 0
 471 -155 367 -206 249 -206 c 0
 127 -206 28 -151 28 -79 c 0
 28 -39 60 4 120 21 c 1
 89 41 76 79 76 110 c 0
 76 145 94 178 107 193 c 1
 82 214 60 252 60 296 c 0
 60 373 129 442 222 442 c 0xfb80
 244 442 286 439 328 406 c 1
 370 447 414 453 434 453 c 0
 473 453 485 421 485 404 c 0x0780
309 296 m 0
 309 319 309 419 222 419 c 0xcb80
 182 419 159 391 151 379 c 0
 136 354 135 322 135 295 c 0
 135 272 135 172 222 172 c 0
 262 172 285 200 293 212 c 0
 308 237 309 269 309 296 c 0
419 -79 m 0
 419 7 307 7 221 7 c 2
 162 7 l 1
 118 4 80 -33 80 -79 c 0
 80 -132 149 -183 250 -183 c 0
 348 -183 419 -133 419 -79 c 0
EndSplineSet
EndChar

StartChar: grave
Encoding: 96 96 60
Width: 500
Flags: MW
HStem: 510 21G<295 295> 678 20G<153 169.5>
LayerCount: 2
Fore
SplineSet
312 528 m 1
 295 510 l 1
 143 632 l 2
 134 639 126 650 126 662 c 0
 126 680 144 698 162 698 c 0
 177 698 188 687 192 681 c 2
 312 528 l 1
EndSplineSet
EndChar

StartChar: greater
Encoding: 62 62 61
Width: 778
Flags: MW
VStem: 83 611<-25.5 256 244 525.5>
LayerCount: 2
Fore
SplineSet
694 250 m 0
 694 238 686 233 675 228 c 2
 121 -33 l 2
 108 -40 106 -40 103 -40 c 0
 92 -40 83 -31 83 -20 c 0
 83 -11 88 -5 102 2 c 2
 627 250 l 1
 102 498 l 2
 88 505 83 511 83 520 c 0
 83 531 92 540 103 540 c 0
 106 540 108 540 121 533 c 2
 675 272 l 2
 686 267 694 262 694 250 c 0
EndSplineSet
EndChar

StartChar: H
Encoding: 72 72 62
Width: 750
Flags: MW
HStem: 0 31<33 57> 340 31<225 524 225 524> 652 31<33 57 33 33>
VStem: 136 89<78 340 371 605> 524 89<78 340 340 340 371 605>
LayerCount: 2
Fore
SplineSet
716 0 m 1
 681 3 606 3 568 3 c 0
 530 3 456 3 421 0 c 1
 421 31 l 1
 445 31 l 2
 522 31 524 42 524 78 c 2
 524 340 l 1
 225 340 l 1
 225 78 l 2
 225 42 227 31 304 31 c 2
 328 31 l 1
 328 0 l 1
 293 3 218 3 180 3 c 0
 142 3 68 3 33 0 c 1
 33 31 l 1
 57 31 l 2
 134 31 136 42 136 78 c 2
 136 605 l 2
 136 641 134 652 57 652 c 2
 33 652 l 1
 33 683 l 1
 68 680 143 680 181 680 c 0
 219 680 293 680 328 683 c 1
 328 652 l 1
 304 652 l 2
 227 652 225 641 225 605 c 2
 225 371 l 1
 524 371 l 1
 524 605 l 2
 524 641 522 652 445 652 c 2
 421 652 l 1
 421 683 l 1
 456 680 531 680 569 680 c 0
 607 680 681 680 716 683 c 1
 716 652 l 1
 692 652 l 2
 615 652 613 641 613 605 c 2
 613 78 l 2
 613 42 615 31 692 31 c 2
 716 31 l 1
 716 0 l 1
EndSplineSet
Position2: "'cpsp' Capital Spacing lookup 0 subtable" dx=7 dy=0 dh=14 dv=0
EndChar

StartChar: h
Encoding: 104 104 63
Width: 556
Flags: MW
HStem: 0 31<32 65.5> 420 22<282 345.5> 652 31<32 67> 652 42
VStem: 110 69<76 260> 388 69<76 252 61 309 61 337.5>
LayerCount: 2
Fore
SplineSet
535 0 m 1xd4
 423 3 l 1
 310 0 l 1
 310 31 l 1
 377 31 388 31 388 76 c 2
 388 309 l 2
 388 366 377 420 314 420 c 0
 250 420 179 364 179 260 c 2
 179 76 l 2
 179 31 190 31 257 31 c 1
 257 0 l 1
 145 3 l 1
 32 0 l 1
 32 31 l 1
 99 31 110 31 110 76 c 2
 110 596 l 2
 110 645 102 652 32 652 c 1
 32 683 l 1xec
 176 694 l 1
 176 346 l 1
 177 346 l 1
 193 382 237 442 321 442 c 0
 379 442 412 422 426 405 c 0
 457 369 457 338 457 252 c 2
 457 61 l 1
 458 31 483 31 535 31 c 1
 535 0 l 1xd4
EndSplineSet
EndChar

StartChar: hyphen
Encoding: 45 45 64
Width: 333
Flags: MW
HStem: 187 58<11 276 11 276>
VStem: 11 265<187 245 187 245>
LayerCount: 2
Fore
SplineSet
276 187 m 1
 11 187 l 1
 11 245 l 1
 276 245 l 1
 276 187 l 1
EndSplineSet
EndChar

StartChar: I
Encoding: 73 73 65
Width: 361
Flags: MW
HStem: 0 31<28 54> 652 31<28 54 28 28>
VStem: 136 89<78 605>
LayerCount: 2
Fore
SplineSet
333 0 m 1
 298 3 219 3 180 3 c 0
 142 3 63 3 28 0 c 1
 28 31 l 1
 54 31 l 2
 133 31 136 42 136 78 c 2
 136 605 l 2
 136 641 133 652 54 652 c 2
 28 652 l 1
 28 683 l 1
 63 680 142 680 181 680 c 0
 219 680 298 680 333 683 c 1
 333 652 l 1
 307 652 l 2
 228 652 225 641 225 605 c 2
 225 78 l 2
 225 42 228 31 307 31 c 2
 333 31 l 1
 333 0 l 1
EndSplineSet
Position2: "'cpsp' Capital Spacing lookup 0 subtable" dx=7 dy=0 dh=14 dv=0
EndChar

StartChar: i
Encoding: 105 105 66
Width: 278
Flags: MW
HStem: 0 31<33 66.5> 400 31<37 69.5> 400 42 551 106<123 154 122 155>
VStem: 85 107<591.5 616.5> 111 66<76 345 345 369.5>
LayerCount: 2
Fore
SplineSet
247 0 m 1xa4
 213 1 178 3 143 3 c 2
 33 0 l 1
 33 31 l 1
 100 31 111 31 111 76 c 2
 111 345 l 2
 111 394 102 400 37 400 c 1
 37 431 l 1xc4
 177 442 l 1
 177 75 l 2
 177 36 181 31 247 31 c 1
 247 0 l 1xa4
192 604 m 0x18
 192 579 172 551 138 551 c 0
 108 551 85 577 85 604 c 0
 85 629 105 657 139 657 c 0
 169 657 192 631 192 604 c 0x18
EndSplineSet
EndChar

StartChar: J
Encoding: 74 74 67
Width: 514
Flags: MW
HStem: -22 22<196 225.5 196 252> 0 112 58 112<89 111 86 115> 148 22 652 31<168 204 168 168>
VStem: 41 112<101 132 101 134> 89 112 302 86<150 167 167 604 604 611>
LayerCount: 2
Fore
SplineSet
465 652 m 1x59
 402 652 388 652 388 611 c 2
 388 167 l 2
 388 133 388 131 387 123 c 0
 376 48 303 -22 201 -22 c 0x8b
 112 -22 41 38 41 112 c 0x44
 41 156 75 170 97 170 c 0
 125 170 153 150 153 114 c 0x24
 153 88 141 58 89 58 c 1x22
 125 0 193 0 199 0 c 0
 252 0 302 56 302 148 c 2
 302 604 l 2
 302 639 302 652 204 652 c 2
 168 652 l 1
 168 683 l 1
 206 680 294 680 336 680 c 2
 465 683 l 1
 465 652 l 1x59
EndSplineSet
Position2: "'cpsp' Capital Spacing lookup 0 subtable" dx=7 dy=0 dh=14 dv=0
EndChar

StartChar: j
Encoding: 106 106 68
Width: 306
Flags: MW
HStem: -205 22<68.5 103 68.5 110.5> -167 88 400 42 551 106<141 172 140 173>
VStem: -40 92<-138.5 -112 -138.5 -112> 103 107<591.5 616.5> 144 66<-52 -50 -50 344 344 368.5>
LayerCount: 2
Fore
SplineSet
210 -50 m 2xea
 210 -141 148 -205 73 -205 c 0
 16 -205 -40 -177 -40 -125 c 0
 -40 -99 -22 -79 6 -79 c 0
 34 -79 52 -99 52 -125 c 0
 52 -152 32 -166 17 -170 c 1
 43 -183 66 -183 71 -183 c 0
 135 -183 144 -97 144 -52 c 2
 144 344 l 2
 144 393 135 400 58 400 c 1
 58 431 l 1
 210 442 l 1
 210 -50 l 2xea
210 604 m 0x14
 210 579 190 551 156 551 c 0
 126 551 103 577 103 604 c 0
 103 629 123 657 157 657 c 0
 187 657 210 631 210 604 c 0x14
EndSplineSet
EndChar

StartChar: K
Encoding: 75 75 69
Width: 778
Flags: MW
HStem: 0 31<33 57> 652 31<33 57 33 33>
VStem: 136 89<78 253 287 605>
LayerCount: 2
Fore
SplineSet
736 0 m 1
 621 3 l 2
 583 3 513 3 478 0 c 1
 478 31 l 1
 498 31 537 31 537 61 c 0
 537 73 528 86 522 95 c 2
 341 363 l 1
 225 253 l 1
 225 78 l 2
 225 42 227 31 304 31 c 2
 328 31 l 1
 328 0 l 1
 293 3 218 3 180 3 c 0
 142 3 68 3 33 0 c 1
 33 31 l 1
 57 31 l 2
 134 31 136 42 136 78 c 2
 136 605 l 2
 136 641 134 652 57 652 c 2
 33 652 l 1
 33 683 l 1
 68 680 143 680 181 680 c 0
 219 680 293 680 328 683 c 1
 328 652 l 1
 304 652 l 2
 227 652 225 641 225 605 c 2
 225 287 l 1
 538 586 l 2
 546 593 556 603 556 619 c 0
 556 628 550 651 510 652 c 1
 510 683 l 1
 544 680 601 680 637 680 c 0
 664 680 696 680 722 683 c 1
 722 652 l 1
 641 651 588 600 580 592 c 2
 400 419 l 1
 631 79 l 2
 661 35 682 31 736 31 c 1
 736 0 l 1
EndSplineSet
Position2: "'cpsp' Capital Spacing lookup 0 subtable" dx=7 dy=0 dh=14 dv=0
EndChar

StartChar: k
Encoding: 107 107 70
Width: 528
Flags: MW
HStem: 0 31<28 61.5> 400 31<306 306> 652 31<28 63> 652 42
VStem: 106 66<214 596 596 620.5> 247 66 352 66
LayerCount: 2
Fore
SplineSet
511 0 m 1xde
 482 2 453 3 424 3 c 2
 316 0 l 1
 316 31 l 1
 335 31 352 35 352 54 c 0
 352 72 310 128 233 234 c 1
 169 179 l 1
 169 76 l 2
 169 31 180 31 247 31 c 1
 247 0 l 1
 137 3 l 1
 28 0 l 1
 28 31 l 1
 95 31 106 31 106 76 c 2
 106 596 l 2
 106 645 98 652 28 652 c 1
 28 683 l 1xae
 172 694 l 1
 172 214 l 1
 313 336 l 2
 321 343 335 355 335 375 c 0
 335 388 325 399 306 400 c 1
 306 431 l 1
 320 430 382 428 418 428 c 0
 446 428 459 428 488 431 c 1
 488 400 l 1
 467 399 425 397 362 346 c 0
 352 338 281 278 281 274 c 0
 281 271 286 265 287 263 c 2
 414 84 l 2
 452 31 474 31 511 31 c 1
 511 0 l 1xde
EndSplineSet
EndChar

StartChar: L
Encoding: 76 76 71
Width: 625
Flags: MW
HStem: 0 31<33 57 57 95.5 274 356 356 444 33 57> 238 20G<557 582 582 582> 652 31<33 57 33 33>
VStem: 136 89<78 604> 185 89 557 25<258 258>
LayerCount: 2
Fore
SplineSet
582 258 m 1xcc
 554 0 l 1
 33 0 l 1
 33 31 l 1
 57 31 l 2
 134 31 136 42 136 78 c 2
 136 605 l 2xd4
 136 641 134 652 57 652 c 2
 33 652 l 1
 33 683 l 1
 68 680 146 680 185 680 c 0x28
 226 680 317 680 353 683 c 1
 353 652 l 1
 320 652 l 2
 225 652 225 638 225 604 c 2
 225 71 l 2x30
 225 38 227 31 274 31 c 2
 356 31 l 2
 532 31 546 156 557 258 c 1
 582 258 l 1xcc
EndSplineSet
Position2: "'cpsp' Capital Spacing lookup 0 subtable" dx=7 dy=0 dh=14 dv=0
EndChar

StartChar: l
Encoding: 108 108 72
Width: 278
Flags: MW
HStem: 0 31<33 66.5> 652 31<33 68> 652 42
VStem: 111 66<76 596 596 620.5>
LayerCount: 2
Fore
SplineSet
255 0 m 1xb0
 144 3 l 1
 33 0 l 1
 33 31 l 1
 100 31 111 31 111 76 c 2
 111 596 l 2
 111 645 103 652 33 652 c 1
 33 683 l 1xd0
 177 694 l 1
 177 76 l 2
 177 31 188 31 255 31 c 1
 255 0 l 1xb0
EndSplineSet
EndChar

StartChar: less
Encoding: 60 60 73
Width: 778
Flags: MW
VStem: 83 611<-25.5 256>
LayerCount: 2
Fore
SplineSet
694 -20 m 0
 694 -31 685 -40 674 -40 c 0
 671 -40 669 -40 656 -33 c 2
 102 228 l 2
 91 233 83 238 83 250 c 0
 83 262 91 267 102 272 c 2
 656 533 l 2
 669 540 671 540 674 540 c 0
 685 540 694 531 694 520 c 0
 694 509 687 504 675 498 c 2
 150 250 l 1
 675 2 l 2
 687 -4 694 -9 694 -20 c 0
EndSplineSet
EndChar

StartChar: M
Encoding: 77 77 74
Width: 917
Flags: MW
HStem: 0 31<37 88.5> 652 31<37 61 37 206 816.5 855 855 879>
VStem: 140 28<105 605 605 623> 430 28 695 81<78 605>
LayerCount: 2
Fore
SplineSet
879 0 m 1
 842 3 775 3 736 3 c 0
 697 3 629 3 592 0 c 1
 592 31 l 1
 616 31 l 2
 693 31 695 42 695 78 c 2
 695 652 l 1
 694 652 l 1
 448 19 l 2
 444 8 441 0 430 0 c 0
 420 0 415 9 410 22 c 2
 169 644 l 1
 168 644 l 1
 168 105 l 2
 168 78 168 31 271 31 c 1
 271 0 l 1
 154 3 l 1
 37 0 l 1
 37 31 l 1
 140 31 140 78 140 105 c 2
 140 605 l 2
 140 641 138 652 61 652 c 2
 37 652 l 1
 37 683 l 1
 206 683 l 2
 229 683 232 683 241 661 c 2
 458 101 l 1
 677 664 l 2
 684 682 684 683 710 683 c 2
 879 683 l 1
 879 652 l 1
 855 652 l 2
 778 652 776 641 776 605 c 2
 776 78 l 2
 776 42 778 31 855 31 c 2
 879 31 l 1
 879 0 l 1
EndSplineSet
Position2: "'cpsp' Capital Spacing lookup 0 subtable" dx=7 dy=0 dh=14 dv=0
EndChar

StartChar: m
Encoding: 109 109 75
Width: 833
Flags: MW
HStem: 0 31<32 65.5> 400 31<32 67> 420 22<284.5 343.5 560 623.5>
VStem: 110 69<76 260> 388 69<76 260> 666 69<76 252 61 309 61 337.5>
CounterMasks: 1 1c
LayerCount: 2
Fore
SplineSet
813 0 m 1xbc
 701 3 l 1
 588 0 l 1
 588 31 l 1
 655 31 666 31 666 76 c 2
 666 309 l 2
 666 366 655 420 592 420 c 0
 528 420 457 364 457 260 c 2
 457 76 l 2
 457 31 468 31 535 31 c 1
 535 0 l 1
 423 3 l 1
 310 0 l 1
 310 31 l 1
 377 31 388 31 388 76 c 2
 388 309 l 2
 388 366 377 420 314 420 c 0xbc
 250 420 179 364 179 260 c 2
 179 76 l 2
 179 31 190 31 257 31 c 1
 257 0 l 1
 145 3 l 1
 32 0 l 1
 32 31 l 1
 99 31 110 31 110 76 c 2
 110 344 l 2
 110 393 102 400 32 400 c 1
 32 431 l 1xdc
 173 442 l 1
 173 337 l 1
 201 399 248 442 321 442 c 0
 366 442 440 431 454 344 c 1
 471 382 515 442 599 442 c 0
 657 442 690 422 704 405 c 0
 735 369 735 338 735 252 c 2
 735 61 l 1
 736 31 761 31 813 31 c 1
 813 0 l 1xbc
EndSplineSet
EndChar

StartChar: N
Encoding: 78 78 76
Width: 750
Flags: MW
HStem: 0 31<33 84.5> 652 31<33 62 33 203>
VStem: 136 28<105 625> 585 28<151 578>
LayerCount: 2
Fore
SplineSet
716 652 m 1
 613 652 613 605 613 578 c 2
 613 26 l 2
 613 7 613 0 599 0 c 0
 592 0 591 1 582 13 c 2
 174 613 l 2
 170 619 169 620 164 625 c 1
 164 105 l 2
 164 78 164 31 267 31 c 1
 267 0 l 1
 150 3 l 1
 33 0 l 1
 33 31 l 1
 136 31 136 78 136 105 c 2
 136 627 l 2
 136 646 135 647 112 650 c 0
 97 651 77 652 62 652 c 2
 33 652 l 1
 33 683 l 1
 203 683 l 2
 222 683 223 682 232 670 c 2
 585 151 l 1
 585 578 l 2
 585 605 585 652 482 652 c 1
 482 683 l 1
 599 680 l 1
 716 683 l 1
 716 652 l 1
EndSplineSet
Position2: "'cpsp' Capital Spacing lookup 0 subtable" dx=7 dy=0 dh=14 dv=0
EndChar

StartChar: n
Encoding: 110 110 77
Width: 556
Flags: MW
HStem: 0 31<32 65.5> 400 31<32 67> 420 22<284.5 345.5>
VStem: 110 69<76 260> 388 69<76 252 61 309 61 337.5>
LayerCount: 2
Fore
SplineSet
535 0 m 1xa8
 423 3 l 1
 310 0 l 1
 310 31 l 1
 377 31 388 31 388 76 c 2
 388 309 l 2
 388 366 377 420 314 420 c 0xa8
 250 420 179 364 179 260 c 2
 179 76 l 2
 179 31 190 31 257 31 c 1
 257 0 l 1
 145 3 l 1
 32 0 l 1
 32 31 l 1
 99 31 110 31 110 76 c 2
 110 344 l 2
 110 393 102 400 32 400 c 1
 32 431 l 1xd0
 173 442 l 1
 173 337 l 1
 201 399 248 442 321 442 c 0
 379 442 412 422 426 405 c 0
 457 369 457 338 457 252 c 2
 457 61 l 1
 458 31 483 31 535 31 c 1
 535 0 l 1xa8
EndSplineSet
EndChar

StartChar: nine
Encoding: 57 57 78
Width: 500
Flags: MW
HStem: -22 28<196.5 234 196.5 270.5> 42 92<107 124 105 129> 218 23<235 272.5> 304 25 329 92 578 25 641 25<235.5 276>
VStem: 42 90<415.5 467 415.5 478.5> 153 90 367 90<286 318 318 318>
LayerCount: 2
Fore
SplineSet
457 329 m 0xefc0
 457 114 335 -22 206 -22 c 0
 121 -22 67 19 67 86 c 0
 67 125 97 134 113 134 c 0
 135 134 159 119 159 88 c 0
 159 71 151 42 107 42 c 1
 134 8 188 6 205 6 c 0
 263 6 367 52 367 286 c 2
 367 318 l 1
 344 260 303 218 242 218 c 0
 130 218 42 316 42 441 c 0
 42 516 65 558 106 603 c 1
 149 648 198 666 253 666 c 0
 342 666 457 598 457 329 c 0xefc0
365 421 m 0
 365 467 361 530 349 562 c 0
 332 607 299 641 253 641 c 0
 218 641 180 628 153 578 c 0
 132 541 132 494 132 440 c 0
 132 391 132 341 150 304 c 0x1780
 181 241 227 241 243 241 c 0
 331 241 365 338 365 421 c 0
EndSplineSet
Substitution2: "'pnum' Proportional Numbers lookup 6 subtable" nine.prop
Substitution2: "'onum' Oldstyle Figures lookup 4 subtable" nine.oldstyle
AlternateSubs2: "'aalt' Access All Alternates lookup 1 subtable" nine.oldstyle nine.prop
EndChar

StartChar: numbersign
Encoding: 35 35 79
Width: 833
Flags: MW
HStem: -194 21G<181.5 195 410.5 424> 133 40<82 261 90 249 302 478 90 290 531 742 742 743> 327 40<89 90 90 301 89 342 354 530 583 742> 674 20G<408 421.5 637 650.5>
VStem: 56 720<143 163 337 357>
LayerCount: 2
Fore
SplineSet
776 153 m 0
 776 133 757 133 743 133 c 2
 519 133 l 1
 438 -170 l 2
 435 -181 432 -194 416 -194 c 0
 405 -194 396 -185 396 -174 c 0
 396 -170 399 -158 400 -156 c 2
 478 133 l 1
 290 133 l 1
 209 -170 l 2
 206 -181 203 -194 187 -194 c 0
 176 -194 167 -185 167 -174 c 0
 167 -170 170 -158 171 -156 c 2
 249 133 l 1
 89 133 l 2
 75 133 56 133 56 153 c 0
 56 173 75 173 90 173 c 2
 261 173 l 1
 301 327 l 1
 90 327 l 2
 75 327 56 327 56 347 c 0
 56 367 75 367 89 367 c 2
 313 367 l 1
 394 670 l 2
 397 681 400 694 416 694 c 0
 427 694 436 685 436 674 c 0
 436 670 433 658 432 656 c 2
 354 367 l 1
 542 367 l 1
 623 670 l 2
 626 681 629 694 645 694 c 0
 656 694 665 685 665 674 c 0
 665 670 662 658 661 656 c 2
 583 367 l 1
 743 367 l 2
 757 367 776 367 776 347 c 0
 776 327 757 327 742 327 c 2
 571 327 l 1
 531 173 l 1
 742 173 l 2
 757 173 776 173 776 153 c 0
530 327 m 1
 342 327 l 1
 302 173 l 1
 490 173 l 1
 530 327 l 1
EndSplineSet
EndChar

StartChar: O
Encoding: 79 79 80
Width: 778
Flags: MW
HStem: -22 26<341 435 341 479> 680 25<346.5 431.5>
VStem: 56 103<236.5 442> 618 103<238 441 238 481>
LayerCount: 2
Fore
SplineSet
721 339 m 0
 721 137 570 -22 388 -22 c 0
 210 -22 56 134 56 339 c 0
 56 545 209 705 388 705 c 0
 570 705 721 543 721 339 c 0
618 353 m 0
 618 609 475 680 388 680 c 0
 305 680 159 612 159 353 c 0
 159 92 293 4 389 4 c 0
 481 4 618 88 618 353 c 0
EndSplineSet
Position2: "'cpsp' Capital Spacing lookup 0 subtable" dx=7 dy=0 dh=14 dv=0
EndChar

StartChar: o
Encoding: 111 111 81
Width: 500
Flags: MW
HStem: -11 25<228.5 275 228.5 309.5> 426 22<229 271>
VStem: 28 83<204 241.5 204 276.5> 388 83<204 241>
LayerCount: 2
Fore
SplineSet
471 214 m 0
 471 87 370 -11 249 -11 c 0
 132 -11 28 85 28 214 c 0
 28 339 125 448 250 448 c 0
 371 448 471 342 471 214 c 0
388 222 m 0
 388 260 388 318 362 361 c 0
 336 404 293 426 249 426 c 0
 209 426 162 405 135 359 c 1
 111 315 111 261 111 222 c 0
 111 186 111 125 136 81 c 0
 163 35 207 14 250 14 c 0
 300 14 344 43 366 88 c 0
 388 132 388 186 388 222 c 0
EndSplineSet
EndChar

StartChar: one
Encoding: 49 49 82
Width: 500
Flags: MW
HStem: 0 31<95 127> 571 31<89 99> 646 20G<271 282.5>
VStem: 220 74<79 597 597 597>
LayerCount: 2
Fore
SplineSet
419 0 m 1
 384 3 297 3 257 3 c 0
 217 3 130 3 95 0 c 1
 95 31 l 1
 127 31 l 2
 217 31 220 43 220 79 c 2
 220 597 l 1
 168 571 109 571 89 571 c 1
 89 602 l 1
 121 602 209 602 271 666 c 1
 294 666 294 664 294 640 c 2
 294 79 l 2
 294 42 297 31 387 31 c 2
 419 31 l 1
 419 0 l 1
EndSplineSet
Substitution2: "'pnum' Proportional Numbers lookup 6 subtable" one.prop
Substitution2: "'onum' Oldstyle Figures lookup 4 subtable" one.oldstyle
AlternateSubs2: "'aalt' Access All Alternates lookup 1 subtable" one.oldstyle one.prop
EndChar

StartChar: P
Encoding: 80 80 83
Width: 681
Flags: MW
HStem: 0 31<35 59> 316 26<227 362 362 396 227 227> 652 31<35 59 35 388 249.5 273 273 362>
VStem: 35 103<0 605 31 605 78 683 78 683> 138 86<342 605 605 612 342 623> 227 103<0 78 0 316> 521 103<473.5 521.5>
LayerCount: 2
Fore
SplineSet
624 497 m 0xf6
 624 397 516 316 396 316 c 2
 227 316 l 1
 227 78 l 2
 227 42 229 31 306 31 c 2
 330 31 l 1
 330 0 l 1
 295 3 220 3 182 3 c 0
 144 3 70 3 35 0 c 1
 35 31 l 1
 59 31 l 2
 136 31 138 42 138 78 c 2
 138 605 l 2
 138 641 136 652 59 652 c 2
 35 652 l 1
 35 683 l 1
 388 683 l 2
 525 683 624 595 624 497 c 0xf6
521 497 m 0
 521 546 521 652 362 652 c 2
 273 652 l 2
 226 652 224 645 224 612 c 2
 224 342 l 1x6a
 362 342 l 2
 521 342 521 450 521 497 c 0
EndSplineSet
Position2: "'cpsp' Capital Spacing lookup 0 subtable" dx=7 dy=0 dh=14 dv=0
EndChar

StartChar: p
Encoding: 112 112 84
Width: 556
Flags: MW
HStem: -194 31<28 61.5> -11 22<274 331 274 357.5> 400 31<28 63.5> 417 25<278.5 340.5>
VStem: 106 69<-118 50 50 59 104 114 114 337> 438 83<155.5 272.5>
LayerCount: 2
Fore
SplineSet
521 216 m 0x10
 521 87 417 -11 298 -11 c 0
 222 -11 180 43 175 59 c 1
 175 50 l 1
 175 -118 l 2
 175 -163 186 -163 253 -163 c 1
 253 -194 l 1
 140 -191 l 1
 28 -194 l 1
 28 -163 l 1
 95 -163 106 -163 106 -118 c 2
 106 350 l 2
 106 394 99 400 28 400 c 1
 28 431 l 1xec
 172 442 l 1
 172 376 l 1
 192 398 234 442 312 442 c 0
 424 442 521 343 521 216 c 0x10
438 216 m 0
 438 329 377 417 304 417 c 0x14
 253 417 204 388 175 337 c 1
 175 114 l 2
 175 94 175 93 189 72 c 0
 216 31 254 11 294 11 c 0
 368 11 438 95 438 216 c 0
EndSplineSet
EndChar

StartChar: parenleft
Encoding: 40 40 85
Width: 389
Flags: MW
HStem: -250 21G<316 324> 730 20G<316 324>
VStem: 99 58<211 292>
LayerCount: 2
Fore
SplineSet
331 -240 m 0
 331 -247 327 -250 321 -250 c 0
 311 -250 225 -185 165 -62 c 0
 110 51 99 172 99 250 c 0
 99 334 111 445 162 555 c 0
 221 682 311 750 321 750 c 0
 327 750 331 747 331 740 c 0
 331 737 331 735 318 723 c 0
 195 598 157 424 157 250 c 0
 157 97 189 -92 314 -218 c 0
 331 -235 331 -237 331 -240 c 0
EndSplineSet
EndChar

StartChar: parenright
Encoding: 41 41 86
Width: 389
Flags: MW
HStem: -250 21G<64 72> 730 20G<64 72>
VStem: 231 58<208 289 208 354.5>
LayerCount: 2
Fore
SplineSet
289 250 m 0
 289 166 277 55 226 -55 c 0
 167 -182 77 -250 67 -250 c 0
 61 -250 57 -246 57 -240 c 0
 57 -237 57 -235 70 -223 c 0
 194 -97 231 79 231 250 c 0
 231 459 174 618 76 717 c 0
 57 735 57 737 57 740 c 0
 57 746 61 750 67 750 c 0
 77 750 163 685 223 562 c 0
 278 449 289 328 289 250 c 0
EndSplineSet
EndChar

StartChar: percent
Encoding: 37 37 87
Width: 833
Flags: MW
HStem: -56 22<637 673 637 682.5> 325 22<636.5 673.5> 347 22<194 230 194 239.5> 619 22<445 498.5 427 501> 728 22<193.5 219 165 230.5>
VStem: 56 62<488.5 607.5> 179 25 308 25<495 555 492 601.5> 499 62<85.5 204.5> 751 25<92 198.5>
LayerCount: 2
Fore
SplineSet
693 730 m 0xbfc0
 693 724 691 721 685 712 c 2
 179 -41 l 2
 171 -52 169 -56 159 -56 c 0
 149 -56 139 -47 139 -36 c 1
 139 -36 139 -29 148 -16 c 2
 597 653 l 1
 596 654 l 1
 590 650 539 619 463 619 c 0
 427 619 377 624 312 661 c 1
 333 609 333 562 333 548 c 0
 333 436 276 347 203 347 c 0
 128 347 56 428 56 549 c 0
 56 666 127 750 203 750 c 0
 235 750 256 735 275 718 c 0
 330 666 392 641 462 641 c 0
 535 641 602 668 652 736 c 0
 658 743 663 750 673 750 c 0
 684 750 693 741 693 730 c 0xbfc0
776 145 m 0
 776 33 719 -56 646 -56 c 0
 571 -56 499 25 499 146 c 0
 499 263 570 347 646 347 c 0
 717 347 776 260 776 145 c 0
308 549 m 0
 308 654 257 728 204 728 c 0
 183 728 118 715 118 548 c 0
 118 382 184 369 204 369 c 0
 256 369 308 441 308 549 c 0
751 146 m 0
 751 251 700 325 647 325 c 0x4040
 626 325 561 312 561 145 c 0
 561 -21 627 -34 647 -34 c 0
 699 -34 751 38 751 146 c 0
EndSplineSet
EndChar

StartChar: period
Encoding: 46 46 88
Width: 278
Flags: MW
HStem: 0 106<124.5 153.5>
VStem: 86 106<38.5 67.5>
LayerCount: 2
Fore
SplineSet
192 53 m 0
 192 24 168 0 139 0 c 0
 110 0 86 24 86 53 c 0
 86 82 110 106 139 106 c 0
 168 106 192 82 192 53 c 0
EndSplineSet
EndChar

StartChar: plus
Encoding: 43 43 89
Width: 778
Flags: MW
HStem: -83 21G<379 399> 230 40<82 369 89 369 409 688> 563 20G<379 399>
VStem: 369 40<-50 230 270 550>
LayerCount: 2
Fore
SplineSet
721 250 m 0
 721 230 702 230 688 230 c 2
 409 230 l 1
 409 -50 l 2
 409 -64 409 -83 389 -83 c 0
 369 -83 369 -64 369 -50 c 2
 369 230 l 1
 89 230 l 2
 75 230 56 230 56 250 c 0
 56 270 75 270 89 270 c 2
 369 270 l 1
 369 550 l 2
 369 564 369 583 389 583 c 0
 409 583 409 564 409 550 c 2
 409 270 l 1
 688 270 l 2
 702 270 721 270 721 250 c 0
EndSplineSet
EndChar

StartChar: Q
Encoding: 81 81 90
Width: 778
Flags: MW
HStem: -194 103<590.5 635.5 590.5 657> -22 25<363.5 400 363.5 404.5> 42 22 126 22<370.5 417> 680 25<342 436.5>
VStem: 56 100<238 442> 308 22<56.5 78.5 56.5 84.5> 621 100<300 441 263.5 466.5> 705 22
LayerCount: 2
Fore
SplineSet
727 -10 m 0x8080
 727 -61 708 -194 606 -194 c 0
 513 -194 499 -102 484 -7 c 1
 455 -16 420 -22 389 -22 c 0
 207 -22 56 137 56 339 c 0
 56 545 209 705 388 705 c 0
 570 705 721 543 721 339 c 0xcd
 721 188 636 60 518 7 c 1
 542 -57 567 -91 614 -91 c 0
 657 -91 699 -61 705 -7 c 0
 706 3 707 11 716 11 c 0
 727 11 727 0 727 -10 c 0x8080
621 339 m 0
 621 594 485 680 388 680 c 0
 296 680 156 599 156 339 c 0
 156 109 268 36 322 16 c 1
 321 18 308 37 308 64 c 0
 308 105 339 148 390 148 c 0
 449 148 481 98 503 42 c 1
 609 120 621 261 621 339 c 0
477 26 m 1
 466 84 444 126 390 126 c 0
 351 126 330 93 330 64 c 0
 330 49 338 3 389 3 c 0
 411 3 443 7 477 26 c 1
EndSplineSet
Position2: "'cpsp' Capital Spacing lookup 0 subtable" dx=7 dy=0 dh=14 dv=0
EndChar

StartChar: q
Encoding: 113 113 91
Width: 528
Flags: MW
HStem: -194 31<302 335.5> -11 22<214.5 274.5 214.5 282> 417 25<224 295 197 301>
VStem: 34 83<157.5 274.5 157.5 280> 380 69<-118 61 61 61>
LayerCount: 2
Fore
SplineSet
527 -194 m 1
 414 -191 l 1
 302 -194 l 1
 302 -163 l 1
 369 -163 380 -163 380 -118 c 2
 380 61 l 1
 358 32 317 -11 247 -11 c 0
 131 -11 34 90 34 215 c 0
 34 345 139 442 255 442 c 0
 335 442 376 379 389 351 c 1
 427 442 l 1
 449 442 l 1
 449 -118 l 2
 449 -163 460 -163 527 -163 c 1
 527 -194 l 1
383 136 m 2
 383 277 l 2
 383 330 341 417 261 417 c 0
 187 417 117 334 117 215 c 0
 117 100 178 11 251 11 c 0
 298 11 330 38 343 52 c 0
 365 76 383 104 383 136 c 2
EndSplineSet
EndChar

StartChar: question
Encoding: 63 63 92
Width: 472
Flags: MW
HStem: 0 106<207.5 236.5> 187 21G<216 228.5> 481 91 524 91<92 99 92 116> 683 22<202 277.5>
VStem: 56 92<557 592.5 557 604.5> 169 106<38.5 67.5> 226 106 275 92 332 83<549 595.5>
LayerCount: 2
Fore
SplineSet
415 570 m 0x2d
 415 528 394 492 367 472 c 0
 332 446 235 375 235 249 c 2
 235 214 l 2
 235 196 235 187 222 187 c 0
 210 187 210 193 210 211 c 2
 210 256 l 2
 210 317 232 409 298 481 c 1x6080
 316 499 332 517 332 576 c 0
 332 615 332 683 223 683 c 0
 181 683 123 668 92 615 c 1
 106 615 148 615 148 570 c 0
 148 544 130 524 102 524 c 0x1c40
 79 524 56 538 56 572 c 0
 56 637 118 705 226 705 c 0
 375 705 415 628 415 570 c 0x2d
275 53 m 0
 275 24 251 0 222 0 c 0
 193 0 169 24 169 53 c 0
 169 82 193 106 222 106 c 0
 251 106 275 82 275 53 c 0
EndSplineSet
EndChar

StartChar: quotedbl
Encoding: 34 34 93
Width: 374
Flags: MW
HStem: 423 21G<126 152 126 126 222 222 222 248> 685 20G<129 149 225 245>
LayerCount: 2
Fore
SplineSet
174 670 m 2
 152 423 l 1
 126 423 l 1
 104 670 l 2
 102 690 119 705 139 705 c 0
 159 705 176 690 174 670 c 2
270 670 m 2
 248 423 l 1
 222 423 l 1
 200 670 l 2
 198 690 215 705 235 705 c 0
 255 705 272 690 270 670 c 2
EndSplineSet
EndChar

StartChar: quotesingle
Encoding: 39 39 94
Width: 278
Flags: MW
HStem: 423 21G<126 152 126 126> 685 20G<129 149>
VStem: 126 26<423 423>
LayerCount: 2
Fore
SplineSet
174 670 m 2
 152 423 l 1
 126 423 l 1
 104 670 l 2
 102 690 119 705 139 705 c 0
 159 705 176 690 174 670 c 2
EndSplineSet
EndChar

StartChar: R
Encoding: 82 82 95
Width: 736
Flags: MW
HStem: -22 22<622 653.5> 0 31<35 59> 331 22<224 335 335 339 224 335> 652 31<35 59 35 349 295 349 349 350>
VStem: 35 103<0 605 31 605 78 683 78 683> 138 86<78 331 353 605 605 612> 224 103<0 78 0 331>
CounterMasks: 1 0e
LayerCount: 2
Fore
SplineSet
732 88 m 0x9e
 732 60 715 -22 637 -22 c 0xbe
 607 -22 552 -16 511 20 c 1
 470 58 470 98 470 163 c 0
 470 230 470 261 432 297 c 0
 397 331 355 331 339 331 c 2
 224 331 l 1
 224 78 l 2
 224 42 226 31 303 31 c 2
 327 31 l 1
 327 0 l 1
 291 3 220 3 181 3 c 0
 142 3 71 3 35 0 c 1
 35 31 l 1
 59 31 l 2x6e
 136 31 138 42 138 78 c 2
 138 605 l 2
 138 641 136 652 59 652 c 2
 35 652 l 1
 35 683 l 1
 349 683 l 2
 496 683 610 599 610 503 c 0
 610 425 532 364 435 340 c 1
 490 321 539 288 557 224 c 1
 570 144 l 1
 584 51 592 0 641 0 c 0
 666 0 701 18 707 89 c 0
 708 96 708 105 719 105 c 0
 732 105 732 94 732 88 c 0x9e
507 503 m 0
 507 648 395 652 305 652 c 0
 285 652 256 652 246 650 c 0
 224 647 224 635 224 612 c 2
 224 353 l 1
 335 353 l 2
 483 353 507 434 507 503 c 0
EndSplineSet
Position2: "'cpsp' Capital Spacing lookup 0 subtable" dx=7 dy=0 dh=14 dv=0
EndChar

StartChar: r
Encoding: 114 114 96
Width: 392
Flags: MW
HStem: 0 31<28 61.5> 400 31<28 63> 420 22<253.5 293.5>
VStem: 106 66<76 78 78 232> 278 86<366 393>
LayerCount: 2
Fore
SplineSet
364 381 m 0x20
 364 349 339 337 321 337 c 0
 299 337 278 352 278 380 c 0
 278 406 298 418 301 419 c 1
 299 420 297 420 290 420 c 0x28
 214 420 172 331 172 232 c 2
 172 78 l 2
 172 42 174 31 248 31 c 2
 269 31 l 1
 269 0 l 1
 229 3 182 3 142 3 c 1
 28 0 l 1
 28 31 l 1
 95 31 106 31 106 76 c 2
 106 344 l 2
 106 393 98 400 28 400 c 1
 28 431 l 1xd0
 167 442 l 1
 167 332 l 1
 181 375 217 442 290 442 c 0
 333 442 364 413 364 381 c 0x20
EndSplineSet
EndChar

StartChar: S
Encoding: 83 83 97
Width: 556
Flags: MW
HStem: -22 31<286.5 343 286.5 360.5> 186 31 388 31 480 31 677 28<213 295.5 195.5 335.5>
VStem: 56 64<517 564> 187 64 435 64<131 168.5>
LayerCount: 2
Fore
SplineSet
499 186 m 0
 499 76 419 -22 302 -22 c 0
 213 -22 149 14 118 48 c 1
 85 -5 82 -9 82 -9 c 2
 75 -20 74 -22 67 -22 c 0
 56 -22 56 -15 56 2 c 2
 56 202 l 2
 56 220 56 227 69 227 c 0
 72 227 80 227 81 217 c 0
 82 181 85 117 143 63 c 0
 196 14 272 9 301 9 c 0
 385 9 435 81 435 152 c 0
 435 185 425 218 404 244 c 1
 376 281 346 288 319 295 c 0
 249 312 198 324 187 328 c 0
 109 355 56 428 56 511 c 0
 56 617 140 705 251 705 c 0
 340 705 381 664 411 635 c 1
 446 692 l 2
 453 704 454 705 461 705 c 0
 472 705 472 698 472 681 c 2
 472 480 l 2
 472 461 472 456 459 456 c 0
 448 456 448 462 447 468 c 0
 441 513 419 677 252 677 c 0
 174 677 120 616 120 546 c 0
 120 488 159 434 221 419 c 2
 349 388 l 2
 433 368 499 286 499 186 c 0
EndSplineSet
Position2: "'cpsp' Capital Spacing lookup 0 subtable" dx=7 dy=0 dh=14 dv=0
EndChar

StartChar: s
Encoding: 115 115 98
Width: 394
Flags: MW
HStem: -11 22<188.5 238 157 256.5> 13 19 429 19<150 200.5 132 248>
VStem: 33 48<324 353> 287 48 312 48<92 138>
LayerCount: 2
Fore
SplineSet
360 128 m 0x38
 360 56 314 -11 199 -11 c 0
 178 -11 133 -10 89 32 c 1
 71 13 71 11 69 9 c 0
 50 -10 49 -11 44 -11 c 0
 33 -11 33 -4 33 13 c 2
 33 145 l 2
 33 163 33 170 46 170 c 0
 56 170 57 166 60 153 c 0
 79 68 115 11 199 11 c 0
 277 11 312 51 312 102 c 0xd4
 312 174 230 190 208 194 c 0
 136 208 108 214 76 240 c 0
 49 262 33 290 33 325 c 0
 33 381 71 448 193 448 c 0
 208 448 249 448 287 420 c 1
 291 423 301 432 304 436 c 0
 317 448 319 448 324 448 c 0
 335 448 335 441 335 424 c 2
 335 323 l 2
 335 304 335 299 322 299 c 1
 322 299 311 299 310 308 c 0
 308 339 303 429 193 429 c 0
 107 429 81 388 81 353 c 0
 81 295 148 282 204 271 c 0
 246 263 285 255 318 223 c 0
 330 211 360 181 360 128 c 0x38
EndSplineSet
EndChar

StartChar: semicolon
Encoding: 59 59 99
Width: 278
Flags: MW
HStem: -193 21G<109.5 117.5> 0 106<121.5 141.5> 325 106<124.5 153.5>
VStem: 86 106<363.5 392.5>
LayerCount: 2
Fore
SplineSet
192 378 m 0
 192 349 168 325 139 325 c 0
 110 325 86 349 86 378 c 0
 86 407 110 431 139 431 c 0
 168 431 192 407 192 378 c 0
195 3 m 0
 195 -113 123 -193 112 -193 c 0
 107 -193 102 -189 102 -182 c 0
 102 -179 102 -177 109 -169 c 0
 173 -95 173 -17 173 11 c 1
 165 4 154 2 147 1 c 2
 147 1 144 0 139 0 c 0
 103 0 86 27 86 53 c 0
 86 79 104 106 139 106 c 0
 193 106 195 32 195 3 c 0
EndSplineSet
EndChar

StartChar: seven
Encoding: 55 55 100
Width: 500
Flags: MW
HStem: -22 21G<199 245> 567 77<197.5 485 242 411> 656 20G<89 114 114 114>
VStem: 176 92<28 33 33 84>
LayerCount: 2
Fore
SplineSet
485 644 m 1
 485 623 485 621 476 609 c 2
 341 419 l 2
 297 357 283 271 279 248 c 0
 271 194 268 139 268 84 c 2
 268 33 l 2
 268 23 268 -22 222 -22 c 0
 176 -22 176 23 176 33 c 0
 176 135 209 274 299 409 c 1
 411 567 l 1
 204 567 l 2
 191 567 113 567 106 561 c 0
 93 549 84 486 81 470 c 1
 56 470 l 1
 89 676 l 1
 114 676 l 1
 118 657 120 644 242 644 c 2
 485 644 l 1
EndSplineSet
Substitution2: "'pnum' Proportional Numbers lookup 6 subtable" seven.prop
Substitution2: "'onum' Oldstyle Figures lookup 4 subtable" seven.oldstyle
AlternateSubs2: "'aalt' Access All Alternates lookup 1 subtable" seven.oldstyle seven.prop
EndChar

StartChar: six
Encoding: 54 54 101
Width: 500
Flags: MW
HStem: -22 28<219.5 262.5 219.5 306.5> 404 23<223 264> 510 91<387.5 394> 641 25<281.5 319>
VStem: 42 90<328 352 328 426.5> 305 90 367 90<181 229.5>
LayerCount: 2
Fore
SplineSet
457 204 m 0xfc
 457 72 362 -22 251 -22 c 0
 158 -22 42 49 42 316 c 0
 42 537 177 666 305 666 c 0
 388 666 432 618 432 558 c 0
 432 519 402 510 386 510 c 0
 364 510 340 525 340 556 c 0
 340 601 380 601 395 601 c 1
 373 635 331 641 307 641 c 0
 256 641 132 605 132 352 c 2
 132 328 l 1
 152 376 189 427 257 427 c 0
 368 427 457 331 457 204 c 0xfc
367 205 m 0
 367 254 367 305 349 342 c 0
 318 404 272 404 256 404 c 0
 166 404 134 304 134 226 c 0
 134 208 134 128 152 81 c 0
 158 66 188 6 251 6 c 0
 274 6 320 11 350 71 c 0
 367 107 367 157 367 205 c 0
EndSplineSet
Substitution2: "'pnum' Proportional Numbers lookup 6 subtable" six.prop
Substitution2: "'onum' Oldstyle Figures lookup 4 subtable" six.oldstyle
AlternateSubs2: "'aalt' Access All Alternates lookup 1 subtable" six.oldstyle six.prop
EndChar

StartChar: slash
Encoding: 47 47 102
Width: 500
Flags: MW
HStem: -250 21G<70.5 83> 730 20G<402 428.5 416 443>
VStem: 56 387
LayerCount: 2
Fore
SplineSet
443 730 m 1
 443 730 443 725 438 712 c 2
 97 -230 l 2
 94 -240 90 -250 76 -250 c 0
 65 -250 56 -241 56 -230 c 1
 56 -230 56 -225 61 -212 c 2
 402 730 l 2
 405 740 409 750 423 750 c 0
 434 750 443 741 443 730 c 1
EndSplineSet
EndChar

StartChar: T
Encoding: 84 84 104
Width: 722
Flags: MW
HStem: 0 31<171 211> 452 21G<36 61 36 36 660 685 660 660> 646 31<165.5 250 470.5 555.5>
VStem: 36 25<452 452> 316 89<79 606> 660 25<452 452>
CounterMasks: 1 1c
LayerCount: 2
Fore
SplineSet
685 452 m 1
 660 452 l 1
 646 613 631 646 480 646 c 0
 461 646 434 646 423 644 c 0
 405 640 405 626 405 606 c 2
 405 79 l 2
 405 45 405 31 510 31 c 2
 550 31 l 1
 550 0 l 1
 509 3 406 3 360 3 c 0
 314 3 212 3 171 0 c 1
 171 31 l 1
 211 31 l 2
 316 31 316 45 316 79 c 2
 316 606 l 2
 316 629 316 640 295 644 c 0
 285 646 259 646 241 646 c 0
 90 646 75 613 61 452 c 1
 36 452 l 1
 55 677 l 1
 666 677 l 1
 685 452 l 1
EndSplineSet
Position2: "'cpsp' Capital Spacing lookup 0 subtable" dx=7 dy=0 dh=14 dv=0
EndChar

StartChar: t
Encoding: 116 116 105
Width: 389
Flags: MW
HStem: -11 25<215 258.5 206.5 268.5> 161 20G<307 332 332 332> 400 31<173 316 173 316> 595 20G<148 173 173 173>
VStem: 104 69<124 400> 148 25<615 615> 307 25<126 181>
LayerCount: 2
Fore
SplineSet
332 124 m 2xfa
 332 60 304 -11 233 -11 c 0
 197 -11 104 1 104 124 c 2
 104 400 l 1xaa
 19 400 l 1
 19 422 l 1
 117 426 147 533 148 615 c 1x34
 173 615 l 1
 173 431 l 1
 316 431 l 1
 316 400 l 1
 173 400 l 1
 173 122 l 2
 173 105 173 14 240 14 c 0
 277 14 307 52 307 126 c 2
 307 181 l 1
 332 181 l 1
 332 124 l 2xfa
EndSplineSet
EndChar

StartChar: three
Encoding: 51 51 106
Width: 500
Flags: MW
HStem: -22 28<219.5 263 219.5 305> 77 116 337 23<182.5 185.5 182 191 182 235> 478 101<109 116.5 109 135.5> 641 25<224 262.5>
VStem: 154 92 246 92 338 92<523 569 488.5 574>
CounterMasks: 1 07
LayerCount: 2
Fore
SplineSet
457 171 m 0
 457 69 366 -22 244 -22 c 0
 135 -22 42 44 42 135 c 0
 42 179 74 193 98 193 c 0
 127 193 154 173 154 137 c 0
 154 99 123 77 88 82 c 1
 123 23 198 6 241 6 c 0
 285 6 354 35 354 171 c 0
 354 269 317 337 235 337 c 2
 191 337 l 2
 174 337 167 337 167 348 c 0
 167 358 174 359 182 360 c 0
 189 360 213 362 221 363 c 0
 246 364 280 367 310 415 c 1
 336 459 338 517 338 529 c 0
 338 619 283 641 242 641 c 0
 206 641 140 628 109 579 c 1
 124 579 171 579 171 529 c 0
 171 500 151 478 120 478 c 0
 91 478 69 497 69 530 c 0
 69 606 145 666 246 666 c 0
 342 666 430 610 430 528 c 0
 430 449 372 379 290 352 c 1
 394 331 457 253 457 171 c 0
EndSplineSet
Substitution2: "'pnum' Proportional Numbers lookup 6 subtable" three.prop
Substitution2: "'onum' Oldstyle Figures lookup 4 subtable" three.oldstyle
AlternateSubs2: "'aalt' Access All Alternates lookup 1 subtable" three.oldstyle three.prop
EndChar

StartChar: two
Encoding: 50 50 107
Width: 500
Flags: MW
HStem: 0 77<127 307 307 318 127 421> 174 77 429 105<101.5 111.5> 635 31<195 269.5>
VStem: 50 105<461.5 495 461.5 529.5> 253 105 358 91<432 513>
LayerCount: 2
Fore
SplineSet
449 174 m 1xfa
 421 0 l 1
 50 0 l 1
 50 24 50 26 61 37 c 2
 253 251 l 2xcc
 308 313 358 392 358 472 c 0
 358 554 315 635 224 635 c 0
 166 635 112 598 89 533 c 1
 92 534 94 534 102 534 c 0
 137 534 155 508 155 482 c 0
 155 441 120 429 103 429 c 0
 100 429 50 429 50 485 c 0
 50 574 124 666 237 666 c 0
 359 666 449 586 449 472 c 0
 449 372 389 318 233 180 c 1
 127 77 l 1
 307 77 l 2
 329 77 395 77 402 85 c 1
 412 100 419 144 424 174 c 1
 449 174 l 1xfa
EndSplineSet
Substitution2: "'pnum' Proportional Numbers lookup 6 subtable" two.prop
Substitution2: "'onum' Oldstyle Figures lookup 4 subtable" two.oldstyle
AlternateSubs2: "'aalt' Access All Alternates lookup 1 subtable" two.oldstyle two.prop
EndChar

StartChar: U
Encoding: 85 85 108
Width: 750
Flags: MW
HStem: -22 31<366.5 437.5 366.5 445.5> 574 31 652 31<33 57 33 33>
VStem: 136 89<228 605> 390 89 582 31<234 254 254 574>
LayerCount: 2
Fore
SplineSet
716 652 m 1
 613 652 613 607 613 574 c 2
 613 254 l 2
 613 214 613 205 610 185 c 0
 593 71 503 -22 388 -22 c 0
 252 -22 136 87 136 228 c 2
 136 605 l 2
 136 641 134 652 57 652 c 2
 33 652 l 1
 33 683 l 1
 68 680 143 680 181 680 c 0
 219 680 293 680 328 683 c 1
 328 652 l 1
 304 652 l 2
 227 652 225 641 225 605 c 2
 225 224 l 2
 225 34 343 9 390 9 c 0
 485 9 582 89 582 231 c 2
 582 578 l 2
 582 605 582 652 479 652 c 1
 479 683 l 1
 598 680 l 1
 716 683 l 1
 716 652 l 1
EndSplineSet
Position2: "'cpsp' Capital Spacing lookup 0 subtable" dx=7 dy=0 dh=14 dv=0
EndChar

StartChar: u
Encoding: 117 117 109
Width: 556
Flags: MW
HStem: -11 22<225 290> 0 31<500 535> 79 31 400 31<32 71> 400 42
VStem: 110 69<158 308 308 352.5> 388 69<166 344 344 368.5>
LayerCount: 2
Fore
SplineSet
535 0 m 1x4a
 391 -11 l 1
 391 79 l 1
 362 17 318 -11 262 -11 c 0
 110 -11 110 80 110 158 c 2
 110 308 l 2
 110 397 110 400 32 400 c 1
 32 431 l 1xb4
 179 442 l 1x0c
 179 110 l 2
 179 58 183 11 267 11 c 0
 340 11 388 79 388 166 c 2
 388 344 l 2
 388 393 380 400 310 400 c 1
 310 431 l 1xb6
 457 442 l 1
 457 87 l 2
 457 38 465 31 535 31 c 1
 535 0 l 1x4a
EndSplineSet
EndChar

StartChar: underscore
Encoding: 95 95 110
Width: 750
Flags: MW
HStem: -138 26<0 750 0 750>
LayerCount: 2
Fore
SplineSet
750 -138 m 1
 0 -138 l 1
 0 -112 l 1
 750 -112 l 1
 750 -138 l 1
EndSplineSet
EndChar

StartChar: V
Encoding: 86 86 111
Width: 750
Flags: MW
HStem: -22 21G<367.5 382.5> 652 31<19 51.5>
VStem: 19 711<652 683 652 683>
LayerCount: 2
Fore
SplineSet
730 652 m 1
 662 651 635 622 621 585 c 2
 398 -3 l 2
 393 -17 391 -22 374 -22 c 0
 361 -22 356 -19 349 0 c 2
 117 614 l 2
 103 652 84 652 19 652 c 1
 19 683 l 1
 146 680 l 2
 184 680 253 680 289 683 c 1
 289 652 l 1
 264 652 207 652 207 623 c 1
 207 623 207 619 213 605 c 2
 404 100 l 1
 587 582 l 2
 589 588 592 594 592 602 c 0
 592 625 571 651 519 652 c 1
 519 683 l 1
 633 680 l 2
 659 680 699 681 730 683 c 1
 730 652 l 1
EndSplineSet
Position2: "'cpsp' Capital Spacing lookup 0 subtable" dx=7 dy=0 dh=14 dv=0
EndChar

StartChar: v
Encoding: 118 118 112
Width: 528
Flags: MW
HStem: -11 21G<257.5 270.5> 400 31<19 50.5>
VStem: 19 489<400 431 400 431>
LayerCount: 2
Fore
SplineSet
508 400 m 1
 442 399 425 356 416 333 c 2
 285 8 l 2
 281 -2 277 -11 264 -11 c 0
 251 -11 249 -6 243 8 c 2
 99 363 l 2
 86 394 82 400 19 400 c 1
 19 431 l 1
 49 429 89 428 116 428 c 2
 225 431 l 1
 225 400 l 1
 207 400 168 400 168 374 c 1
 168 374 168 370 174 357 c 2
 286 78 l 1
 388 333 l 2
 392 344 394 348 394 357 c 0
 394 376 383 399 346 400 c 1
 346 431 l 1
 433 428 l 2
 456 428 485 429 508 431 c 1
 508 400 l 1
EndSplineSet
EndChar

StartChar: W
Encoding: 87 87 113
Width: 1028
Flags: MW
HStem: -22 21G<321.5 335 691.5 705> 579 31 585 31 652 31<18 55.5>
VStem: 18 991<652 683 652 683>
LayerCount: 2
Fore
SplineSet
1009 652 m 1x58
 970 652 927 642 909 585 c 2x38
 718 -2 l 2
 714 -15 712 -22 698 -22 c 0
 685 -22 682 -12 679 -3 c 2
 513 506 l 1
 348 -2 l 2
 344 -15 342 -22 328 -22 c 0
 315 -22 312 -12 309 -3 c 2
 109 610 l 2xc0
 97 647 93 652 18 652 c 1
 18 683 l 1
 140 680 l 2
 178 680 246 680 282 683 c 1
 282 652 l 1
 256 652 198 652 198 622 c 0
 198 619 199 612 200 609 c 2
 361 117 l 1
 500 546 l 1
 478 616 l 2x38
 466 652 445 652 388 652 c 1
 388 683 l 1
 510 680 l 2
 548 680 616 680 652 683 c 1
 652 652 l 1
 626 652 568 652 568 622 c 0
 568 617 570 611 571 607 c 2
 731 117 l 1
 881 579 l 2
 883 585 886 593 886 599 c 0
 886 618 866 651 799 652 c 1
 799 683 l 1
 918 680 l 2
 948 680 979 681 1009 683 c 1
 1009 652 l 1x58
EndSplineSet
Position2: "'cpsp' Capital Spacing lookup 0 subtable" dx=7 dy=0 dh=14 dv=0
EndChar

StartChar: w
Encoding: 119 119 114
Width: 722
Flags: MW
HStem: -11 21G<232.5 245.5 475.5 488.5> 354 31 400 31<18 43>
VStem: 18 685<400 431 400 431>
LayerCount: 2
Fore
SplineSet
703 400 m 1
 668 399 637 386 619 336 c 2
 502 8 l 2
 498 -2 495 -11 482 -11 c 0
 469 -11 466 -3 462 8 c 2
 360 292 l 1
 259 9 l 2
 254 -5 252 -11 239 -11 c 0
 226 -11 223 -3 218 11 c 2
 92 365 l 2
 80 397 68 400 18 400 c 1
 18 431 l 1
 111 428 l 1
 220 431 l 1
 220 400 l 1
 200 400 161 400 161 373 c 0
 161 369 161 367 166 355 c 2
 261 88 l 1
 347 330 l 1
 340 349 329 379 324 385 c 0
 314 398 298 400 261 400 c 1
 261 431 l 1
 291 429 320 428 350 428 c 2
 454 431 l 1
 454 400 l 1
 434 400 395 400 395 373 c 0
 395 368 396 366 400 354 c 2
 499 75 l 1
 590 331 l 2
 595 344 595 346 595 352 c 0
 595 381 573 399 537 400 c 1
 537 431 l 1
 630 428 l 2
 652 428 681 429 703 431 c 1
 703 400 l 1
EndSplineSet
EndChar

StartChar: X
Encoding: 88 88 115
Width: 750
Flags: MW
HStem: 0 31<24 74.5> 652 31<37 56 37 37>
VStem: 24 702<0 31 0 31>
LayerCount: 2
Fore
SplineSet
726 0 m 1
 596 3 l 2
 558 3 485 3 450 0 c 1
 450 31 l 1
 493 32 515 49 515 61 c 0
 515 64 512 68 510 72 c 2
 352 311 l 1
 210 101 l 2
 203 90 200 86 200 77 c 0
 200 59 217 32 263 31 c 1
 263 0 l 1
 227 3 172 3 135 3 c 2
 24 0 l 1
 24 31 l 1
 125 31 155 77 169 97 c 2
 333 339 l 1
 149 617 l 2
 130 645 111 652 56 652 c 2
 37 652 l 1
 37 683 l 1
 167 680 l 2
 205 680 278 680 313 683 c 1
 313 652 l 1
 270 651 248 634 248 622 c 0
 248 618 253 610 255 607 c 2
 384 414 l 1
 498 583 l 2
 505 594 507 596 507 606 c 0
 507 629 485 651 445 652 c 1
 445 683 l 1
 485 680 533 680 573 680 c 1
 684 683 l 1
 684 652 l 1
 595 651 561 619 539 587 c 2
 402 386 l 1
 613 67 l 2
 634 36 655 31 707 31 c 2
 726 31 l 1
 726 0 l 1
EndSplineSet
Position2: "'cpsp' Capital Spacing lookup 0 subtable" dx=7 dy=0 dh=14 dv=0
EndChar

StartChar: x
Encoding: 120 120 116
Width: 528
Flags: MW
HStem: 0 31<12 22.5> 31 31 369 31 400 31<17 52>
VStem: 12 504<0 31 0 31>
LayerCount: 2
Fore
SplineSet
516 0 m 1x88
 486 2 447 3 420 3 c 2
 312 0 l 1x88
 312 31 l 1
 339 32 348 47 348 56 c 0
 348 62 335 78 327 89 c 2
 251 189 l 1
 190 117 161 84 161 62 c 0x40
 161 47 168 34 190 31 c 1
 190 0 l 1
 95 3 l 2
 69 3 38 2 12 0 c 1
 12 31 l 1
 33 31 92 33 140 91 c 0
 187 148 187 150 234 210 c 1
 135 339 l 2
 88 399 87 400 17 400 c 1
 17 431 l 1
 44 429 91 428 112 428 c 2
 220 431 l 1x98
 220 400 l 1
 200 399 185 390 185 375 c 0
 185 369 185 367 194 357 c 1
 272 256 l 1
 334 334 l 2
 339 340 349 353 349 369 c 0x20
 349 385 341 398 320 400 c 1
 320 431 l 1
 333 430 386 428 416 428 c 0
 442 428 472 429 498 431 c 1
 498 400 l 1
 451 399 410 384 379 348 c 1
 355 322 317 273 287 235 c 1
 421 62 l 2x50
 444 33 462 31 516 31 c 1
 516 0 l 1x88
EndSplineSet
EndChar

StartChar: Y
Encoding: 89 89 117
Width: 750
Flags: MW
HStem: 0 31<228 252> 652 31<11 29 11 11>
VStem: 331 86<78 80 80 273>
LayerCount: 2
Fore
SplineSet
738 652 m 1
 706 652 647 648 610 587 c 2
 417 273 l 1
 417 80 l 2
 417 41 420 31 497 31 c 2
 520 31 l 1
 520 0 l 1
 484 3 413 3 374 3 c 0
 335 3 264 3 228 0 c 1
 228 31 l 1
 252 31 l 2
 329 31 331 42 331 78 c 2
 331 273 l 1
 121 615 l 2
 105 641 97 652 29 652 c 2
 11 652 l 1
 11 683 l 1
 141 680 l 2
 180 680 253 680 289 683 c 1
 289 652 l 1
 244 652 219 648 219 627 c 0
 219 622 219 620 226 610 c 2
 407 315 l 1
 572 583 l 2
 576 589 582 602 582 613 c 0
 582 633 566 652 525 652 c 1
 525 683 l 1
 640 680 l 2
 667 680 707 681 738 683 c 1
 738 652 l 1
EndSplineSet
Position2: "'cpsp' Capital Spacing lookup 0 subtable" dx=7 dy=0 dh=14 dv=0
EndChar

StartChar: y
Encoding: 121 121 118
Width: 528
Flags: MW
HStem: -205 22<108.5 142.5> -165 84 -81 22 400 31<19 43>
VStem: 19 84<-131 -110 -131 -109>
LayerCount: 2
Fore
SplineSet
508 400 m 1xb8
 492 400 441 399 415 336 c 2
 239 -91 l 2
 215 -148 174 -205 111 -205 c 0
 61 -205 19 -169 19 -124 c 0
 19 -94 41 -81 61 -81 c 0
 84 -81 103 -97 103 -123 c 0
 103 -139 95 -161 64 -165 c 1xd8
 83 -183 106 -183 111 -183 c 0
 175 -183 203 -114 225 -59 c 1
 250 0 l 1
 100 365 l 2
 86 400 67 400 19 400 c 1
 19 431 l 1
 49 429 89 428 116 428 c 2
 225 431 l 1
 225 400 l 1
 206 400 169 400 169 374 c 0
 169 370 171 366 175 356 c 2
 286 87 l 1
 387 333 l 2
 392 345 393 347 393 357 c 0
 393 382 377 399 346 400 c 1
 346 431 l 1
 433 428 l 2
 456 428 485 429 508 431 c 1
 508 400 l 1xb8
EndSplineSet
EndChar

StartChar: Z
Encoding: 90 90 119
Width: 611
Flags: MW
HStem: 0 34<159 323 323 415.5> 652 31<213 295 295 452>
VStem: 56 504<8.5 267>
LayerCount: 2
Fore
SplineSet
560 267 m 1
 543 0 l 1
 82 0 l 2
 61 0 56 0 56 17 c 0
 56 25 56 26 63 37 c 2
 452 652 l 1
 295 652 l 2
 131 652 101 571 94 458 c 1
 69 458 l 1
 80 683 l 1
 528 683 l 2
 548 683 554 683 554 667 c 0
 554 660 554 659 547 648 c 2
 159 34 l 1
 323 34 l 2
 508 34 527 128 535 267 c 1
 560 267 l 1
EndSplineSet
Position2: "'cpsp' Capital Spacing lookup 0 subtable" dx=7 dy=0 dh=14 dv=0
EndChar

StartChar: z
Encoding: 122 122 120
Width: 444
Flags: MW
HStem: 0 25<112 230 230 288> 409 22<147 202 202 316>
VStem: 28 373<7 187>
LayerCount: 2
Fore
SplineSet
401 187 m 1
 384 0 l 1
 54 0 l 2
 35 0 28 0 28 14 c 0
 28 19 28 21 37 32 c 2
 316 409 l 1
 202 409 l 2
 92 409 73 372 67 270 c 1
 42 270 l 1
 53 431 l 1
 373 431 l 2
 391 431 399 431 399 418 c 0
 399 414 399 412 390 401 c 2
 112 25 l 1
 230 25 l 2
 346 25 367 69 376 187 c 1
 401 187 l 1
EndSplineSet
EndChar

StartChar: zero
Encoding: 48 48 121
Width: 500
Flags: MW
HStem: -22 22<229.5 271.5 229.5 276> 644 22<236.5 265.5>
VStem: 39 83<302.5 360> 377 83<294.5 360 280.5 363.5>
LayerCount: 2
Fore
SplineSet
460 320 m 0
 460 241 455 163 423 94 c 0
 379 -1 303 -22 249 -22 c 0
 200 -22 127 -2 84 79 c 0
 43 155 39 245 39 320 c 0
 39 400 44 478 76 547 c 1
 117 640 190 666 250 666 c 0
 292 666 374 650 420 554 c 0
 455 480 460 400 460 320 c 0
377 332 m 0
 377 395 377 471 367 527 c 0
 348 626 282 644 249 644 c 0
 224 644 149 635 130 516 c 0
 122 462 122 396 122 332 c 0
 122 273 122 181 133 121 c 0
 151 25 210 0 249 0 c 0
 294 0 351 30 366 125 c 0
 377 189 377 257 377 332 c 0
EndSplineSet
Substitution2: "'zero' Slashed Zero lookup 14 subtable" zero.slash
Substitution2: "'pnum' Proportional Numbers lookup 6 subtable" zero.prop
Substitution2: "'onum' Oldstyle Figures lookup 4 subtable" zero.oldstyle
AlternateSubs2: "'aalt' Access All Alternates lookup 1 subtable" zero.oldstyle zero.prop zero.slash
EndChar

StartChar: f_f
Encoding: 64256 64256 122
Width: 583
Flags: MW
HStem: 0 31<28 61.5> 400 31<27 106 27 106 172 382 172 172 448 563 448 448> 683 22<283.5 330.5 269.5 340.5 515.5 539.5>
VStem: 250 66 316 66 382 66<76 78 78 400>
CounterMasks: 1 1c
LayerCount: 2
Fore
SplineSet
628 635 m 0
 628 611 613 591 584 591 c 0
 557 591 541 611 541 634 c 0
 541 659 559 672 571 676 c 1
 556 683 541 683 538 683 c 0
 493 683 445 636 445 547 c 2
 445 431 l 1
 563 431 l 1
 563 400 l 1
 448 400 l 1
 448 78 l 2
 448 42 450 31 524 31 c 2
 545 31 l 1
 545 0 l 1
 505 3 458 3 418 3 c 1
 304 0 l 1
 304 31 l 1
 371 31 382 31 382 76 c 2
 382 400 l 1
 172 400 l 1
 172 76 l 2
 172 31 183 31 250 31 c 1
 250 0 l 1
 139 3 l 1
 28 0 l 1
 28 31 l 1
 95 31 106 31 106 76 c 2
 106 400 l 1
 27 400 l 1
 27 431 l 1
 106 431 l 1
 106 545 l 2
 106 653 222 705 317 705 c 0
 344 705 400 700 429 663 c 1
 434 667 478 705 537 705 c 0
 593 705 628 671 628 635 c 0
393 664 m 1
 393 664 365 683 316 683 c 0
 251 683 169 641 169 544 c 2
 169 431 l 1
 382 431 l 1
 382 546 l 2
 382 558 382 567 385 580 c 1
 358 589 357 614 357 620 c 0
 357 648 377 661 393 664 c 1
EndSplineSet
Ligature2: "'liga' Standard Ligatures lookup 8 subtable" f f
EndChar

StartChar: f_f_i
Encoding: 64259 64259 123
Width: 833
Flags: MW
HStem: 0 31<28 61.5> 400 31<27 106 27 106 172 383 172 172 449 564 564 571 449 449> 558 92 683 22<285.5 327 563 609>
VStem: 106 66<76 400> 383 66<76 400> 660 66<76 346 346 366.5>
CounterMasks: 1 0e
LayerCount: 2
Fore
SplineSet
804 0 m 1
 693 3 l 1
 582 0 l 1
 582 31 l 1
 649 31 660 31 660 76 c 2
 660 346 l 2
 660 387 653 400 607 400 c 2
 449 400 l 1
 449 76 l 2
 449 31 460 31 527 31 c 1
 527 0 l 1
 416 3 l 1
 305 0 l 1
 305 31 l 1
 372 31 383 31 383 76 c 2
 383 400 l 1
 172 400 l 1
 172 76 l 2
 172 31 183 31 250 31 c 1
 250 0 l 1
 139 3 l 1
 28 0 l 1
 28 31 l 1
 95 31 106 31 106 76 c 2
 106 400 l 1
 27 400 l 1
 27 431 l 1
 106 431 l 1
 106 545 l 2
 106 654 223 705 317 705 c 0
 367 705 409 685 432 650 c 1
 450 665 507 705 595 705 c 0
 669 705 724 663 724 604 c 0
 724 574 701 558 678 558 c 0
 659 558 633 571 633 604 c 0
 633 620 639 648 680 650 c 1
 660 673 624 683 594 683 c 0
 532 683 446 643 446 544 c 2
 446 431 l 1
 564 431 l 2
 578 431 580 431 582 432 c 2
 687 440 l 1
 726 443 l 1
 726 76 l 2
 726 31 737 31 804 31 c 1
 804 0 l 1
401 650 m 1
 374 678 339 683 315 683 c 0
 256 683 169 644 169 544 c 2
 169 431 l 1
 383 431 l 1
 383 561 l 1
 365 566 353 582 353 604 c 0
 353 624 362 648 401 650 c 1
EndSplineSet
Ligature2: "'liga' Standard Ligatures in Latin lookup 12 subtable" f_f i
Ligature2: "'liga' Standard Ligatures in Latin lookup 11 subtable" f_f i
Ligature2: "'liga' Standard Ligatures lookup 9 subtable" f_f i
EndChar

StartChar: f_f_l
Encoding: 64260 64260 124
Width: 833
Flags: MW
HStem: 0 31<28 61.5> 400 31<27 106 27 106 172 383 172 172 449 660 449 449> 674 31 683 22<283.5 325.5 562 600.5>
VStem: 106 66<76 400> 383 66<76 400> 660 66<76 400 400 400 431 595 595 595>
CounterMasks: 1 0e
LayerCount: 2
Fore
SplineSet
804 0 m 1xee
 693 3 l 1
 582 0 l 1
 582 31 l 1
 649 31 660 31 660 76 c 2
 660 400 l 1
 449 400 l 1
 449 76 l 2
 449 31 460 31 527 31 c 1
 527 0 l 1
 416 3 l 1
 305 0 l 1
 305 31 l 1
 372 31 383 31 383 76 c 2
 383 400 l 1
 172 400 l 1
 172 76 l 2
 172 31 183 31 250 31 c 1
 250 0 l 1
 139 3 l 1
 28 0 l 1
 28 31 l 1
 95 31 106 31 106 76 c 2
 106 400 l 1
 27 400 l 1
 27 431 l 1
 106 431 l 1
 106 545 l 2
 106 652 220 705 318 705 c 0
 359 705 415 694 436 653 c 1
 473 683 527 705 597 705 c 0
 608 705 649 705 681 691 c 0
 685 689 686 688 690 688 c 2
 726 694 l 1
 726 76 l 2
 726 31 737 31 804 31 c 1
 804 0 l 1xee
394 664 m 1
 368 680 334 683 317 683 c 0x5e
 250 683 169 641 169 544 c 2
 169 431 l 1
 383 431 l 1
 383 545 l 2
 383 556 383 569 386 580 c 1
 364 588 358 605 358 620 c 0
 358 653 384 662 394 664 c 1
660 431 m 1
 660 595 l 1
 643 601 635 616 635 634 c 0
 635 660 651 670 660 674 c 1x6e
 632 683 605 683 596 683 c 0
 522 683 446 637 446 544 c 2
 446 431 l 1
 660 431 l 1
EndSplineSet
Ligature2: "'liga' Standard Ligatures lookup 8 subtable" f f l
EndChar

StartChar: f_i
Encoding: 64257 64257 125
Width: 556
Flags: MW
HStem: 0 31<28 61.5> 400 31<27 106 27 106 172 287 287 294 172 172> 558 89 683 22<286 332>
VStem: 106 66<76 400> 317 66 383 66<76 346 346 366.5>
LayerCount: 2
Fore
SplineSet
527 0 m 1xc2
 416 3 l 1
 305 0 l 1
 305 31 l 1
 372 31 383 31 383 76 c 2
 383 346 l 2
 383 387 376 400 330 400 c 2
 172 400 l 1
 172 76 l 2
 172 31 183 31 250 31 c 1
 250 0 l 1
 139 3 l 1
 28 0 l 1
 28 31 l 1
 95 31 106 31 106 76 c 2
 106 400 l 1
 27 400 l 1
 27 431 l 1
 106 431 l 1
 106 545 l 2
 106 654 225 705 318 705 c 0
 392 705 447 663 447 604 c 0
 447 574 424 558 401 558 c 0
 382 558 356 571 356 604 c 0
 356 620 362 648 403 650 c 1
 383 673 347 683 317 683 c 0xfc
 255 683 169 643 169 544 c 2
 169 431 l 1
 287 431 l 2
 301 431 303 431 305 432 c 2
 305 432 307 433 323 434 c 2
 449 443 l 1
 449 76 l 2
 449 31 460 31 527 31 c 1
 527 0 l 1xc2
EndSplineSet
Ligature2: "'liga' Standard Ligatures in Latin lookup 12 subtable" f i
Ligature2: "'liga' Standard Ligatures in Latin lookup 11 subtable" f i
Ligature2: "'liga' Standard Ligatures lookup 9 subtable" f i
EndChar

StartChar: f_l
Encoding: 64258 64258 126
Width: 556
Flags: MW
HStem: 0 31<28 61.5> 400 31<27 106 27 106 172 383 172 172> 674 31 683 22<282 323.5>
VStem: 106 66<76 400> 383 66<76 400 400 400 431 595 595 595>
LayerCount: 2
Fore
SplineSet
527 0 m 1xec
 416 3 l 1
 305 0 l 1
 305 31 l 1
 372 31 383 31 383 76 c 2
 383 400 l 1
 172 400 l 1
 172 76 l 2
 172 31 183 31 250 31 c 1
 250 0 l 1
 139 3 l 1
 28 0 l 1
 28 31 l 1
 95 31 106 31 106 76 c 2
 106 400 l 1
 27 400 l 1
 27 431 l 1
 106 431 l 1
 106 545 l 2
 106 649 215 705 320 705 c 0
 331 705 372 705 404 691 c 0
 408 689 409 688 413 688 c 2
 449 694 l 1
 449 76 l 2
 449 31 460 31 527 31 c 1
 527 0 l 1xec
383 431 m 1
 383 595 l 1
 366 601 358 616 358 634 c 0
 358 660 374 670 383 674 c 1x64
 355 683 328 683 319 683 c 0x10
 245 683 169 637 169 544 c 2
 169 431 l 1
 383 431 l 1
EndSplineSet
Ligature2: "'liga' Standard Ligatures lookup 8 subtable" f l
EndChar

StartChar: Aacute
Encoding: 193 193 127
Width: 750
Flags: MW
HStem: 0 31<32 32> 228 31<233 458 233 469 222 458> 696 20G<351 383 367 398> 746 21G<306 320> 889 20G<471 488>
LayerCount: 2
Fore
SplineSet
717 0 m 1
 586 3 l 2
 548 3 478 3 442 0 c 1
 442 31 l 1
 469 31 525 31 525 61 c 0
 525 65 523 71 522 75 c 2
 469 228 l 1
 222 228 l 1
 176 97 l 2
 175 95 174 85 174 82 c 0
 174 56 199 31 249 31 c 1
 249 0 l 1
 134 3 l 1
 32 0 l 1
 32 31 l 1
 86 32 126 47 144 98 c 2
 351 696 l 2
 356 710 359 716 375 716 c 0
 391 716 393 709 398 696 c 2
 614 71 l 2
 625 38 639 31 699 31 c 2
 717 31 l 1
 717 0 l 1
458 259 m 1
 345 584 l 1
 233 259 l 1
 458 259 l 1
512 867 m 0x18
 510 855 501 845 490 840 c 2
 320 746 l 1
 306 767 l 1
 451 897 l 2
 455 901 465 909 477 909 c 0
 499 909 516 889 512 867 c 0x18
EndSplineSet
Position2: "'cpsp' Capital Spacing lookup 0 subtable" dx=7 dy=0 dh=14 dv=0
EndChar

StartChar: aacute
Encoding: 225 225 128
Width: 500
Flags: MW
HStem: -11 22<174.5 221.5 174.5 225> -6 31<405.5 411.5> 288 90 426 22<194 234.5> 510 21G<205 205> 678 20G<330.5 347>
VStem: 32 77<71 117> 316 69<140 240 240 240 261 275> 458 25<89 145>
LayerCount: 2
Fore
SplineSet
483 89 m 2x7380
 483 8 422 -6 401 -6 c 0x4080
 354 -6 327 36 323 76 c 1
 304 29 258 -11 192 -11 c 0x80
 129 -11 32 14 32 95 c 0
 32 139 57 191 132 225 c 1
 195 255 265 258 316 261 c 1
 316 298 l 2
 316 387 259 426 210 426 c 0
 178 426 129 415 102 380 c 1
 148 379 153 346 153 334 c 0
 153 308 135 288 107 288 c 0
 81 288 61 305 61 335 c 0
 61 401 130 448 212 448 c 0
 260 448 310 432 349 393 c 0
 385 356 385 317 385 275 c 2
 385 75 l 2
 385 70 389 25 422 25 c 0
 433 25 458 31 458 89 c 2
 458 145 l 1
 483 145 l 1
 483 89 l 2x7380
316 140 m 2
 316 240 l 1
 151 234 109 151 109 96 c 0
 109 46 150 11 199 11 c 0x83
 244 11 316 45 316 140 c 2
374 662 m 0x0c
 374 650 366 639 357 632 c 2
 205 510 l 1
 188 528 l 1
 308 681 l 2
 312 687 323 698 338 698 c 0
 356 698 374 680 374 662 c 0x0c
EndSplineSet
EndChar

StartChar: Abreve
Encoding: 258 258 129
Width: 750
Flags: MW
HStem: 0 31<32 32> 228 31<233 458 233 469 222 458> 696 20G<351 383 367 398> 746 38<344.5 405.5 344.5 414> 898 20G<226 248 248 248 503 525 525 525>
LayerCount: 2
Fore
SplineSet
717 0 m 1
 586 3 l 2
 548 3 478 3 442 0 c 1
 442 31 l 1
 469 31 525 31 525 61 c 0
 525 65 523 71 522 75 c 2
 469 228 l 1
 222 228 l 1
 176 97 l 2
 175 95 174 85 174 82 c 0
 174 56 199 31 249 31 c 1
 249 0 l 1
 134 3 l 1
 32 0 l 1
 32 31 l 1
 86 32 126 47 144 98 c 2
 351 696 l 2
 356 710 359 716 375 716 c 0
 391 716 393 709 398 696 c 2
 614 71 l 2
 625 38 639 31 699 31 c 2
 717 31 l 1
 717 0 l 1
458 259 m 1
 345 584 l 1
 233 259 l 1
 458 259 l 1
525 918 m 1x18
 523 813 453 746 375 746 c 0
 301 746 228 810 226 918 c 1
 248 918 l 1
 250 833 313 784 376 784 c 0
 435 784 501 831 503 918 c 1
 525 918 l 1x18
EndSplineSet
Position2: "'cpsp' Capital Spacing lookup 0 subtable" dx=7 dy=0 dh=14 dv=0
EndChar

StartChar: abreve
Encoding: 259 259 130
Width: 500
Flags: MW
HStem: -11 22<174.5 221.5 174.5 225> -6 31<405.5 411.5> 288 90 426 22<194 234.5> 518 38<219.5 280.5 219.5 289> 670 20G<101 123 123 123 378 400 400 400>
VStem: 32 77<71 117> 316 69<140 240 240 240 261 275> 458 25<89 145>
LayerCount: 2
Fore
SplineSet
483 89 m 2x7380
 483 8 422 -6 401 -6 c 0x4080
 354 -6 327 36 323 76 c 1
 304 29 258 -11 192 -11 c 0x80
 129 -11 32 14 32 95 c 0
 32 139 57 191 132 225 c 1
 195 255 265 258 316 261 c 1
 316 298 l 2
 316 387 259 426 210 426 c 0
 178 426 129 415 102 380 c 1
 148 379 153 346 153 334 c 0
 153 308 135 288 107 288 c 0
 81 288 61 305 61 335 c 0
 61 401 130 448 212 448 c 0
 260 448 310 432 349 393 c 0
 385 356 385 317 385 275 c 2
 385 75 l 2
 385 70 389 25 422 25 c 0
 433 25 458 31 458 89 c 2
 458 145 l 1
 483 145 l 1
 483 89 l 2x7380
316 140 m 2
 316 240 l 1
 151 234 109 151 109 96 c 0
 109 46 150 11 199 11 c 0x83
 244 11 316 45 316 140 c 2
400 690 m 1x0c
 398 585 328 518 250 518 c 0
 176 518 103 582 101 690 c 1
 123 690 l 1
 125 605 188 556 251 556 c 0
 310 556 376 603 378 690 c 1
 400 690 l 1x0c
EndSplineSet
EndChar

StartChar: Abreveacute
Encoding: 7854 7854 131
Width: 750
Flags: MW
HStem: 0 31<32 32> 228 31<233 458 233 469 222 458> 696 20G<351 383 367 398> 746 38<344.5 405.5 344.5 414> 1081 20G<437 454>
LayerCount: 2
Fore
SplineSet
717 0 m 1
 586 3 l 2
 548 3 478 3 442 0 c 1
 442 31 l 1
 469 31 525 31 525 61 c 0
 525 65 523 71 522 75 c 2
 469 228 l 1
 222 228 l 1
 176 97 l 2
 175 95 174 85 174 82 c 0
 174 56 199 31 249 31 c 1
 249 0 l 1
 134 3 l 1
 32 0 l 1
 32 31 l 1
 86 32 126 47 144 98 c 2
 351 696 l 2
 356 710 359 716 375 716 c 0
 391 716 393 709 398 696 c 2
 614 71 l 2
 625 38 639 31 699 31 c 2
 717 31 l 1
 717 0 l 1
458 259 m 1
 345 584 l 1
 233 259 l 1
 458 259 l 1
525 918 m 1x18
 523 813 453 746 375 746 c 0
 301 746 228 810 226 918 c 1
 248 918 l 1
 250 833 313 784 376 784 c 0
 435 784 501 831 503 918 c 1
 525 918 l 1x18
478 1059 m 0
 476 1047 467 1037 456 1032 c 2
 286 938 l 1
 272 959 l 1
 417 1089 l 2
 421 1093 431 1101 443 1101 c 0
 465 1101 482 1081 478 1059 c 0
EndSplineSet
Position2: "'cpsp' Capital Spacing lookup 0 subtable" dx=7 dy=0 dh=14 dv=0
EndChar

StartChar: abreveacute
Encoding: 7855 7855 132
Width: 500
Flags: MW
HStem: -11 22<174.5 221.5 174.5 225> -6 31<405.5 411.5> 288 90 426 22<194 234.5> 518 38<219.5 280.5 219.5 289> 853 20G<312 329>
VStem: 32 77<71 117> 316 69<140 240 240 240 261 275> 458 25<89 145>
LayerCount: 2
Fore
SplineSet
483 89 m 2x7380
 483 8 422 -6 401 -6 c 0x4080
 354 -6 327 36 323 76 c 1
 304 29 258 -11 192 -11 c 0x80
 129 -11 32 14 32 95 c 0
 32 139 57 191 132 225 c 1
 195 255 265 258 316 261 c 1
 316 298 l 2
 316 387 259 426 210 426 c 0
 178 426 129 415 102 380 c 1
 148 379 153 346 153 334 c 0
 153 308 135 288 107 288 c 0
 81 288 61 305 61 335 c 0
 61 401 130 448 212 448 c 0
 260 448 310 432 349 393 c 0
 385 356 385 317 385 275 c 2
 385 75 l 2
 385 70 389 25 422 25 c 0
 433 25 458 31 458 89 c 2
 458 145 l 1
 483 145 l 1
 483 89 l 2x7380
316 140 m 2
 316 240 l 1
 151 234 109 151 109 96 c 0
 109 46 150 11 199 11 c 0x83
 244 11 316 45 316 140 c 2
400 690 m 1x0c
 398 585 328 518 250 518 c 0
 176 518 103 582 101 690 c 1
 123 690 l 1
 125 605 188 556 251 556 c 0
 310 556 376 603 378 690 c 1
 400 690 l 1x0c
353 831 m 0
 351 819 342 809 331 804 c 2
 161 710 l 1
 147 731 l 1
 292 861 l 2
 296 865 306 873 318 873 c 0
 340 873 357 853 353 831 c 0
EndSplineSet
EndChar

StartChar: Abrevedotbelow
Encoding: 7862 7862 133
Width: 750
Flags: MW
HStem: -200 106<359 390 358 391> 0 31<32 32> 228 31<233 458 233 469 222 458> 696 20G<351 383 367 398> 746 38<344.5 405.5 344.5 414> 898 20G<226 248 248 248 503 525 525 525>
VStem: 321 107<-159.5 -134.5>
LayerCount: 2
Fore
SplineSet
717 0 m 1
 586 3 l 2
 548 3 478 3 442 0 c 1
 442 31 l 1
 469 31 525 31 525 61 c 0
 525 65 523 71 522 75 c 2
 469 228 l 1
 222 228 l 1
 176 97 l 2
 175 95 174 85 174 82 c 0
 174 56 199 31 249 31 c 1
 249 0 l 1
 134 3 l 1
 32 0 l 1
 32 31 l 1
 86 32 126 47 144 98 c 2
 351 696 l 2
 356 710 359 716 375 716 c 0
 391 716 393 709 398 696 c 2
 614 71 l 2
 625 38 639 31 699 31 c 2
 717 31 l 1
 717 0 l 1
458 259 m 1
 345 584 l 1
 233 259 l 1
 458 259 l 1
525 918 m 1
 523 813 453 746 375 746 c 0
 301 746 228 810 226 918 c 1
 248 918 l 1
 250 833 313 784 376 784 c 0
 435 784 501 831 503 918 c 1
 525 918 l 1
428 -147 m 0x82
 428 -172 408 -200 374 -200 c 0
 344 -200 321 -174 321 -147 c 0
 321 -122 341 -94 375 -94 c 0
 405 -94 428 -120 428 -147 c 0x82
EndSplineSet
Position2: "'cpsp' Capital Spacing lookup 0 subtable" dx=7 dy=0 dh=14 dv=0
EndChar

StartChar: abrevedotbelow
Encoding: 7863 7863 134
Width: 500
Flags: MW
HStem: -200 106<234 265 233 266> -11 22<174.5 221.5 174.5 225> -6 31<405.5 411.5> 288 90 426 22<194 234.5> 518 38<219.5 280.5 219.5 289> 670 20G<101 123 123 123 378 400 400 400>
VStem: 32 77<71 117> 196 107<-159.5 -134.5> 316 69<140 240 240 240 261 275> 458 25<89 145>
LayerCount: 2
Fore
SplineSet
483 89 m 2x3960
 483 8 422 -6 401 -6 c 0x2020
 354 -6 327 36 323 76 c 1
 304 29 258 -11 192 -11 c 0x40
 129 -11 32 14 32 95 c 0
 32 139 57 191 132 225 c 1
 195 255 265 258 316 261 c 1
 316 298 l 2
 316 387 259 426 210 426 c 0
 178 426 129 415 102 380 c 1
 148 379 153 346 153 334 c 0
 153 308 135 288 107 288 c 0
 81 288 61 305 61 335 c 0
 61 401 130 448 212 448 c 0
 260 448 310 432 349 393 c 0
 385 356 385 317 385 275 c 2
 385 75 l 2
 385 70 389 25 422 25 c 0
 433 25 458 31 458 89 c 2
 458 145 l 1
 483 145 l 1
 483 89 l 2x3960
316 140 m 2
 316 240 l 1
 151 234 109 151 109 96 c 0
 109 46 150 11 199 11 c 0x4740
 244 11 316 45 316 140 c 2
400 690 m 1
 398 585 328 518 250 518 c 0
 176 518 103 582 101 690 c 1
 123 690 l 1
 125 605 188 556 251 556 c 0
 310 556 376 603 378 690 c 1
 400 690 l 1
303 -147 m 0x8080
 303 -172 283 -200 249 -200 c 0
 219 -200 196 -174 196 -147 c 0
 196 -122 216 -94 250 -94 c 0
 280 -94 303 -120 303 -147 c 0x8080
EndSplineSet
EndChar

StartChar: Abrevegrave
Encoding: 7856 7856 135
Width: 750
Flags: MW
HStem: 0 31<32 32> 228 31<233 458 233 469 222 458> 696 20G<351 383 367 398> 746 38<344.5 405.5 344.5 414> 898 20G<226 248 248 248 503 525 525 525>
LayerCount: 2
Fore
SplineSet
717 0 m 1
 586 3 l 2
 548 3 478 3 442 0 c 1
 442 31 l 1
 469 31 525 31 525 61 c 0
 525 65 523 71 522 75 c 2
 469 228 l 1
 222 228 l 1
 176 97 l 2
 175 95 174 85 174 82 c 0
 174 56 199 31 249 31 c 1
 249 0 l 1
 134 3 l 1
 32 0 l 1
 32 31 l 1
 86 32 126 47 144 98 c 2
 351 696 l 2
 356 710 359 716 375 716 c 0
 391 716 393 709 398 696 c 2
 614 71 l 2
 625 38 639 31 699 31 c 2
 717 31 l 1
 717 0 l 1
458 259 m 1
 345 584 l 1
 233 259 l 1
 458 259 l 1
525 918 m 1x18
 523 813 453 746 375 746 c 0
 301 746 228 810 226 918 c 1
 248 918 l 1
 250 833 313 784 376 784 c 0
 435 784 501 831 503 918 c 1
 525 918 l 1x18
479 959 m 1
 334 1089 l 2
 330 1093 320 1101 308 1101 c 0
 286 1101 269 1081 273 1059 c 0
 275 1047 284 1037 295 1032 c 2
 465 938 l 1
 479 959 l 1
EndSplineSet
Position2: "'cpsp' Capital Spacing lookup 0 subtable" dx=7 dy=0 dh=14 dv=0
EndChar

StartChar: abrevegrave
Encoding: 7857 7857 136
Width: 500
Flags: MW
HStem: -11 22<174.5 221.5 174.5 225> -6 31<405.5 411.5> 288 90 426 22<194 234.5> 518 38<219.5 280.5 219.5 289> 670 20G<101 123 123 123 378 400 400 400>
VStem: 32 77<71 117> 316 69<140 240 240 240 261 275> 458 25<89 145>
LayerCount: 2
Fore
SplineSet
483 89 m 2x7380
 483 8 422 -6 401 -6 c 0x4080
 354 -6 327 36 323 76 c 1
 304 29 258 -11 192 -11 c 0x80
 129 -11 32 14 32 95 c 0
 32 139 57 191 132 225 c 1
 195 255 265 258 316 261 c 1
 316 298 l 2
 316 387 259 426 210 426 c 0
 178 426 129 415 102 380 c 1
 148 379 153 346 153 334 c 0
 153 308 135 288 107 288 c 0
 81 288 61 305 61 335 c 0
 61 401 130 448 212 448 c 0
 260 448 310 432 349 393 c 0
 385 356 385 317 385 275 c 2
 385 75 l 2
 385 70 389 25 422 25 c 0
 433 25 458 31 458 89 c 2
 458 145 l 1
 483 145 l 1
 483 89 l 2x7380
316 140 m 2
 316 240 l 1
 151 234 109 151 109 96 c 0
 109 46 150 11 199 11 c 0x83
 244 11 316 45 316 140 c 2
400 690 m 1x0c
 398 585 328 518 250 518 c 0
 176 518 103 582 101 690 c 1
 123 690 l 1
 125 605 188 556 251 556 c 0
 310 556 376 603 378 690 c 1
 400 690 l 1x0c
354 731 m 1
 209 861 l 2
 205 865 195 873 183 873 c 0
 161 873 144 853 148 831 c 0
 150 819 159 809 170 804 c 2
 340 710 l 1
 354 731 l 1
EndSplineSet
EndChar

StartChar: Abrevehookabove
Encoding: 7858 7858 137
Width: 750
Flags: MW
HStem: 0 31<32 32> 228 31<233 458 233 469 222 458> 696 20G<351 383 367 398> 746 38<344.5 405.5 344.5 414> 1107 20G<345.5 383.5>
LayerCount: 2
Fore
SplineSet
717 0 m 1
 586 3 l 2
 548 3 478 3 442 0 c 1
 442 31 l 1
 469 31 525 31 525 61 c 0
 525 65 523 71 522 75 c 2
 469 228 l 1
 222 228 l 1
 176 97 l 2
 175 95 174 85 174 82 c 0
 174 56 199 31 249 31 c 1
 249 0 l 1
 134 3 l 1
 32 0 l 1
 32 31 l 1
 86 32 126 47 144 98 c 2
 351 696 l 2
 356 710 359 716 375 716 c 0
 391 716 393 709 398 696 c 2
 614 71 l 2
 625 38 639 31 699 31 c 2
 717 31 l 1
 717 0 l 1
458 259 m 1
 345 584 l 1
 233 259 l 1
 458 259 l 1
525 918 m 1x18
 523 813 453 746 375 746 c 0
 301 746 228 810 226 918 c 1
 248 918 l 1
 250 833 313 784 376 784 c 0
 435 784 501 831 503 918 c 1
 525 918 l 1x18
473 1060 m 0
 473 1041 461 1025 443 1017 c 0
 403 997 379 975 379 947 c 2
 379 928 l 2
 379 922 375 918 369 918 c 0
 364 918 359 922 359 928 c 2
 359 947 l 2
 359 980 379 1010 407 1033 c 0
 415 1039 419 1049 419 1060 c 0
 419 1079 418 1089 411 1095 c 0
 400 1105 384 1108 369 1108 c 0
 346 1108 326 1101 313 1090 c 1
 327 1088 338 1077 338 1060 c 0
 338 1042 324 1031 309 1031 c 0
 293 1031 279 1042 279 1061 c 0
 279 1102 322 1127 369 1127 c 0
 398 1127 423 1123 444 1111 c 0
 462 1100 473 1081 473 1060 c 0
EndSplineSet
Position2: "'cpsp' Capital Spacing lookup 0 subtable" dx=7 dy=0 dh=14 dv=0
EndChar

StartChar: abrevehookabove
Encoding: 7859 7859 138
Width: 500
Flags: MW
HStem: -11 22<174.5 221.5 174.5 225> -6 31<405.5 411.5> 288 90 426 22<194 234.5> 518 38<219.5 280.5 219.5 289> 879 20G<220.5 258.5>
VStem: 32 77<71 117> 316 69<140 240 240 240 261 275> 458 25<89 145>
LayerCount: 2
Fore
SplineSet
483 89 m 2x7380
 483 8 422 -6 401 -6 c 0x4080
 354 -6 327 36 323 76 c 1
 304 29 258 -11 192 -11 c 0x80
 129 -11 32 14 32 95 c 0
 32 139 57 191 132 225 c 1
 195 255 265 258 316 261 c 1
 316 298 l 2
 316 387 259 426 210 426 c 0
 178 426 129 415 102 380 c 1
 148 379 153 346 153 334 c 0
 153 308 135 288 107 288 c 0
 81 288 61 305 61 335 c 0
 61 401 130 448 212 448 c 0
 260 448 310 432 349 393 c 0
 385 356 385 317 385 275 c 2
 385 75 l 2
 385 70 389 25 422 25 c 0
 433 25 458 31 458 89 c 2
 458 145 l 1
 483 145 l 1
 483 89 l 2x7380
316 140 m 2
 316 240 l 1
 151 234 109 151 109 96 c 0
 109 46 150 11 199 11 c 0x83
 244 11 316 45 316 140 c 2
400 690 m 1x0c
 398 585 328 518 250 518 c 0
 176 518 103 582 101 690 c 1
 123 690 l 1
 125 605 188 556 251 556 c 0
 310 556 376 603 378 690 c 1
 400 690 l 1x0c
348 832 m 0
 348 813 336 797 318 789 c 0
 278 769 254 747 254 719 c 2
 254 700 l 2
 254 694 250 690 244 690 c 0
 239 690 234 694 234 700 c 2
 234 719 l 2
 234 752 254 782 282 805 c 0
 290 811 294 821 294 832 c 0
 294 851 293 861 286 867 c 0
 275 877 259 880 244 880 c 0
 221 880 201 873 188 862 c 1
 202 860 213 849 213 832 c 0
 213 814 199 803 184 803 c 0
 168 803 154 814 154 833 c 0
 154 874 197 899 244 899 c 0
 273 899 298 895 319 883 c 0
 337 872 348 853 348 832 c 0
EndSplineSet
EndChar

StartChar: Abrevetilde
Encoding: 7860 7860 139
Width: 750
Flags: MW
HStem: 0 31<32 32> 228 31<233 458 233 469 222 458> 696 20G<351 383 367 398> 746 38<344.5 405.5 344.5 414> 958 45<432.5 453> 1006 45<298 318.5>
LayerCount: 2
Fore
SplineSet
717 0 m 1
 586 3 l 2
 548 3 478 3 442 0 c 1
 442 31 l 1
 469 31 525 31 525 61 c 0
 525 65 523 71 522 75 c 2
 469 228 l 1
 222 228 l 1
 176 97 l 2
 175 95 174 85 174 82 c 0
 174 56 199 31 249 31 c 1
 249 0 l 1
 134 3 l 1
 32 0 l 1
 32 31 l 1
 86 32 126 47 144 98 c 2
 351 696 l 2
 356 710 359 716 375 716 c 0
 391 716 393 709 398 696 c 2
 614 71 l 2
 625 38 639 31 699 31 c 2
 717 31 l 1
 717 0 l 1
458 259 m 1
 345 584 l 1
 233 259 l 1
 458 259 l 1
525 918 m 1x1c
 523 813 453 746 375 746 c 0
 301 746 228 810 226 918 c 1
 248 918 l 1
 250 833 313 784 376 784 c 0
 435 784 501 831 503 918 c 1
 525 918 l 1x1c
542 1036 m 1
 491 980 472 958 434 958 c 0
 417 958 399 965 372 981 c 0
 355 991 330 1006 307 1006 c 0
 263 1006 225 958 225 958 c 1
 209 973 l 1
 260 1029 279 1051 317 1051 c 0
 334 1051 352 1044 379 1028 c 0
 396 1018 421 1003 444 1003 c 0
 488 1003 526 1051 526 1051 c 1
 542 1036 l 1
EndSplineSet
Position2: "'cpsp' Capital Spacing lookup 0 subtable" dx=7 dy=0 dh=14 dv=0
EndChar

StartChar: abrevetilde
Encoding: 7861 7861 140
Width: 500
Flags: MW
HStem: -11 22<174.5 221.5 174.5 225> -6 31<405.5 411.5> 288 90 426 22<194 234.5> 518 38<219.5 280.5 219.5 289> 730 45<307.5 328> 778 45<173 193.5>
VStem: 32 77<71 117> 316 69<140 240 240 240 261 275> 458 25<89 145>
LayerCount: 2
Fore
SplineSet
483 89 m 2x71c0
 483 8 422 -6 401 -6 c 0x4040
 354 -6 327 36 323 76 c 1
 304 29 258 -11 192 -11 c 0x80
 129 -11 32 14 32 95 c 0
 32 139 57 191 132 225 c 1
 195 255 265 258 316 261 c 1
 316 298 l 2
 316 387 259 426 210 426 c 0
 178 426 129 415 102 380 c 1
 148 379 153 346 153 334 c 0
 153 308 135 288 107 288 c 0
 81 288 61 305 61 335 c 0
 61 401 130 448 212 448 c 0
 260 448 310 432 349 393 c 0
 385 356 385 317 385 275 c 2
 385 75 l 2
 385 70 389 25 422 25 c 0
 433 25 458 31 458 89 c 2
 458 145 l 1
 483 145 l 1
 483 89 l 2x71c0
316 140 m 2
 316 240 l 1
 151 234 109 151 109 96 c 0
 109 46 150 11 199 11 c 0x8180
 244 11 316 45 316 140 c 2
400 690 m 1x0e
 398 585 328 518 250 518 c 0
 176 518 103 582 101 690 c 1
 123 690 l 1
 125 605 188 556 251 556 c 0
 310 556 376 603 378 690 c 1
 400 690 l 1x0e
417 808 m 1
 366 752 347 730 309 730 c 0
 292 730 274 737 247 753 c 0
 230 763 205 778 182 778 c 0
 138 778 100 730 100 730 c 1
 84 745 l 1
 135 801 154 823 192 823 c 0
 209 823 227 816 254 800 c 0
 271 790 296 775 319 775 c 0
 363 775 401 823 401 823 c 1
 417 808 l 1
EndSplineSet
EndChar

StartChar: Acaron
Encoding: 461 461 141
Width: 750
Flags: MW
HStem: 0 31<32 32> 228 31<233 458 233 469 222 458> 696 20G<351 383 367 398> 736 21G<375 375> 849 20G<236 236 516 516>
LayerCount: 2
Fore
SplineSet
717 0 m 1
 586 3 l 2
 548 3 478 3 442 0 c 1
 442 31 l 1
 469 31 525 31 525 61 c 0
 525 65 523 71 522 75 c 2
 469 228 l 1
 222 228 l 1
 176 97 l 2
 175 95 174 85 174 82 c 0
 174 56 199 31 249 31 c 1
 249 0 l 1
 134 3 l 1
 32 0 l 1
 32 31 l 1
 86 32 126 47 144 98 c 2
 351 696 l 2
 356 710 359 716 375 716 c 0
 391 716 393 709 398 696 c 2
 614 71 l 2
 625 38 639 31 699 31 c 2
 717 31 l 1
 717 0 l 1
458 259 m 1
 345 584 l 1
 233 259 l 1
 458 259 l 1
526 853 m 1x18
 375 736 l 1
 224 853 l 1
 236 869 l 1
 376 803 l 1
 516 869 l 1
 526 853 l 1x18
EndSplineSet
EndChar

StartChar: acaron
Encoding: 462 462 142
Width: 500
Flags: MW
HStem: -11 22<174.5 221.5 174.5 225> -6 31<405.5 411.5> 288 90 426 22<194 234.5> 516 21G<250 250> 672 20G<111 111 389 389>
VStem: 32 77<71 117> 316 69<140 240 240 240 261 275> 458 25<89 145>
LayerCount: 2
Fore
SplineSet
483 89 m 2x7380
 483 8 422 -6 401 -6 c 0x4080
 354 -6 327 36 323 76 c 1
 304 29 258 -11 192 -11 c 0x80
 129 -11 32 14 32 95 c 0
 32 139 57 191 132 225 c 1
 195 255 265 258 316 261 c 1
 316 298 l 2
 316 387 259 426 210 426 c 0
 178 426 129 415 102 380 c 1
 148 379 153 346 153 334 c 0
 153 308 135 288 107 288 c 0
 81 288 61 305 61 335 c 0
 61 401 130 448 212 448 c 0
 260 448 310 432 349 393 c 0
 385 356 385 317 385 275 c 2
 385 75 l 2
 385 70 389 25 422 25 c 0
 433 25 458 31 458 89 c 2
 458 145 l 1
 483 145 l 1
 483 89 l 2x7380
316 140 m 2
 316 240 l 1
 151 234 109 151 109 96 c 0
 109 46 150 11 199 11 c 0x83
 244 11 316 45 316 140 c 2
402 678 m 1x0c
 250 516 l 1
 98 678 l 1
 111 692 l 1
 250 584 l 1
 389 692 l 1
 402 678 l 1x0c
EndSplineSet
EndChar

StartChar: Acircumflex
Encoding: 194 194 143
Width: 750
Flags: MW
HStem: 0 31<32 32> 228 31<233 458 233 469 222 458> 696 20G<351 383 367 398> 736 21G<234 234 514 514> 849 20G<375 375>
LayerCount: 2
Fore
SplineSet
717 0 m 1
 586 3 l 2
 548 3 478 3 442 0 c 1
 442 31 l 1
 469 31 525 31 525 61 c 0
 525 65 523 71 522 75 c 2
 469 228 l 1
 222 228 l 1
 176 97 l 2
 175 95 174 85 174 82 c 0
 174 56 199 31 249 31 c 1
 249 0 l 1
 134 3 l 1
 32 0 l 1
 32 31 l 1
 86 32 126 47 144 98 c 2
 351 696 l 2
 356 710 359 716 375 716 c 0
 391 716 393 709 398 696 c 2
 614 71 l 2
 625 38 639 31 699 31 c 2
 717 31 l 1
 717 0 l 1
458 259 m 1
 345 584 l 1
 233 259 l 1
 458 259 l 1
526 752 m 1x18
 514 736 l 1
 374 802 l 1
 234 736 l 1
 224 752 l 1
 375 869 l 1
 526 752 l 1x18
EndSplineSet
Position2: "'cpsp' Capital Spacing lookup 0 subtable" dx=7 dy=0 dh=14 dv=0
EndChar

StartChar: acircumflex
Encoding: 226 226 144
Width: 500
Flags: MW
HStem: -11 22<174.5 221.5 174.5 225> -6 31<405.5 411.5> 288 90 426 22<194 234.5> 516 21G<111 111 389 389> 672 20G<250 250>
VStem: 32 77<71 117> 316 69<140 240 240 240 261 275> 458 25<89 145>
LayerCount: 2
Fore
SplineSet
483 89 m 2x7380
 483 8 422 -6 401 -6 c 0x4080
 354 -6 327 36 323 76 c 1
 304 29 258 -11 192 -11 c 0x80
 129 -11 32 14 32 95 c 0
 32 139 57 191 132 225 c 1
 195 255 265 258 316 261 c 1
 316 298 l 2
 316 387 259 426 210 426 c 0
 178 426 129 415 102 380 c 1
 148 379 153 346 153 334 c 0
 153 308 135 288 107 288 c 0
 81 288 61 305 61 335 c 0
 61 401 130 448 212 448 c 0
 260 448 310 432 349 393 c 0
 385 356 385 317 385 275 c 2
 385 75 l 2
 385 70 389 25 422 25 c 0
 433 25 458 31 458 89 c 2
 458 145 l 1
 483 145 l 1
 483 89 l 2x7380
316 140 m 2
 316 240 l 1
 151 234 109 151 109 96 c 0
 109 46 150 11 199 11 c 0x83
 244 11 316 45 316 140 c 2
402 530 m 1x0c
 389 516 l 1
 250 624 l 1
 111 516 l 1
 98 530 l 1
 250 692 l 1
 402 530 l 1x0c
EndSplineSet
EndChar

StartChar: Acircumflexacute
Encoding: 7844 7844 145
Width: 750
Flags: MW
HStem: 0 31<32 32> 228 31<233 458 233 469 222 458> 696 20G<351 383 367 398> 736 21G<234 234 514 514> 1032 20G<437 454>
LayerCount: 2
Fore
SplineSet
717 0 m 1
 586 3 l 2
 548 3 478 3 442 0 c 1
 442 31 l 1
 469 31 525 31 525 61 c 0
 525 65 523 71 522 75 c 2
 469 228 l 1
 222 228 l 1
 176 97 l 2
 175 95 174 85 174 82 c 0
 174 56 199 31 249 31 c 1
 249 0 l 1
 134 3 l 1
 32 0 l 1
 32 31 l 1
 86 32 126 47 144 98 c 2
 351 696 l 2
 356 710 359 716 375 716 c 0
 391 716 393 709 398 696 c 2
 614 71 l 2
 625 38 639 31 699 31 c 2
 717 31 l 1
 717 0 l 1
458 259 m 1
 345 584 l 1
 233 259 l 1
 458 259 l 1
526 752 m 1x18
 514 736 l 1
 374 802 l 1
 234 736 l 1
 224 752 l 1
 375 869 l 1
 526 752 l 1x18
478 1010 m 0
 476 998 467 988 456 983 c 2
 286 889 l 1
 272 910 l 1
 417 1040 l 2
 421 1044 431 1052 443 1052 c 0
 465 1052 482 1032 478 1010 c 0
EndSplineSet
Position2: "'cpsp' Capital Spacing lookup 0 subtable" dx=7 dy=0 dh=14 dv=0
EndChar

StartChar: acircumflexacute
Encoding: 7845 7845 146
Width: 500
Flags: MW
HStem: -11 22<174.5 221.5 174.5 225> -6 31<405.5 411.5> 288 90 426 22<194 234.5> 516 21G<109 109 389 389> 812 20G<312 329>
VStem: 32 77<71 117> 316 69<140 240 240 240 261 275> 458 25<89 145>
LayerCount: 2
Fore
SplineSet
483 89 m 2x7380
 483 8 422 -6 401 -6 c 0x4080
 354 -6 327 36 323 76 c 1
 304 29 258 -11 192 -11 c 0x80
 129 -11 32 14 32 95 c 0
 32 139 57 191 132 225 c 1
 195 255 265 258 316 261 c 1
 316 298 l 2
 316 387 259 426 210 426 c 0
 178 426 129 415 102 380 c 1
 148 379 153 346 153 334 c 0
 153 308 135 288 107 288 c 0
 81 288 61 305 61 335 c 0
 61 401 130 448 212 448 c 0
 260 448 310 432 349 393 c 0
 385 356 385 317 385 275 c 2
 385 75 l 2
 385 70 389 25 422 25 c 0
 433 25 458 31 458 89 c 2
 458 145 l 1
 483 145 l 1
 483 89 l 2x7380
316 140 m 2
 316 240 l 1
 151 234 109 151 109 96 c 0
 109 46 150 11 199 11 c 0x83
 244 11 316 45 316 140 c 2
401 532 m 1x0e
 389 516 l 1
 249 582 l 1
 109 516 l 1
 99 532 l 1
 250 649 l 1
 401 532 l 1x0e
353 790 m 0
 351 778 342 768 331 763 c 2
 161 669 l 1
 147 690 l 1
 292 820 l 2
 296 824 306 832 318 832 c 0
 340 832 357 812 353 790 c 0
EndSplineSet
EndChar

StartChar: Acircumflexdotbelow
Encoding: 7852 7852 147
Width: 750
Flags: MW
HStem: -200 106<359 390 358 391> 0 31<32 32> 228 31<233 458 233 469 222 458> 696 20G<351 383 367 398> 736 21G<234 234 514 514> 849 20G<375 375>
VStem: 321 107<-159.5 -134.5>
LayerCount: 2
Fore
SplineSet
717 0 m 1
 586 3 l 2
 548 3 478 3 442 0 c 1
 442 31 l 1
 469 31 525 31 525 61 c 0
 525 65 523 71 522 75 c 2
 469 228 l 1
 222 228 l 1
 176 97 l 2
 175 95 174 85 174 82 c 0
 174 56 199 31 249 31 c 1
 249 0 l 1
 134 3 l 1
 32 0 l 1
 32 31 l 1
 86 32 126 47 144 98 c 2
 351 696 l 2
 356 710 359 716 375 716 c 0
 391 716 393 709 398 696 c 2
 614 71 l 2
 625 38 639 31 699 31 c 2
 717 31 l 1
 717 0 l 1
458 259 m 1
 345 584 l 1
 233 259 l 1
 458 259 l 1
526 752 m 1
 514 736 l 1
 374 802 l 1
 234 736 l 1
 224 752 l 1
 375 869 l 1
 526 752 l 1
428 -147 m 0x82
 428 -172 408 -200 374 -200 c 0
 344 -200 321 -174 321 -147 c 0
 321 -122 341 -94 375 -94 c 0
 405 -94 428 -120 428 -147 c 0x82
EndSplineSet
Position2: "'cpsp' Capital Spacing lookup 0 subtable" dx=7 dy=0 dh=14 dv=0
EndChar

StartChar: acircumflexdotbelow
Encoding: 7853 7853 148
Width: 500
Flags: MW
HStem: -200 106<234 265 233 266> -11 22<174.5 221.5 174.5 225> -6 31<405.5 411.5> 288 90 426 22<194 234.5> 516 21G<111 111 389 389> 672 20G<250 250>
VStem: 32 77<71 117> 196 107<-159.5 -134.5> 316 69<140 240 240 240 261 275> 458 25<89 145>
LayerCount: 2
Fore
SplineSet
483 89 m 2x3960
 483 8 422 -6 401 -6 c 0x2020
 354 -6 327 36 323 76 c 1
 304 29 258 -11 192 -11 c 0x40
 129 -11 32 14 32 95 c 0
 32 139 57 191 132 225 c 1
 195 255 265 258 316 261 c 1
 316 298 l 2
 316 387 259 426 210 426 c 0
 178 426 129 415 102 380 c 1
 148 379 153 346 153 334 c 0
 153 308 135 288 107 288 c 0
 81 288 61 305 61 335 c 0
 61 401 130 448 212 448 c 0
 260 448 310 432 349 393 c 0
 385 356 385 317 385 275 c 2
 385 75 l 2
 385 70 389 25 422 25 c 0
 433 25 458 31 458 89 c 2
 458 145 l 1
 483 145 l 1
 483 89 l 2x3960
316 140 m 2
 316 240 l 1
 151 234 109 151 109 96 c 0
 109 46 150 11 199 11 c 0x4740
 244 11 316 45 316 140 c 2
402 530 m 1
 389 516 l 1
 250 624 l 1
 111 516 l 1
 98 530 l 1
 250 692 l 1
 402 530 l 1
303 -147 m 0x8080
 303 -172 283 -200 249 -200 c 0
 219 -200 196 -174 196 -147 c 0
 196 -122 216 -94 250 -94 c 0
 280 -94 303 -120 303 -147 c 0x8080
EndSplineSet
EndChar

StartChar: Acircumflexgrave
Encoding: 7846 7846 149
Width: 750
Flags: MW
HStem: 0 31<32 32> 228 31<233 458 233 469 222 458> 696 20G<351 383 367 398> 736 21G<234 234 514 514> 849 20G<375 375>
LayerCount: 2
Fore
SplineSet
717 0 m 1
 586 3 l 2
 548 3 478 3 442 0 c 1
 442 31 l 1
 469 31 525 31 525 61 c 0
 525 65 523 71 522 75 c 2
 469 228 l 1
 222 228 l 1
 176 97 l 2
 175 95 174 85 174 82 c 0
 174 56 199 31 249 31 c 1
 249 0 l 1
 134 3 l 1
 32 0 l 1
 32 31 l 1
 86 32 126 47 144 98 c 2
 351 696 l 2
 356 710 359 716 375 716 c 0
 391 716 393 709 398 696 c 2
 614 71 l 2
 625 38 639 31 699 31 c 2
 717 31 l 1
 717 0 l 1
458 259 m 1
 345 584 l 1
 233 259 l 1
 458 259 l 1
526 752 m 1x18
 514 736 l 1
 374 802 l 1
 234 736 l 1
 224 752 l 1
 375 869 l 1
 526 752 l 1x18
478 910 m 1
 333 1040 l 2
 329 1044 319 1052 307 1052 c 0
 285 1052 268 1032 272 1010 c 0
 274 998 283 988 294 983 c 2
 464 889 l 1
 478 910 l 1
EndSplineSet
Position2: "'cpsp' Capital Spacing lookup 0 subtable" dx=7 dy=0 dh=14 dv=0
EndChar

StartChar: acircumflexgrave
Encoding: 7847 7847 150
Width: 500
Flags: MW
HStem: -11 22<174.5 221.5 174.5 225> -6 31<405.5 411.5> 288 90 426 22<194 234.5> 516 21G<109 109 389 389> 629 20G<250 250>
VStem: 32 77<71 117> 316 69<140 240 240 240 261 275> 458 25<89 145>
LayerCount: 2
Fore
SplineSet
483 89 m 2x7380
 483 8 422 -6 401 -6 c 0x4080
 354 -6 327 36 323 76 c 1
 304 29 258 -11 192 -11 c 0x80
 129 -11 32 14 32 95 c 0
 32 139 57 191 132 225 c 1
 195 255 265 258 316 261 c 1
 316 298 l 2
 316 387 259 426 210 426 c 0
 178 426 129 415 102 380 c 1
 148 379 153 346 153 334 c 0
 153 308 135 288 107 288 c 0
 81 288 61 305 61 335 c 0
 61 401 130 448 212 448 c 0
 260 448 310 432 349 393 c 0
 385 356 385 317 385 275 c 2
 385 75 l 2
 385 70 389 25 422 25 c 0
 433 25 458 31 458 89 c 2
 458 145 l 1
 483 145 l 1
 483 89 l 2x7380
316 140 m 2
 316 240 l 1
 151 234 109 151 109 96 c 0
 109 46 150 11 199 11 c 0x83
 244 11 316 45 316 140 c 2
401 532 m 1x0e
 389 516 l 1
 249 582 l 1
 109 516 l 1
 99 532 l 1
 250 649 l 1
 401 532 l 1x0e
353 690 m 1
 208 820 l 2
 204 824 194 832 182 832 c 0
 160 832 143 812 147 790 c 0
 149 778 158 768 169 763 c 2
 339 669 l 1
 353 690 l 1
EndSplineSet
EndChar

StartChar: Acircumflexhookabove
Encoding: 7848 7848 151
Width: 750
Flags: MW
HStem: 0 31<32 32> 228 31<233 458 233 469 222 458> 696 20G<351 383 367 398> 736 21G<234 234 514 514> 1058 20G<441.5 479.5>
LayerCount: 2
Fore
SplineSet
717 0 m 1
 586 3 l 2
 548 3 478 3 442 0 c 1
 442 31 l 1
 469 31 525 31 525 61 c 0
 525 65 523 71 522 75 c 2
 469 228 l 1
 222 228 l 1
 176 97 l 2
 175 95 174 85 174 82 c 0
 174 56 199 31 249 31 c 1
 249 0 l 1
 134 3 l 1
 32 0 l 1
 32 31 l 1
 86 32 126 47 144 98 c 2
 351 696 l 2
 356 710 359 716 375 716 c 0
 391 716 393 709 398 696 c 2
 614 71 l 2
 625 38 639 31 699 31 c 2
 717 31 l 1
 717 0 l 1
458 259 m 1
 345 584 l 1
 233 259 l 1
 458 259 l 1
526 752 m 1x18
 514 736 l 1
 374 802 l 1
 234 736 l 1
 224 752 l 1
 375 869 l 1
 526 752 l 1x18
569 1011 m 0
 569 992 557 976 539 968 c 0
 499 948 475 926 475 898 c 2
 475 879 l 2
 475 873 471 869 465 869 c 0
 460 869 455 873 455 879 c 2
 455 898 l 2
 455 931 475 961 503 984 c 0
 511 990 515 1000 515 1011 c 0
 515 1030 514 1040 507 1046 c 0
 496 1056 480 1059 465 1059 c 0
 442 1059 422 1052 409 1041 c 1
 423 1039 434 1028 434 1011 c 0
 434 993 420 982 405 982 c 0
 389 982 375 993 375 1012 c 0
 375 1053 418 1078 465 1078 c 0
 494 1078 519 1074 540 1062 c 0
 558 1051 569 1032 569 1011 c 0
EndSplineSet
Position2: "'cpsp' Capital Spacing lookup 0 subtable" dx=7 dy=0 dh=14 dv=0
EndChar

StartChar: acircumflexhookabove
Encoding: 7849 7849 152
Width: 500
Flags: MW
HStem: -11 22<174.5 221.5 174.5 225> -6 31<405.5 411.5> 288 90 426 22<194 234.5> 516 21G<109 109 389 389> 838 20G<316.5 354.5>
VStem: 32 77<71 117> 316 69<140 240 240 240 261 275> 458 25<89 145>
LayerCount: 2
Fore
SplineSet
483 89 m 2x7380
 483 8 422 -6 401 -6 c 0x4080
 354 -6 327 36 323 76 c 1
 304 29 258 -11 192 -11 c 0x80
 129 -11 32 14 32 95 c 0
 32 139 57 191 132 225 c 1
 195 255 265 258 316 261 c 1
 316 298 l 2
 316 387 259 426 210 426 c 0
 178 426 129 415 102 380 c 1
 148 379 153 346 153 334 c 0
 153 308 135 288 107 288 c 0
 81 288 61 305 61 335 c 0
 61 401 130 448 212 448 c 0
 260 448 310 432 349 393 c 0
 385 356 385 317 385 275 c 2
 385 75 l 2
 385 70 389 25 422 25 c 0
 433 25 458 31 458 89 c 2
 458 145 l 1
 483 145 l 1
 483 89 l 2x7380
316 140 m 2
 316 240 l 1
 151 234 109 151 109 96 c 0
 109 46 150 11 199 11 c 0x83
 244 11 316 45 316 140 c 2
401 532 m 1x0e
 389 516 l 1
 249 582 l 1
 109 516 l 1
 99 532 l 1
 250 649 l 1
 401 532 l 1x0e
444 791 m 0
 444 772 432 756 414 748 c 0
 374 728 350 706 350 678 c 2
 350 659 l 2
 350 653 346 649 340 649 c 0
 335 649 330 653 330 659 c 2
 330 678 l 2
 330 711 350 741 378 764 c 0
 386 770 390 780 390 791 c 0
 390 810 389 820 382 826 c 0
 371 836 355 839 340 839 c 0
 317 839 297 832 284 821 c 1
 298 819 309 808 309 791 c 0
 309 773 295 762 280 762 c 0
 264 762 250 773 250 792 c 0
 250 833 293 858 340 858 c 0
 369 858 394 854 415 842 c 0
 433 831 444 812 444 791 c 0
EndSplineSet
EndChar

StartChar: Acircumflextilde
Encoding: 7850 7850 153
Width: 750
Flags: MW
HStem: 0 31<32 32> 228 31<233 458 233 469 222 458> 696 20G<351 383 367 398> 736 21G<234 234 514 514> 909 45<432.5 453> 957 45<298 318.5>
LayerCount: 2
Fore
SplineSet
717 0 m 1
 586 3 l 2
 548 3 478 3 442 0 c 1
 442 31 l 1
 469 31 525 31 525 61 c 0
 525 65 523 71 522 75 c 2
 469 228 l 1
 222 228 l 1
 176 97 l 2
 175 95 174 85 174 82 c 0
 174 56 199 31 249 31 c 1
 249 0 l 1
 134 3 l 1
 32 0 l 1
 32 31 l 1
 86 32 126 47 144 98 c 2
 351 696 l 2
 356 710 359 716 375 716 c 0
 391 716 393 709 398 696 c 2
 614 71 l 2
 625 38 639 31 699 31 c 2
 717 31 l 1
 717 0 l 1
458 259 m 1
 345 584 l 1
 233 259 l 1
 458 259 l 1
526 752 m 1x1c
 514 736 l 1
 374 802 l 1
 234 736 l 1
 224 752 l 1
 375 869 l 1
 526 752 l 1x1c
542 987 m 1
 491 931 472 909 434 909 c 0
 417 909 399 916 372 932 c 0
 355 942 330 957 307 957 c 0
 263 957 225 909 225 909 c 1
 209 924 l 1
 260 980 279 1002 317 1002 c 0
 334 1002 352 995 379 979 c 0
 396 969 421 954 444 954 c 0
 488 954 526 1002 526 1002 c 1
 542 987 l 1
EndSplineSet
Position2: "'cpsp' Capital Spacing lookup 0 subtable" dx=7 dy=0 dh=14 dv=0
EndChar

StartChar: acircumflextilde
Encoding: 7851 7851 154
Width: 500
Flags: MW
HStem: -11 22<174.5 221.5 174.5 225> -6 31<405.5 411.5> 288 90 426 22<194 234.5> 516 21G<109 109 389 389> 689 45<307.5 328> 737 45<173 193.5>
VStem: 32 77<71 117> 316 69<140 240 240 240 261 275> 458 25<89 145>
LayerCount: 2
Fore
SplineSet
483 89 m 2x71c0
 483 8 422 -6 401 -6 c 0x4040
 354 -6 327 36 323 76 c 1
 304 29 258 -11 192 -11 c 0x80
 129 -11 32 14 32 95 c 0
 32 139 57 191 132 225 c 1
 195 255 265 258 316 261 c 1
 316 298 l 2
 316 387 259 426 210 426 c 0
 178 426 129 415 102 380 c 1
 148 379 153 346 153 334 c 0
 153 308 135 288 107 288 c 0
 81 288 61 305 61 335 c 0
 61 401 130 448 212 448 c 0
 260 448 310 432 349 393 c 0
 385 356 385 317 385 275 c 2
 385 75 l 2
 385 70 389 25 422 25 c 0
 433 25 458 31 458 89 c 2
 458 145 l 1
 483 145 l 1
 483 89 l 2x71c0
316 140 m 2
 316 240 l 1
 151 234 109 151 109 96 c 0
 109 46 150 11 199 11 c 0x8180
 244 11 316 45 316 140 c 2
401 532 m 1x0f
 389 516 l 1
 249 582 l 1
 109 516 l 1
 99 532 l 1
 250 649 l 1
 401 532 l 1x0f
417 767 m 1
 366 711 347 689 309 689 c 0
 292 689 274 696 247 712 c 0
 230 722 205 737 182 737 c 0
 138 737 100 689 100 689 c 1
 84 704 l 1
 135 760 154 782 192 782 c 0
 209 782 227 775 254 759 c 0
 271 749 296 734 319 734 c 0
 363 734 401 782 401 782 c 1
 417 767 l 1
EndSplineSet
EndChar

StartChar: acute
Encoding: 180 180 155
Width: 500
Flags: MW
HStem: 510 21G<205 205> 678 20G<330.5 347>
LayerCount: 2
Fore
SplineSet
374 662 m 0
 374 650 366 639 357 632 c 2
 205 510 l 1
 188 528 l 1
 308 681 l 2
 312 687 323 698 338 698 c 0
 356 698 374 680 374 662 c 0
EndSplineSet
EndChar

StartChar: uni0301
Encoding: 769 769 156
Width: 0
Flags: MW
HStem: 510 21G<-295 -295> 678 20G<-169.5 -153>
LayerCount: 2
Fore
SplineSet
-126 662 m 0
 -126 650 -134 639 -143 632 c 2
 -295 510 l 1
 -312 528 l 1
 -192 681 l 2
 -188 687 -177 698 -162 698 c 0
 -144 698 -126 680 -126 662 c 0
EndSplineSet
EndChar

StartChar: Adblgrave
Encoding: 512 512 157
Width: 750
Flags: MW
HStem: 0 31<32 32> 228 31<233 458 233 469 222 458> 696 20G<351 383 367 398> 746 21G<281 281 448 448> 912 20G<204.5 225.5 371.5 392.5>
LayerCount: 2
Fore
SplineSet
717 0 m 1
 586 3 l 2
 548 3 478 3 442 0 c 1
 442 31 l 1
 469 31 525 31 525 61 c 0
 525 65 523 71 522 75 c 2
 469 228 l 1
 222 228 l 1
 176 97 l 2
 175 95 174 85 174 82 c 0
 174 56 199 31 249 31 c 1
 249 0 l 1
 134 3 l 1
 32 0 l 1
 32 31 l 1
 86 32 126 47 144 98 c 2
 351 696 l 2
 356 710 359 716 375 716 c 0
 391 716 393 709 398 696 c 2
 614 71 l 2
 625 38 639 31 699 31 c 2
 717 31 l 1
 717 0 l 1
458 259 m 1
 345 584 l 1
 233 259 l 1
 458 259 l 1
469 758 m 1x18
 465 755 450 747 448 746 c 1
 356 872 l 2
 347 884 344 888 344 898 c 0
 344 916 362 932 381 932 c 0
 404 932 410 915 415 903 c 2
 469 758 l 1x18
302 758 m 1
 298 755 283 747 281 746 c 1
 189 872 l 2
 180 884 177 888 177 898 c 0
 177 916 195 932 214 932 c 0
 237 932 243 915 248 903 c 2
 302 758 l 1
EndSplineSet
Position2: "'cpsp' Capital Spacing lookup 0 subtable" dx=7 dy=0 dh=14 dv=0
EndChar

StartChar: adblgrave
Encoding: 513 513 158
Width: 500
Flags: MW
HStem: -11 22<174.5 221.5 174.5 225> -6 31<405.5 411.5> 288 90 426 22<194 234.5> 511 21G<184 184 351 351> 677 20G<107.5 128.5 274.5 295.5>
VStem: 32 77<71 117> 316 69<140 240 240 240 261 275> 458 25<89 145>
LayerCount: 2
Fore
SplineSet
483 89 m 2x7380
 483 8 422 -6 401 -6 c 0x4080
 354 -6 327 36 323 76 c 1
 304 29 258 -11 192 -11 c 0x80
 129 -11 32 14 32 95 c 0
 32 139 57 191 132 225 c 1
 195 255 265 258 316 261 c 1
 316 298 l 2
 316 387 259 426 210 426 c 0
 178 426 129 415 102 380 c 1
 148 379 153 346 153 334 c 0
 153 308 135 288 107 288 c 0
 81 288 61 305 61 335 c 0
 61 401 130 448 212 448 c 0
 260 448 310 432 349 393 c 0
 385 356 385 317 385 275 c 2
 385 75 l 2
 385 70 389 25 422 25 c 0
 433 25 458 31 458 89 c 2
 458 145 l 1
 483 145 l 1
 483 89 l 2x7380
316 140 m 2
 316 240 l 1
 151 234 109 151 109 96 c 0
 109 46 150 11 199 11 c 0x83
 244 11 316 45 316 140 c 2
372 523 m 1x0c
 368 520 353 512 351 511 c 1
 259 637 l 2
 250 649 247 653 247 663 c 0
 247 681 265 697 284 697 c 0
 307 697 313 680 318 668 c 2
 372 523 l 1x0c
205 523 m 1
 201 520 186 512 184 511 c 1
 92 637 l 2
 83 649 80 653 80 663 c 0
 80 681 98 697 117 697 c 0
 140 697 146 680 151 668 c 2
 205 523 l 1
EndSplineSet
EndChar

StartChar: Adieresis
Encoding: 196 196 159
Width: 750
Flags: MW
HStem: 0 31<32 32> 228 31<233 458 233 469 222 458> 696 20G<351 383 367 398> 736 95<256.5 284.5 255.5 285.5 466.5 494.5>
VStem: 222 97<772.5 795> 432 97<772.5 795>
LayerCount: 2
Fore
SplineSet
717 0 m 1
 586 3 l 2
 548 3 478 3 442 0 c 1
 442 31 l 1
 469 31 525 31 525 61 c 0
 525 65 523 71 522 75 c 2
 469 228 l 1
 222 228 l 1
 176 97 l 2
 175 95 174 85 174 82 c 0
 174 56 199 31 249 31 c 1
 249 0 l 1
 134 3 l 1
 32 0 l 1
 32 31 l 1
 86 32 126 47 144 98 c 2
 351 696 l 2
 356 710 359 716 375 716 c 0
 391 716 393 709 398 696 c 2
 614 71 l 2
 625 38 639 31 699 31 c 2
 717 31 l 1
 717 0 l 1
458 259 m 1
 345 584 l 1
 233 259 l 1
 458 259 l 1
319 784 m 0x1c
 319 761 301 736 270 736 c 0
 243 736 222 759 222 784 c 0
 222 806 240 831 271 831 c 0
 298 831 319 808 319 784 c 0x1c
529 784 m 0
 529 761 511 736 480 736 c 0
 453 736 432 759 432 784 c 0
 432 806 450 831 481 831 c 0
 508 831 529 808 529 784 c 0
EndSplineSet
Position2: "'cpsp' Capital Spacing lookup 0 subtable" dx=7 dy=0 dh=14 dv=0
EndChar

StartChar: adieresis
Encoding: 228 228 160
Width: 500
Flags: MW
HStem: -11 22<174.5 221.5 174.5 225> -6 31<405.5 411.5> 288 90 426 22<194 234.5> 557 95<147.5 175.5 146.5 176.5 325.5 353.5>
VStem: 32 77<71 117> 113 97<593.5 616> 291 97<593.5 616> 316 69<140 240 240 240 261 275> 458 25<89 145>
LayerCount: 2
Fore
SplineSet
483 89 m 2x76c0
 483 8 422 -6 401 -6 c 0x4040
 354 -6 327 36 323 76 c 1
 304 29 258 -11 192 -11 c 0x80
 129 -11 32 14 32 95 c 0
 32 139 57 191 132 225 c 1
 195 255 265 258 316 261 c 1
 316 298 l 2
 316 387 259 426 210 426 c 0
 178 426 129 415 102 380 c 1
 148 379 153 346 153 334 c 0
 153 308 135 288 107 288 c 0
 81 288 61 305 61 335 c 0
 61 401 130 448 212 448 c 0
 260 448 310 432 349 393 c 0
 385 356 385 317 385 275 c 2
 385 75 l 2
 385 70 389 25 422 25 c 0
 433 25 458 31 458 89 c 2
 458 145 l 1
 483 145 l 1
 483 89 l 2x76c0
316 140 m 2
 316 240 l 1
 151 234 109 151 109 96 c 0
 109 46 150 11 199 11 c 0x8480
 244 11 316 45 316 140 c 2
210 605 m 0x0b
 210 582 192 557 161 557 c 0
 134 557 113 580 113 605 c 0
 113 627 131 652 162 652 c 0
 189 652 210 629 210 605 c 0x0b
388 605 m 0
 388 582 370 557 339 557 c 0
 312 557 291 580 291 605 c 0
 291 627 309 652 340 652 c 0
 367 652 388 629 388 605 c 0
EndSplineSet
EndChar

StartChar: Adotbelow
Encoding: 7840 7840 161
Width: 750
Flags: MW
HStem: -200 106<359 390 358 391> 0 31<32 32> 228 31<233 458 233 469 222 458> 696 20G<351 383 367 398>
VStem: 321 107<-159.5 -134.5>
LayerCount: 2
Fore
SplineSet
717 0 m 1
 586 3 l 2
 548 3 478 3 442 0 c 1
 442 31 l 1
 469 31 525 31 525 61 c 0
 525 65 523 71 522 75 c 2
 469 228 l 1
 222 228 l 1
 176 97 l 2
 175 95 174 85 174 82 c 0
 174 56 199 31 249 31 c 1
 249 0 l 1
 134 3 l 1
 32 0 l 1
 32 31 l 1
 86 32 126 47 144 98 c 2
 351 696 l 2
 356 710 359 716 375 716 c 0
 391 716 393 709 398 696 c 2
 614 71 l 2
 625 38 639 31 699 31 c 2
 717 31 l 1
 717 0 l 1
458 259 m 1
 345 584 l 1
 233 259 l 1
 458 259 l 1
428 -147 m 0x88
 428 -172 408 -200 374 -200 c 0
 344 -200 321 -174 321 -147 c 0
 321 -122 341 -94 375 -94 c 0
 405 -94 428 -120 428 -147 c 0x88
EndSplineSet
Position2: "'cpsp' Capital Spacing lookup 0 subtable" dx=7 dy=0 dh=14 dv=0
EndChar

StartChar: adotbelow
Encoding: 7841 7841 162
Width: 500
Flags: MW
HStem: -200 106<234 265 233 266> -11 22<174.5 221.5 174.5 225> -6 31<405.5 411.5> 288 90 426 22<194 234.5>
VStem: 32 77<71 117> 196 107<-159.5 -134.5> 316 69<140 240 240 240 261 275> 458 25<89 145>
LayerCount: 2
Fore
SplineSet
483 89 m 2x3d80
 483 8 422 -6 401 -6 c 0x2080
 354 -6 327 36 323 76 c 1
 304 29 258 -11 192 -11 c 0x40
 129 -11 32 14 32 95 c 0
 32 139 57 191 132 225 c 1
 195 255 265 258 316 261 c 1
 316 298 l 2
 316 387 259 426 210 426 c 0
 178 426 129 415 102 380 c 1
 148 379 153 346 153 334 c 0
 153 308 135 288 107 288 c 0
 81 288 61 305 61 335 c 0
 61 401 130 448 212 448 c 0
 260 448 310 432 349 393 c 0
 385 356 385 317 385 275 c 2
 385 75 l 2
 385 70 389 25 422 25 c 0
 433 25 458 31 458 89 c 2
 458 145 l 1
 483 145 l 1
 483 89 l 2x3d80
316 140 m 2
 316 240 l 1
 151 234 109 151 109 96 c 0
 109 46 150 11 199 11 c 0x45
 244 11 316 45 316 140 c 2
303 -147 m 0x82
 303 -172 283 -200 249 -200 c 0
 219 -200 196 -174 196 -147 c 0
 196 -122 216 -94 250 -94 c 0
 280 -94 303 -120 303 -147 c 0x82
EndSplineSet
EndChar

StartChar: AE
Encoding: 198 198 163
Width: 903
Flags: MW
HStem: 0 31<32 67 339 372 548 643 643 727> 313 31<266 416 266 416 255 416 499 584> 652 31<258 303 258 818 524.5 548 548 643>
VStem: 175 83 416 83<76 313 344 604 604 612> 687 25<196 238 419 461> 821 25<458 458> 849 25<258 258>
LayerCount: 2
Fore
SplineSet
874 258 m 1
 832 0 l 1
 339 0 l 1
 339 31 l 1
 405 31 416 31 416 76 c 2
 416 313 l 1
 255 313 l 1
 180 103 l 2
 175 90 175 89 175 81 c 0
 175 56 199 32 249 31 c 1
 249 0 l 1
 134 3 l 1
 94 3 54 1 32 0 c 1
 32 31 l 1
 102 31 131 59 145 98 c 2
 343 651 l 1
 330 651 316 652 303 652 c 2
 258 652 l 1
 258 683 l 1
 818 683 l 1
 846 458 l 1
 821 458 l 1
 805 594 785 652 643 652 c 2
 548 652 l 2
 501 652 499 645 499 612 c 2
 499 344 l 1
 584 344 l 2
 678 344 687 377 687 461 c 1
 712 461 l 1
 712 196 l 1
 687 196 l 1
 687 280 678 313 584 313 c 2
 499 313 l 1
 499 71 l 2
 499 38 501 31 548 31 c 2
 643 31 l 2
 811 31 824 110 849 258 c 1
 874 258 l 1
416 344 m 1
 416 604 l 2
 416 620 416 647 375 648 c 1
 266 344 l 1
 416 344 l 1
EndSplineSet
Position2: "'cpsp' Capital Spacing lookup 0 subtable" dx=7 dy=0 dh=14 dv=0
EndChar

StartChar: ae
Encoding: 230 230 164
Width: 722
Flags: MW
HStem: -11 22<185.5 244.5> 111 21 132 22 229 21<326 326> 231 21<396 627 396 668 395 627> 288 93 426 22<202 245.5 507 572.5>
VStem: 45 77<68.5 119 68.5 140> 163 57 338 57<122.5 133.5> 627 66<252 252>
LayerCount: 2
Fore
SplineSet
693 119 m 0x4ee0
 693 100 651 -11 538 -11 c 0
 508 -11 430 -3 371 78 c 1
 347 29 285 -11 204 -11 c 0
 137 -11 45 13 45 92 c 0
 45 188 164 250 326 250 c 1x9120
 326 298 l 2
 326 385 271 426 220 426 c 0
 184 426 137 412 112 380 c 1
 158 379 163 346 163 334 c 0
 163 308 145 288 117 288 c 0
 91 288 71 305 71 335 c 0
 71 402 142 448 222 448 c 0
 286 448 346 419 375 371 c 1
 426 432 482 448 526 448 c 0
 635 448 693 363 693 252 c 0
 693 231 690 231 668 231 c 2
 395 231 l 1
 395 14 532 14 542 14 c 0
 604 14 650 61 665 111 c 0
 670 127 671 131 680 131 c 0
 685 131 693 129 693 119 c 0x4ee0
627 252 m 1
 625 291 620 426 525 426 c 0
 489 426 406 398 396 252 c 1x8b20
 627 252 l 1
338 132 m 0
 338 135 338 143 335 154 c 0
 326 185 326 205 326 229 c 1x3040
 164 223 122 146 122 92 c 0
 122 45 162 11 209 11 c 0
 281 11 338 68 338 132 c 0
EndSplineSet
EndChar

StartChar: AEacute
Encoding: 508 508 165
Width: 903
Flags: MW
HStem: 0 31<32 67 339 372 548 643 643 727> 313 31<266 416 266 416 255 416 499 584> 652 31<258 303 258 818 524.5 548 548 643> 746 21G<382 396> 889 20G<547 564>
VStem: 175 83 416 83<76 313 344 604 604 612> 687 25<196 238 419 461> 821 25<458 458> 849 25<258 258>
LayerCount: 2
Fore
SplineSet
874 258 m 1
 832 0 l 1
 339 0 l 1
 339 31 l 1
 405 31 416 31 416 76 c 2
 416 313 l 1
 255 313 l 1
 180 103 l 2
 175 90 175 89 175 81 c 0
 175 56 199 32 249 31 c 1
 249 0 l 1
 134 3 l 1
 94 3 54 1 32 0 c 1
 32 31 l 1
 102 31 131 59 145 98 c 2
 343 651 l 1
 330 651 316 652 303 652 c 2
 258 652 l 1
 258 683 l 1
 818 683 l 1
 846 458 l 1
 821 458 l 1
 805 594 785 652 643 652 c 2
 548 652 l 2
 501 652 499 645 499 612 c 2
 499 344 l 1
 584 344 l 2
 678 344 687 377 687 461 c 1
 712 461 l 1
 712 196 l 1
 687 196 l 1
 687 280 678 313 584 313 c 2
 499 313 l 1
 499 71 l 2
 499 38 501 31 548 31 c 2
 643 31 l 2
 811 31 824 110 849 258 c 1
 874 258 l 1
416 344 m 1
 416 604 l 2
 416 620 416 647 375 648 c 1
 266 344 l 1
 416 344 l 1
588 867 m 0x18
 586 855 577 845 566 840 c 2
 396 746 l 1
 382 767 l 1
 527 897 l 2
 531 901 541 909 553 909 c 0
 575 909 592 889 588 867 c 0x18
EndSplineSet
Position2: "'cpsp' Capital Spacing lookup 0 subtable" dx=7 dy=0 dh=14 dv=0
EndChar

StartChar: aeacute
Encoding: 509 509 166
Width: 722
Flags: MW
HStem: -11 22<185.5 244.5> 111 21 132 22 229 21<326 326> 231 21<396 627 396 668 395 627> 288 93 426 22<202 245.5 507 572.5> 510 21G<316 316> 678 20G<441.5 458>
VStem: 45 77<68.5 119 68.5 140> 163 57 338 57<122.5 133.5> 627 66<252 252>
LayerCount: 2
Fore
SplineSet
693 119 m 0x4e38
 693 100 651 -11 538 -11 c 0
 508 -11 430 -3 371 78 c 1
 347 29 285 -11 204 -11 c 0
 137 -11 45 13 45 92 c 0
 45 188 164 250 326 250 c 1x9048
 326 298 l 2
 326 385 271 426 220 426 c 0
 184 426 137 412 112 380 c 1
 158 379 163 346 163 334 c 0
 163 308 145 288 117 288 c 0
 91 288 71 305 71 335 c 0
 71 402 142 448 222 448 c 0
 286 448 346 419 375 371 c 1
 426 432 482 448 526 448 c 0
 635 448 693 363 693 252 c 0
 693 231 690 231 668 231 c 2
 395 231 l 1
 395 14 532 14 542 14 c 0
 604 14 650 61 665 111 c 0
 670 127 671 131 680 131 c 0
 685 131 693 129 693 119 c 0x4e38
627 252 m 1
 625 291 620 426 525 426 c 0
 489 426 406 398 396 252 c 1x8a48
 627 252 l 1
338 132 m 0
 338 135 338 143 335 154 c 0
 326 185 326 205 326 229 c 1x3010
 164 223 122 146 122 92 c 0
 122 45 162 11 209 11 c 0
 281 11 338 68 338 132 c 0
485 662 m 0x0180
 485 650 477 639 468 632 c 2
 316 510 l 1
 299 528 l 1
 419 681 l 2
 423 687 434 698 449 698 c 0
 467 698 485 680 485 662 c 0x0180
EndSplineSet
EndChar

StartChar: Agrave
Encoding: 192 192 167
Width: 750
Flags: MW
HStem: 0 31<32 32> 228 31<233 458 233 469 222 458> 696 20G<351 383 367 398> 746 21G<430 444> 889 20G<262 279>
LayerCount: 2
Fore
SplineSet
717 0 m 1
 586 3 l 2
 548 3 478 3 442 0 c 1
 442 31 l 1
 469 31 525 31 525 61 c 0
 525 65 523 71 522 75 c 2
 469 228 l 1
 222 228 l 1
 176 97 l 2
 175 95 174 85 174 82 c 0
 174 56 199 31 249 31 c 1
 249 0 l 1
 134 3 l 1
 32 0 l 1
 32 31 l 1
 86 32 126 47 144 98 c 2
 351 696 l 2
 356 710 359 716 375 716 c 0
 391 716 393 709 398 696 c 2
 614 71 l 2
 625 38 639 31 699 31 c 2
 717 31 l 1
 717 0 l 1
458 259 m 1
 345 584 l 1
 233 259 l 1
 458 259 l 1
444 767 m 1x18
 430 746 l 1
 260 840 l 2
 249 845 240 855 238 867 c 0
 234 889 251 909 273 909 c 0
 285 909 295 901 299 897 c 2
 444 767 l 1x18
EndSplineSet
Position2: "'cpsp' Capital Spacing lookup 0 subtable" dx=7 dy=0 dh=14 dv=0
EndChar

StartChar: agrave
Encoding: 224 224 168
Width: 500
Flags: MW
HStem: -11 22<174.5 221.5 174.5 225> -6 31<405.5 411.5> 288 90 426 22<194 234.5> 510 21G<295 295> 678 20G<153 169.5>
VStem: 32 77<71 117> 316 69<140 240 240 240 261 275> 458 25<89 145>
LayerCount: 2
Fore
SplineSet
483 89 m 2x7380
 483 8 422 -6 401 -6 c 0x4080
 354 -6 327 36 323 76 c 1
 304 29 258 -11 192 -11 c 0x80
 129 -11 32 14 32 95 c 0
 32 139 57 191 132 225 c 1
 195 255 265 258 316 261 c 1
 316 298 l 2
 316 387 259 426 210 426 c 0
 178 426 129 415 102 380 c 1
 148 379 153 346 153 334 c 0
 153 308 135 288 107 288 c 0
 81 288 61 305 61 335 c 0
 61 401 130 448 212 448 c 0
 260 448 310 432 349 393 c 0
 385 356 385 317 385 275 c 2
 385 75 l 2
 385 70 389 25 422 25 c 0
 433 25 458 31 458 89 c 2
 458 145 l 1
 483 145 l 1
 483 89 l 2x7380
316 140 m 2
 316 240 l 1
 151 234 109 151 109 96 c 0
 109 46 150 11 199 11 c 0x83
 244 11 316 45 316 140 c 2
312 528 m 1x0c
 295 510 l 1
 143 632 l 2
 134 639 126 650 126 662 c 0
 126 680 144 698 162 698 c 0
 177 698 188 687 192 681 c 2
 312 528 l 1x0c
EndSplineSet
EndChar

StartChar: Ahookabove
Encoding: 7842 7842 169
Width: 750
Flags: MW
HStem: 0 31<32 32> 228 31<233 458 233 469 222 458> 696 20G<351 383 367 398> 758 21G<365.5 371> 947 20G<344.5 382.5>
LayerCount: 2
Fore
SplineSet
717 0 m 1
 586 3 l 2
 548 3 478 3 442 0 c 1
 442 31 l 1
 469 31 525 31 525 61 c 0
 525 65 523 71 522 75 c 2
 469 228 l 1
 222 228 l 1
 176 97 l 2
 175 95 174 85 174 82 c 0
 174 56 199 31 249 31 c 1
 249 0 l 1
 134 3 l 1
 32 0 l 1
 32 31 l 1
 86 32 126 47 144 98 c 2
 351 696 l 2
 356 710 359 716 375 716 c 0
 391 716 393 709 398 696 c 2
 614 71 l 2
 625 38 639 31 699 31 c 2
 717 31 l 1
 717 0 l 1
458 259 m 1
 345 584 l 1
 233 259 l 1
 458 259 l 1
472 900 m 0x18
 472 881 460 865 442 857 c 0
 402 837 378 815 378 787 c 2
 378 768 l 2
 378 762 374 758 368 758 c 0
 363 758 358 762 358 768 c 2
 358 787 l 2
 358 820 378 850 406 873 c 0
 414 879 418 889 418 900 c 0
 418 919 417 929 410 935 c 0
 399 945 383 948 368 948 c 0
 345 948 325 941 312 930 c 1
 326 928 337 917 337 900 c 0
 337 882 323 871 308 871 c 0
 292 871 278 882 278 901 c 0
 278 942 321 967 368 967 c 0
 397 967 422 963 443 951 c 0
 461 940 472 921 472 900 c 0x18
EndSplineSet
Position2: "'cpsp' Capital Spacing lookup 0 subtable" dx=7 dy=0 dh=14 dv=0
EndChar

StartChar: ahookabove
Encoding: 7843 7843 170
Width: 500
Flags: MW
HStem: -11 22<174.5 221.5 174.5 225> -6 31<405.5 411.5> 288 90 426 22<194 234.5> 500 21G<240.5 246> 689 20G<219.5 257.5>
VStem: 32 77<71 117> 316 69<140 240 240 240 261 275> 458 25<89 145>
LayerCount: 2
Fore
SplineSet
483 89 m 2x7380
 483 8 422 -6 401 -6 c 0x4080
 354 -6 327 36 323 76 c 1
 304 29 258 -11 192 -11 c 0x80
 129 -11 32 14 32 95 c 0
 32 139 57 191 132 225 c 1
 195 255 265 258 316 261 c 1
 316 298 l 2
 316 387 259 426 210 426 c 0
 178 426 129 415 102 380 c 1
 148 379 153 346 153 334 c 0
 153 308 135 288 107 288 c 0
 81 288 61 305 61 335 c 0
 61 401 130 448 212 448 c 0
 260 448 310 432 349 393 c 0
 385 356 385 317 385 275 c 2
 385 75 l 2
 385 70 389 25 422 25 c 0
 433 25 458 31 458 89 c 2
 458 145 l 1
 483 145 l 1
 483 89 l 2x7380
316 140 m 2
 316 240 l 1
 151 234 109 151 109 96 c 0
 109 46 150 11 199 11 c 0x83
 244 11 316 45 316 140 c 2
347 642 m 0x0c
 347 623 335 607 317 599 c 0
 277 579 253 557 253 529 c 2
 253 510 l 2
 253 504 249 500 243 500 c 0
 238 500 233 504 233 510 c 2
 233 529 l 2
 233 562 253 592 281 615 c 0
 289 621 293 631 293 642 c 0
 293 661 292 671 285 677 c 0
 274 687 258 690 243 690 c 0
 220 690 200 683 187 672 c 1
 201 670 212 659 212 642 c 0
 212 624 198 613 183 613 c 0
 167 613 153 624 153 643 c 0
 153 684 196 709 243 709 c 0
 272 709 297 705 318 693 c 0
 336 682 347 663 347 642 c 0x0c
EndSplineSet
EndChar

StartChar: Alpha
Encoding: 913 913 171
Width: 750
Flags: MW
HStem: 0 31<32 32> 228 31<233 458 233 469 222 458> 696 20G<351 383 367 398>
LayerCount: 2
Fore
SplineSet
717 0 m 1
 586 3 l 2
 548 3 478 3 442 0 c 1
 442 31 l 1
 469 31 525 31 525 61 c 0
 525 65 523 71 522 75 c 2
 469 228 l 1
 222 228 l 1
 176 97 l 2
 175 95 174 85 174 82 c 0
 174 56 199 31 249 31 c 1
 249 0 l 1
 134 3 l 1
 32 0 l 1
 32 31 l 1
 86 32 126 47 144 98 c 2
 351 696 l 2
 356 710 359 716 375 716 c 0
 391 716 393 709 398 696 c 2
 614 71 l 2
 625 38 639 31 699 31 c 2
 717 31 l 1
 717 0 l 1
458 259 m 1
 345 584 l 1
 233 259 l 1
 458 259 l 1
EndSplineSet
EndChar

StartChar: Amacron
Encoding: 256 256 172
Width: 750
Flags: MW
HStem: 0 31<32 32> 228 31<233 458 233 469 222 458> 696 20G<351 383 367 398> 756 31<195 556 195 556>
LayerCount: 2
Fore
SplineSet
717 0 m 1
 586 3 l 2
 548 3 478 3 442 0 c 1
 442 31 l 1
 469 31 525 31 525 61 c 0
 525 65 523 71 522 75 c 2
 469 228 l 1
 222 228 l 1
 176 97 l 2
 175 95 174 85 174 82 c 0
 174 56 199 31 249 31 c 1
 249 0 l 1
 134 3 l 1
 32 0 l 1
 32 31 l 1
 86 32 126 47 144 98 c 2
 351 696 l 2
 356 710 359 716 375 716 c 0
 391 716 393 709 398 696 c 2
 614 71 l 2
 625 38 639 31 699 31 c 2
 717 31 l 1
 717 0 l 1
458 259 m 1
 345 584 l 1
 233 259 l 1
 458 259 l 1
556 756 m 1x10
 195 756 l 1
 195 787 l 1
 556 787 l 1
 556 756 l 1x10
EndSplineSet
Position2: "'cpsp' Capital Spacing lookup 0 subtable" dx=7 dy=0 dh=14 dv=0
EndChar

StartChar: amacron
Encoding: 257 257 173
Width: 500
Flags: MW
HStem: -11 22<174.5 221.5 174.5 225> -6 31<405.5 411.5> 288 90 426 22<194 234.5> 589 31<70 431 70 431>
VStem: 32 77<71 117> 316 69<140 240 240 240 261 275> 458 25<89 145>
LayerCount: 2
Fore
SplineSet
483 89 m 2x77
 483 8 422 -6 401 -6 c 0x41
 354 -6 327 36 323 76 c 1
 304 29 258 -11 192 -11 c 0x80
 129 -11 32 14 32 95 c 0
 32 139 57 191 132 225 c 1
 195 255 265 258 316 261 c 1
 316 298 l 2
 316 387 259 426 210 426 c 0
 178 426 129 415 102 380 c 1
 148 379 153 346 153 334 c 0
 153 308 135 288 107 288 c 0
 81 288 61 305 61 335 c 0
 61 401 130 448 212 448 c 0
 260 448 310 432 349 393 c 0
 385 356 385 317 385 275 c 2
 385 75 l 2
 385 70 389 25 422 25 c 0
 433 25 458 31 458 89 c 2
 458 145 l 1
 483 145 l 1
 483 89 l 2x77
316 140 m 2
 316 240 l 1
 151 234 109 151 109 96 c 0
 109 46 150 11 199 11 c 0x86
 244 11 316 45 316 140 c 2
431 589 m 1x08
 70 589 l 1
 70 620 l 1
 431 620 l 1
 431 589 l 1x08
EndSplineSet
EndChar

StartChar: anglearc
Encoding: 8738 8738 174
Width: 778
Flags: MW
HStem: -83 21G<461.5 470> 563 20G<461.5 470>
VStem: 557 40<225 275>
LayerCount: 2
Fore
SplineSet
721 20 m 0
 721 6 707 -4 694 1 c 2
 558 51 l 1
 539 6 514 -37 483 -75 c 0
 479 -80 473 -83 467 -83 c 0
 456 -83 447 -74 447 -63 c 0
 447 -58 449 -54 451 -51 c 0
 480 -15 503 24 520 65 c 1
 69 231 l 2
 61 234 56 241 56 250 c 0
 56 259 61 266 69 269 c 2
 520 435 l 1
 503 476 480 515 451 551 c 0
 449 554 447 558 447 563 c 0
 447 574 456 583 467 583 c 0
 473 583 479 580 483 575 c 0
 514 537 539 494 558 449 c 1
 694 499 l 2
 707 504 721 494 721 480 c 0
 721 471 716 464 708 461 c 2
 571 411 l 1
 588 359 597 305 597 250 c 0
 597 195 588 141 571 89 c 1
 708 39 l 2
 716 36 721 29 721 20 c 0
557 250 m 0
 557 300 549 350 534 397 c 1
 134 250 l 1
 534 103 l 1
 549 150 557 200 557 250 c 0
EndSplineSet
EndChar

StartChar: angleleft
Encoding: 9001 9001 175
Width: 389
Flags: MW
HStem: -249 21G<303 318.5> 731 20G<314 319.5>
LayerCount: 2
Fore
SplineSet
333 -229 m 0
 333 -239 324 -249 313 -249 c 0
 293 -249 286 -217 280 -198 c 1
 119 224 l 2
 116 232 110 242 110 251 c 0
 110 261 117 272 120 282 c 2
 144 345 l 1
 282 705 l 2
 287 720 293 747 308 750 c 0
 310 751 314 751 314 751 c 1
 325 751 332 741 332 730 c 0
 332 727 332 724 331 722 c 0
 316 677 297 632 280 587 c 2
 164 283 l 1
 156 263 l 2
 155 259 153 255 153 251 c 0
 153 243 158 234 161 226 c 2
 181 174 l 1
 319 -187 l 1
 323 -198 l 2
 326 -207 333 -219 333 -229 c 0
EndSplineSet
EndChar

StartChar: angleright
Encoding: 9002 9002 176
Width: 389
Flags: MW
HStem: -249 21G<69.5 75 75 77> 731 20G
LayerCount: 2
Fore
SplineSet
278 251 m 0
 278 241 271 230 268 220 c 2
 244 157 l 1
 106 -205 l 1
 98 -226 l 2
 94 -236 89 -248 77 -249 c 1
 75 -249 l 2
 64 -249 55 -240 55 -229 c 0
 55 -223 58 -217 60 -212 c 2
 224 219 l 1
 232 239 l 2
 233 243 235 247 235 251 c 0
 235 260 229 270 226 278 c 2
 68 694 l 2
 63 705 56 717 55 729 c 1
 55 731 l 2
 55 740 62 748 70 750 c 0
 72 751 76 751 76 751 c 1
 96 751 104 710 108 702 c 2
 268 280 l 2
 272 271 278 261 278 251 c 0
EndSplineSet
EndChar

StartChar: Aogonek
Encoding: 260 260 177
Width: 750
Flags: MW
HStem: -211 47<598 617> 0 31<32 32> 228 31<233 458 233 469 222 458> 696 20G<351 383 367 398>
VStem: 174 48 481 48<-118 -95>
LayerCount: 2
Fore
SplineSet
717 0 m 1
 679 2 640 4 601 4 c 1
 566 -20 529 -55 529 -95 c 0
 529 -141 580 -164 616 -164 c 0
 648 -164 676 -144 693 -108 c 0
 698 -98 713 -103 710 -115 c 0
 694 -172 642 -211 592 -211 c 0
 528 -211 481 -167 481 -121 c 0
 481 -69 514 -30 562 3 c 1
 523 3 471 2 442 0 c 1
 442 31 l 1
 469 31 525 31 525 61 c 0
 525 65 523 71 522 75 c 2
 469 228 l 1
 222 228 l 1
 176 97 l 2
 175 95 174 85 174 82 c 0
 174 56 199 31 249 31 c 1
 249 0 l 1
 134 3 l 1
 32 0 l 1
 32 31 l 1
 86 32 126 47 144 98 c 2
 351 696 l 2
 356 710 359 716 375 716 c 0
 391 716 393 709 398 696 c 2
 614 71 l 2
 625 38 639 31 699 31 c 2
 717 31 l 1
 717 0 l 1
458 259 m 1
 345 584 l 1
 233 259 l 1
 458 259 l 1
EndSplineSet
Position2: "'cpsp' Capital Spacing lookup 0 subtable" dx=7 dy=0 dh=14 dv=0
EndChar

StartChar: aogonek
Encoding: 261 261 178
Width: 500
Flags: MW
HStem: -211 47<368 387> -11 22<174.5 221.5 174.5 225> -6 31<405.5 411.5> 426 22<194 234.5>
VStem: 32 77<71 117> 61 48 251 48<-118 -95> 316 69<140 240 240 240 261 275> 458 25<89 145>
LayerCount: 2
Fore
SplineSet
483 89 m 2x3580
 483 8 422 -6 401 -6 c 0x2080
 390 -6 380 -4 372 0 c 1
 337 -24 299 -55 299 -95 c 0
 299 -141 350 -164 386 -164 c 0
 418 -164 446 -144 463 -108 c 0
 468 -98 483 -103 480 -115 c 0
 464 -172 412 -211 362 -211 c 0
 298 -211 251 -167 251 -121 c 0
 251 -69 302 -15 351 15 c 1
 335 31 325 54 323 76 c 1
 304 29 258 -11 192 -11 c 0
 129 -11 32 14 32 95 c 0xca
 32 139 57 191 132 225 c 1
 195 255 265 258 316 261 c 1
 316 298 l 2
 316 387 259 426 210 426 c 0
 178 426 129 415 102 380 c 1
 148 379 153 346 153 334 c 0
 153 308 135 288 107 288 c 0
 81 288 61 305 61 335 c 0
 61 401 130 448 212 448 c 0
 260 448 310 432 349 393 c 0
 385 356 385 317 385 275 c 2
 385 75 l 2
 385 70 389 25 422 25 c 0
 433 25 458 31 458 89 c 2
 458 145 l 1
 483 145 l 1
 483 89 l 2x3580
316 140 m 2
 316 240 l 1
 151 234 109 151 109 96 c 0
 109 46 150 11 199 11 c 0x45
 244 11 316 45 316 140 c 2
EndSplineSet
EndChar

StartChar: Aring
Encoding: 197 197 179
Width: 750
Flags: MW
HStem: 0 31<32 32> 228 31<233 458 233 469 222 458> 716 30<356 394.5 356 402 367 383> 862 30<355.5 394>
VStem: 279 33<783.5 824 783.5 827> 438 33<784 824.5>
LayerCount: 2
Fore
SplineSet
717 0 m 1
 586 3 l 2
 548 3 478 3 442 0 c 1
 442 31 l 1
 469 31 525 31 525 61 c 0
 525 65 523 71 522 75 c 2
 469 228 l 1
 222 228 l 1
 176 97 l 2
 175 95 174 85 174 82 c 0
 174 56 199 31 249 31 c 1
 249 0 l 1
 134 3 l 1
 32 0 l 1
 32 31 l 1
 86 32 126 47 144 98 c 2
 351 696 l 2
 356 710 359 716 375 716 c 0
 391 716 393 709 398 696 c 2
 614 71 l 2
 625 38 639 31 699 31 c 2
 717 31 l 1
 717 0 l 1
458 259 m 1
 345 584 l 1
 233 259 l 1
 458 259 l 1
438 804 m 0x3c
 438 845 413 862 375 862 c 0
 336 862 312 844 312 804 c 0
 312 763 337 746 375 746 c 0
 414 746 438 764 438 804 c 0x3c
471 805 m 0
 471 756 430 716 374 716 c 0
 323 716 279 754 279 805 c 0
 279 849 318 892 376 892 c 0
 430 892 471 851 471 805 c 0
EndSplineSet
Position2: "'cpsp' Capital Spacing lookup 0 subtable" dx=7 dy=0 dh=14 dv=0
EndChar

StartChar: aring
Encoding: 229 229 180
Width: 500
Flags: MW
HStem: -11 22<174.5 221.5 174.5 225> -6 31<405.5 411.5> 288 90 426 22<194 234.5> 529 30<231 269.5 231 277> 675 30<230.5 269>
VStem: 32 77<71 117> 154 33<596.5 637 596.5 640> 313 33<597 637.5> 316 69<140 240 240 240 261 275> 458 25<89 145>
LayerCount: 2
Fore
SplineSet
483 89 m 2x7260
 483 8 422 -6 401 -6 c 0x4020
 354 -6 327 36 323 76 c 1
 304 29 258 -11 192 -11 c 0x80
 129 -11 32 14 32 95 c 0
 32 139 57 191 132 225 c 1
 195 255 265 258 316 261 c 1
 316 298 l 2
 316 387 259 426 210 426 c 0
 178 426 129 415 102 380 c 1
 148 379 153 346 153 334 c 0
 153 308 135 288 107 288 c 0
 81 288 61 305 61 335 c 0
 61 401 130 448 212 448 c 0
 260 448 310 432 349 393 c 0
 385 356 385 317 385 275 c 2
 385 75 l 2
 385 70 389 25 422 25 c 0
 433 25 458 31 458 89 c 2
 458 145 l 1
 483 145 l 1
 483 89 l 2x7260
316 140 m 2
 316 240 l 1
 151 234 109 151 109 96 c 0
 109 46 150 11 199 11 c 0x8240
 244 11 316 45 316 140 c 2
313 617 m 0x0d80
 313 658 288 675 250 675 c 0
 211 675 187 657 187 617 c 0
 187 576 212 559 250 559 c 0
 289 559 313 577 313 617 c 0x0d80
346 618 m 0
 346 569 305 529 249 529 c 0
 198 529 154 567 154 618 c 0
 154 662 193 705 251 705 c 0
 305 705 346 664 346 618 c 0
EndSplineSet
EndChar

StartChar: Aringacute
Encoding: 506 506 181
Width: 750
Flags: MW
HStem: 0 31<32 32> 228 31<233 458 233 469 222 458> 716 30<356 394.5 356 402 367 383> 862 30<355.5 394> 1033 30 1055 20G<437 454>
VStem: 279 33<783.5 824 783.5 827> 438 33<784 824.5>
LayerCount: 2
Fore
SplineSet
717 0 m 1xe0
 586 3 l 2
 548 3 478 3 442 0 c 1
 442 31 l 1
 469 31 525 31 525 61 c 0
 525 65 523 71 522 75 c 2
 469 228 l 1
 222 228 l 1
 176 97 l 2
 175 95 174 85 174 82 c 0
 174 56 199 31 249 31 c 1
 249 0 l 1
 134 3 l 1
 32 0 l 1
 32 31 l 1
 86 32 126 47 144 98 c 2
 351 696 l 2
 356 710 359 716 375 716 c 0
 391 716 393 709 398 696 c 2
 614 71 l 2
 625 38 639 31 699 31 c 2
 717 31 l 1
 717 0 l 1xe0
458 259 m 1
 345 584 l 1
 233 259 l 1
 458 259 l 1
438 804 m 0x37
 438 845 413 862 375 862 c 0
 336 862 312 844 312 804 c 0
 312 763 337 746 375 746 c 0
 414 746 438 764 438 804 c 0x37
471 805 m 0
 471 756 430 716 374 716 c 0
 323 716 279 754 279 805 c 0
 279 849 318 892 376 892 c 0
 430 892 471 851 471 805 c 0
478 1033 m 0
 476 1021 467 1011 456 1006 c 2
 286 912 l 1
 272 933 l 1
 417 1063 l 2x08
 421 1067 431 1075 443 1075 c 0
 465 1075 482 1055 478 1033 c 0
EndSplineSet
Position2: "'cpsp' Capital Spacing lookup 0 subtable" dx=7 dy=0 dh=14 dv=0
EndChar

StartChar: aringacute
Encoding: 507 507 182
Width: 500
Flags: MW
HStem: -11 22<174.5 221.5 174.5 225> -6 31<405.5 411.5> 288 90 426 22<194 234.5> 529 30<231 269.5 231 277> 675 30<230.5 269> 846 30 868 20G<312 329>
VStem: 32 77<71 117> 154 33<596.5 637 596.5 640> 313 33<597 637.5> 316 69<140 240 240 240 261 275> 458 25<89 145>
LayerCount: 2
Fore
SplineSet
483 89 m 2x7098
 483 8 422 -6 401 -6 c 0x4008
 354 -6 327 36 323 76 c 1
 304 29 258 -11 192 -11 c 0x80
 129 -11 32 14 32 95 c 0
 32 139 57 191 132 225 c 1
 195 255 265 258 316 261 c 1
 316 298 l 2
 316 387 259 426 210 426 c 0
 178 426 129 415 102 380 c 1
 148 379 153 346 153 334 c 0
 153 308 135 288 107 288 c 0
 81 288 61 305 61 335 c 0
 61 401 130 448 212 448 c 0
 260 448 310 432 349 393 c 0
 385 356 385 317 385 275 c 2
 385 75 l 2
 385 70 389 25 422 25 c 0
 433 25 458 31 458 89 c 2
 458 145 l 1
 483 145 l 1
 483 89 l 2x7098
316 140 m 2
 316 240 l 1
 151 234 109 151 109 96 c 0
 109 46 150 11 199 11 c 0x8090
 244 11 316 45 316 140 c 2
313 617 m 0x0d60
 313 658 288 675 250 675 c 0
 211 675 187 657 187 617 c 0
 187 576 212 559 250 559 c 0
 289 559 313 577 313 617 c 0x0d60
346 618 m 0
 346 569 305 529 249 529 c 0
 198 529 154 567 154 618 c 0
 154 662 193 705 251 705 c 0
 305 705 346 664 346 618 c 0
353 846 m 0
 351 834 342 824 331 819 c 2
 161 725 l 1
 147 746 l 1
 292 876 l 2x02
 296 880 306 888 318 888 c 0
 340 888 357 868 353 846 c 0
EndSplineSet
EndChar

StartChar: uni2193
Encoding: 8595 8595 183
Width: 500
Flags: MW
VStem: 230 40<-62 674 -62 687.5>
LayerCount: 2
Fore
SplineSet
472 36 m 1
 359 10 272 -80 250 -194 c 1
 228 -80 141 10 28 36 c 1
 28 76 l 1
 112 57 183 7 230 -62 c 1
 230 674 l 2
 230 701 270 701 270 674 c 2
 270 -62 l 1
 317 7 388 57 472 76 c 1
 472 36 l 1
EndSplineSet
EndChar

StartChar: uni2190
Encoding: 8592 8592 184
Width: 1000
Flags: MW
HStem: 1 21G<257 297 257 257> 230 41 231 41 481 20G<257 297 297 297>
LayerCount: 2
Fore
SplineSet
944 251 m 0x40
 944 233 929 231 917 231 c 2x20
 162 230 l 1x40
 169 226 174 221 180 215 c 0
 239 166 285 81 297 1 c 1
 257 1 l 1
 237 102 179 182 87 236 c 0
 77 241 66 245 56 251 c 1
 66 257 77 261 87 266 c 0
 179 320 237 400 257 501 c 1
 297 501 l 1
 287 436 256 372 214 322 c 0
 198 303 179 282 162 272 c 1xb0
 917 271 l 2
 929 271 944 269 944 251 c 0x40
EndSplineSet
EndChar

StartChar: uni2192
Encoding: 8594 8594 185
Width: 1000
Flags: MW
HStem: 1 21G<702 742 702 702> 230 41 231 41 481 20G<702 742 742 742>
LayerCount: 2
Fore
SplineSet
943 251 m 1x30
 933 245 922 241 912 236 c 0
 820 182 762 102 742 1 c 1
 702 1 l 1
 712 66 743 130 785 180 c 0
 801 199 820 220 837 230 c 1xc0
 82 231 l 2x20
 70 231 55 233 55 251 c 0
 55 269 70 271 82 271 c 2x40
 837 272 l 1
 830 276 825 281 819 287 c 0
 760 336 714 421 702 501 c 1
 742 501 l 1
 762 400 820 320 912 266 c 0
 922 261 933 257 943 251 c 1x30
EndSplineSet
EndChar

StartChar: uni2191
Encoding: 8593 8593 186
Width: 500
Flags: MW
VStem: 230 40<-174 562>
LayerCount: 2
Fore
SplineSet
472 424 m 1
 388 443 317 493 270 562 c 1
 270 -174 l 2
 270 -201 230 -201 230 -174 c 2
 230 562 l 1
 183 493 112 443 28 424 c 1
 28 464 l 1
 141 490 228 580 250 694 c 1
 272 580 359 490 472 464 c 1
 472 424 l 1
EndSplineSet
EndChar

StartChar: asterisk.math
Encoding: 8727 8727 187
Width: 500
Flags: MW
HStem: 36 21G<242.5 250 250 252> 446 20G<250 252 252 260.5>
VStem: 222 53<83 83 83 91> 237 197<150.5 229 150.5 300.5>
LayerCount: 2
Fore
SplineSet
434 158 m 0x10
 434 143 421 130 406 130 c 0
 392 130 380 142 369 150 c 2
 262 229 l 1
 262 211 265 192 267 174 c 2
 275 83 l 2
 276 77 277 71 277 65 c 0
 277 52 267 36 252 36 c 2
 250 36 l 2
 235 36 222 48 222 64 c 0xa0
 222 118 237 175 237 229 c 1
 130 150 l 2
 119 142 107 130 93 130 c 0
 77 130 66 144 66 158 c 0
 66 179 86 185 101 192 c 2
 140 210 l 2
 167 223 196 241 225 250 c 1
 225 252 l 1
 196 261 167 279 140 292 c 2
 101 310 l 2
 86 317 66 323 66 344 c 0
 66 358 77 372 93 372 c 0
 107 372 119 360 130 352 c 2
 237 273 l 1x10
 237 328 222 382 222 438 c 0
 222 454 235 466 250 466 c 2
 252 466 l 2
 269 466 277 448 277 437 c 0
 277 431 276 425 275 419 c 2x60
 267 328 l 2
 265 310 262 291 262 273 c 1
 369 352 l 2
 380 360 392 372 406 372 c 0
 421 372 434 359 434 344 c 0
 434 324 412 317 398 310 c 2
 359 292 l 2
 332 279 303 261 274 252 c 1
 274 250 l 1
 303 241 332 223 359 210 c 2
 398 192 l 2
 412 185 434 178 434 158 c 0x10
EndSplineSet
EndChar

StartChar: Atilde
Encoding: 195 195 188
Width: 750
Flags: MW
HStem: 0 31<32 32> 228 31<233 458 233 469 222 458> 696 20G<351 383 367 398> 736 45<432.5 453> 784 45<298 318.5>
LayerCount: 2
Fore
SplineSet
717 0 m 1
 586 3 l 2
 548 3 478 3 442 0 c 1
 442 31 l 1
 469 31 525 31 525 61 c 0
 525 65 523 71 522 75 c 2
 469 228 l 1
 222 228 l 1
 176 97 l 2
 175 95 174 85 174 82 c 0
 174 56 199 31 249 31 c 1
 249 0 l 1
 134 3 l 1
 32 0 l 1
 32 31 l 1
 86 32 126 47 144 98 c 2
 351 696 l 2
 356 710 359 716 375 716 c 0
 391 716 393 709 398 696 c 2
 614 71 l 2
 625 38 639 31 699 31 c 2
 717 31 l 1
 717 0 l 1
458 259 m 1
 345 584 l 1
 233 259 l 1
 458 259 l 1
542 814 m 1x18
 491 758 472 736 434 736 c 0
 417 736 399 743 372 759 c 0
 355 769 330 784 307 784 c 0
 263 784 225 736 225 736 c 1
 209 751 l 1
 260 807 279 829 317 829 c 0
 334 829 352 822 379 806 c 0
 396 796 421 781 444 781 c 0
 488 781 526 829 526 829 c 1
 542 814 l 1x18
EndSplineSet
Position2: "'cpsp' Capital Spacing lookup 0 subtable" dx=7 dy=0 dh=14 dv=0
EndChar

StartChar: atilde
Encoding: 227 227 189
Width: 500
Flags: MW
HStem: -11 22<174.5 221.5 174.5 225> -6 31<405.5 411.5> 288 90 426 22<194 234.5> 558 45<307.5 328> 606 45<173 193.5>
VStem: 32 77<71 117> 316 69<140 240 240 240 261 275> 458 25<89 145>
LayerCount: 2
Fore
SplineSet
483 89 m 2x7380
 483 8 422 -6 401 -6 c 0x4080
 354 -6 327 36 323 76 c 1
 304 29 258 -11 192 -11 c 0x80
 129 -11 32 14 32 95 c 0
 32 139 57 191 132 225 c 1
 195 255 265 258 316 261 c 1
 316 298 l 2
 316 387 259 426 210 426 c 0
 178 426 129 415 102 380 c 1
 148 379 153 346 153 334 c 0
 153 308 135 288 107 288 c 0
 81 288 61 305 61 335 c 0
 61 401 130 448 212 448 c 0
 260 448 310 432 349 393 c 0
 385 356 385 317 385 275 c 2
 385 75 l 2
 385 70 389 25 422 25 c 0
 433 25 458 31 458 89 c 2
 458 145 l 1
 483 145 l 1
 483 89 l 2x7380
316 140 m 2
 316 240 l 1
 151 234 109 151 109 96 c 0
 109 46 150 11 199 11 c 0x83
 244 11 316 45 316 140 c 2
417 636 m 1x0c
 366 580 347 558 309 558 c 0
 292 558 274 565 247 581 c 0
 230 591 205 606 182 606 c 0
 138 606 100 558 100 558 c 1
 84 573 l 1
 135 629 154 651 192 651 c 0
 209 651 227 644 254 628 c 0
 271 618 296 603 319 603 c 0
 363 603 401 651 401 651 c 1
 417 636 l 1x0c
EndSplineSet
EndChar

StartChar: baht
Encoding: 3647 3647 190
Width: 708
Flags: MW
HStem: 0 31<36 60 60 98.5 271 331 36 60 361 396 396 428> 344 22<222 331 222 331 361 367 367 410> 652 31<36 60 36 331 247.5 271 271 331 36 361 361 395>
VStem: 139 83<78 344 366 605 605 612> 331 97<-30 0 0 0 0 344> 361 97 527 97<482 540.5> 551 100<148.5 217.5>
LayerCount: 2
Fore
SplineSet
651 183 m 0x26
 651 89 561 0 428 0 c 2xc9
 361 0 l 1
 361 -30 l 2x84
 361 -38 354 -45 346 -45 c 0
 338 -45 331 -38 331 -30 c 2
 331 0 l 1
 36 0 l 1
 36 31 l 1
 60 31 l 2
 137 31 139 42 139 78 c 2
 139 605 l 2
 139 641 137 652 60 652 c 2
 36 652 l 1
 36 683 l 1
 331 683 l 1
 331 713 l 2xb8
 331 722 338 728 346 728 c 0
 354 728 361 722 361 713 c 2
 361 683 l 1
 402 683 l 2
 532 683 624 601 624 514 c 0
 624 440 555 376 458 357 c 1
 569 345 651 270 651 183 c 0x26
527 514 m 0
 527 567 492 652 395 652 c 2
 361 652 l 1
 361 366 l 1x76
 367 366 l 2
 478 366 527 450 527 514 c 0
331 366 m 1
 331 652 l 1xe8
 271 652 l 2
 224 652 222 645 222 612 c 2
 222 366 l 1
 331 366 l 1
551 184 m 0
 551 251 509 344 410 344 c 2
 361 344 l 1
 361 31 l 1xd5
 396 31 l 2
 499 31 551 113 551 184 c 0
331 31 m 1
 331 344 l 1xc8
 222 344 l 1
 222 71 l 2
 222 38 224 31 271 31 c 2
 331 31 l 1
EndSplineSet
EndChar

StartChar: Beta
Encoding: 914 914 191
Width: 708
Flags: MW
HStem: 0 31<36 60 60 98.5 271 396 396 428 36 60> 344 22<222 367 367 410 222 367> 652 31<36 60 36 402 247.5 271 271 395>
VStem: 139 83<78 344 366 605 605 612> 527 97<482 540.5> 551 100<148.5 217.5>
LayerCount: 2
Fore
SplineSet
651 183 m 0xb8
 651 89 561 0 428 0 c 2
 36 0 l 1
 36 31 l 1
 60 31 l 2
 137 31 139 42 139 78 c 2
 139 605 l 2
 139 641 137 652 60 652 c 2
 36 652 l 1
 36 683 l 1
 402 683 l 2
 532 683 624 601 624 514 c 0
 624 440 555 376 458 357 c 1
 569 345 651 270 651 183 c 0xb8
527 514 m 0
 527 567 492 652 395 652 c 2
 271 652 l 2
 224 652 222 645 222 612 c 2
 222 366 l 1
 367 366 l 2
 478 366 527 450 527 514 c 0
551 184 m 0
 551 251 509 344 410 344 c 2
 222 344 l 1
 222 71 l 2
 222 38 224 31 271 31 c 2
 396 31 l 2
 499 31 551 113 551 184 c 0
EndSplineSet
EndChar

StartChar: blanksymbol
Encoding: 9250 9250 192
Width: 556
Flags: MW
HStem: -11 22<271.5 321 271.5 357.5> 72 42 420 22<292 326.5> 435 22<33 53> 485 42<106 106> 548 42<172 172> 635 22<243 264> 652 42 661 22
VStem: 106 66<377 485 485 485 527 548 590 596 596 620.5> 106 83 243 66 438 83<198.5 237.5>
LayerCount: 2
Fore
SplineSet
521 216 m 0x26d0
 521 87 417 -11 298 -11 c 0
 224 -11 182 39 167 62 c 1
 131 0 l 1
 106 0 l 1
 106 485 l 1
 53 435 l 2
 51 433 47 431 43 431 c 0
 35 431 28 438 28 446 c 0
 28 450 30 454 33 457 c 2
 106 527 l 1
 106 596 l 2
 106 645 98 652 28 652 c 1xd928
 28 683 l 1x0080
 172 694 l 1x0140
 172 590 l 1
 243 657 l 2
 246 660 249 661 253 661 c 0
 262 661 268 655 268 646 c 0
 268 642 267 638 264 635 c 2
 172 548 l 1
 172 377 l 1
 188 395 231 442 309 442 c 0
 423 442 521 343 521 216 c 0x26d0
438 217 m 0
 438 258 435 315 409 356 c 0
 385 394 349 420 304 420 c 0x2008
 280 420 225 412 186 356 c 0
 175 340 175 339 175 320 c 2
 175 114 l 2
 175 96 175 93 189 72 c 0
 213 35 249 11 294 11 c 0
 348 11 386 44 407 75 c 0
 436 120 438 180 438 217 c 0
EndSplineSet
EndChar

StartChar: breve
Encoding: 728 728 193
Width: 500
Flags: MW
HStem: 518 38<219.5 280.5 219.5 289> 670 20G<101 123 123 123 378 400 400 400>
LayerCount: 2
Fore
SplineSet
400 690 m 1
 398 585 328 518 250 518 c 0
 176 518 103 582 101 690 c 1
 123 690 l 1
 125 605 188 556 251 556 c 0
 310 556 376 603 378 690 c 1
 400 690 l 1
EndSplineSet
EndChar

StartChar: uni032E
Encoding: 814 814 194
Width: 0
Flags: MW
HStem: -233 38<-280.5 -219.5 -280.5 -211> -81 20G<-399 -377 -377 -377 -122 -100 -100 -100>
LayerCount: 2
Fore
SplineSet
-100 -61 m 1
 -102 -166 -172 -233 -250 -233 c 0
 -324 -233 -397 -169 -399 -61 c 1
 -377 -61 l 1
 -375 -146 -312 -195 -249 -195 c 0
 -190 -195 -124 -148 -122 -61 c 1
 -100 -61 l 1
EndSplineSet
EndChar

StartChar: uni032F
Encoding: 815 815 195
Width: 0
Flags: MW
HStem: -233 21G<-399 -377 -399 -399 -122 -100 -122 -122> -99 38<-279.5 -218.5>
LayerCount: 2
Fore
SplineSet
-100 -233 m 1
 -122 -233 l 1
 -124 -148 -187 -99 -250 -99 c 0
 -309 -99 -375 -146 -377 -233 c 1
 -399 -233 l 1
 -397 -128 -327 -61 -249 -61 c 0
 -175 -61 -102 -125 -100 -233 c 1
EndSplineSet
EndChar

StartChar: uni0306
Encoding: 774 774 196
Width: 0
Flags: MW
HStem: 518 38<-280.5 -219.5 -280.5 -211> 670 20G<-399 -377 -377 -377 -122 -100 -100 -100>
LayerCount: 2
Fore
SplineSet
-100 690 m 1
 -102 585 -172 518 -250 518 c 0
 -324 518 -397 582 -399 690 c 1
 -377 690 l 1
 -375 605 -312 556 -249 556 c 0
 -190 556 -124 603 -122 690 c 1
 -100 690 l 1
EndSplineSet
EndChar

StartChar: uni0311
Encoding: 785 785 197
Width: 0
Flags: MW
HStem: 518 21G<-399 -377 -399 -399 -122 -100 -122 -122> 652 38<-279.5 -218.5>
LayerCount: 2
Fore
SplineSet
-100 518 m 1
 -122 518 l 1
 -124 603 -187 652 -250 652 c 0
 -309 652 -375 605 -377 518 c 1
 -399 518 l 1
 -397 623 -327 690 -249 690 c 0
 -175 690 -102 626 -100 518 c 1
EndSplineSet
EndChar

StartChar: brokenbar
Encoding: 166 166 198
Width: 278
Flags: MW
HStem: -250 21G<129 149> 730 20G<129 149>
VStem: 119 40<-217 157 343 717>
LayerCount: 2
Fore
SplineSet
159 343 m 2
 159 334 149 328 139 328 c 0
 129 328 119 334 119 343 c 2
 119 717 l 2
 119 731 119 750 139 750 c 0
 159 750 159 731 159 717 c 2
 159 343 l 2
159 -217 m 2
 159 -231 159 -250 139 -250 c 0
 119 -250 119 -231 119 -217 c 2
 119 157 l 2
 119 166 129 172 139 172 c 0
 149 172 159 166 159 157 c 2
 159 -217 l 2
EndSplineSet
EndChar

StartChar: bullet
Encoding: 8226 8226 199
Width: 778
Flags: MW
HStem: 87 288<349.5 428.5>
VStem: 245 288<191.5 270.5>
LayerCount: 2
Fore
SplineSet
533 231 m 0
 533 152 468 87 389 87 c 0
 310 87 245 152 245 231 c 0
 245 310 310 375 389 375 c 0
 468 375 533 310 533 231 c 0
EndSplineSet
EndChar

StartChar: Cacute
Encoding: 262 262 200
Width: 722
Flags: MW
HStem: -22 31<385.5 470.5 385.5 485.5> 674 31<384.5 452 310.5 469.5> 746 21G<328 342> 889 20G<493 510>
VStem: 56 103<238.5 444> 635 30
LayerCount: 2
Fore
SplineSet
665 233 m 0
 665 117 567 -22 404 -22 c 0
 218 -22 56 135 56 342 c 0
 56 546 217 705 404 705 c 0
 500 705 551 655 588 619 c 1
 638 693 l 2
 646 705 650 705 654 705 c 0
 665 705 665 698 665 681 c 2
 665 444 l 2
 665 423 665 420 649 420 c 0
 635 420 635 423 633 437 c 0
 613 583 524 674 415 674 c 0
 354 674 159 640 159 341 c 0
 159 43 355 9 416 9 c 0
 525 9 632 91 640 234 c 0
 641 244 641 250 652 250 c 0
 665 250 665 243 665 233 c 0
534 867 m 0x30
 532 855 523 845 512 840 c 2
 342 746 l 1
 328 767 l 1
 473 897 l 2
 477 901 487 909 499 909 c 0
 521 909 538 889 534 867 c 0x30
EndSplineSet
Position2: "'cpsp' Capital Spacing lookup 0 subtable" dx=7 dy=0 dh=14 dv=0
EndChar

StartChar: cacute
Encoding: 263 263 201
Width: 444
Flags: MW
HStem: -11 25<231.5 276.5 231.5 316> 294 92<358 358> 423 25<225.5 256.5> 510 21G<199 199> 678 20G<324.5 341>
VStem: 34 83<152 278> 312 92<327 346.5>
LayerCount: 2
Fore
SplineSet
415 119 m 0
 415 109 383 -11 249 -11 c 0
 133 -11 34 88 34 216 c 0
 34 340 126 448 251 448 c 0
 328 448 404 409 404 341 c 0
 404 311 384 294 358 294 c 0
 330 294 312 314 312 340 c 0
 312 353 318 383 359 386 c 1
 324 422 261 423 252 423 c 0
 199 423 117 381 117 218 c 0
 117 57 205 14 258 14 c 0
 295 14 360 26 389 119 c 0
 391 125 393 129 402 129 c 0
 405 129 415 129 415 119 c 0
368 662 m 0x18
 368 650 360 639 351 632 c 2
 199 510 l 1
 182 528 l 1
 302 681 l 2
 306 687 317 698 332 698 c 0
 350 698 368 680 368 662 c 0x18
EndSplineSet
EndChar

StartChar: caron
Encoding: 711 711 202
Width: 500
Flags: MW
HStem: 516 21G<250 250> 672 20G<111 111 389 389>
LayerCount: 2
Fore
SplineSet
402 678 m 1
 250 516 l 1
 98 678 l 1
 111 692 l 1
 250 584 l 1
 389 692 l 1
 402 678 l 1
EndSplineSet
EndChar

StartChar: uni030C
Encoding: 780 780 203
Width: 0
Flags: MW
HStem: 516 21G<-250 -250> 672 20G<-389 -389 -111 -111>
LayerCount: 2
Fore
SplineSet
-98 678 m 1
 -250 516 l 1
 -402 678 l 1
 -389 692 l 1
 -250 584 l 1
 -111 692 l 1
 -98 678 l 1
EndSplineSet
EndChar

StartChar: Ccaron
Encoding: 268 268 204
Width: 722
Flags: MW
HStem: -22 31<385.5 470.5 385.5 485.5> 674 31<384.5 452 310.5 469.5> 736 21G<397 397> 849 20G<258 258 538 538>
VStem: 56 103<238.5 444> 635 30
LayerCount: 2
Fore
SplineSet
665 233 m 0
 665 117 567 -22 404 -22 c 0
 218 -22 56 135 56 342 c 0
 56 546 217 705 404 705 c 0
 500 705 551 655 588 619 c 1
 638 693 l 2
 646 705 650 705 654 705 c 0
 665 705 665 698 665 681 c 2
 665 444 l 2
 665 423 665 420 649 420 c 0
 635 420 635 423 633 437 c 0
 613 583 524 674 415 674 c 0
 354 674 159 640 159 341 c 0
 159 43 355 9 416 9 c 0
 525 9 632 91 640 234 c 0
 641 244 641 250 652 250 c 0
 665 250 665 243 665 233 c 0
548 853 m 1x30
 397 736 l 1
 246 853 l 1
 258 869 l 1
 398 803 l 1
 538 869 l 1
 548 853 l 1x30
EndSplineSet
Position2: "'cpsp' Capital Spacing lookup 0 subtable" dx=7 dy=0 dh=14 dv=0
EndChar

StartChar: ccaron
Encoding: 269 269 205
Width: 444
Flags: MW
HStem: -11 25<231.5 276.5 231.5 316> 294 92<358 358> 423 25<225.5 256.5> 516 21G<244 244> 672 20G<105 105 383 383>
VStem: 34 83<152 278> 312 92<327 346.5>
LayerCount: 2
Fore
SplineSet
415 119 m 0
 415 109 383 -11 249 -11 c 0
 133 -11 34 88 34 216 c 0
 34 340 126 448 251 448 c 0
 328 448 404 409 404 341 c 0
 404 311 384 294 358 294 c 0
 330 294 312 314 312 340 c 0
 312 353 318 383 359 386 c 1
 324 422 261 423 252 423 c 0
 199 423 117 381 117 218 c 0
 117 57 205 14 258 14 c 0
 295 14 360 26 389 119 c 0
 391 125 393 129 402 129 c 0
 405 129 415 129 415 119 c 0
396 678 m 1x18
 244 516 l 1
 92 678 l 1
 105 692 l 1
 244 584 l 1
 383 692 l 1
 396 678 l 1x18
EndSplineSet
EndChar

StartChar: Ccedilla
Encoding: 199 199 206
Width: 722
Flags: MW
HStem: -22 31 674 31<384.5 452 310.5 469.5>
VStem: 56 103<244.5 444> 635 30
LayerCount: 2
Fore
SplineSet
665 233 m 0
 665 122 575 -11 423 -21 c 1
 423 -66 l 1
 477 -66 531 -86 531 -133 c 0
 531 -200 398 -200 290 -200 c 2
 264 -200 l 1
 264 -174 l 1
 277 -174 l 2
 352 -174 447 -174 447 -133 c 0
 447 -101 408 -92 371 -92 c 1
 371 -20 l 1
 199 -3 56 147 56 342 c 0
 56 546 217 705 404 705 c 0
 500 705 551 655 588 619 c 1
 638 693 l 2
 646 705 650 705 654 705 c 0
 665 705 665 698 665 681 c 2
 665 444 l 2
 665 423 665 420 649 420 c 0
 635 420 635 423 633 437 c 0
 613 583 524 674 415 674 c 0
 354 674 159 640 159 341 c 0
 159 43 355 9 416 9 c 0
 525 9 632 91 640 234 c 0
 641 244 641 250 652 250 c 0
 665 250 665 243 665 233 c 0
EndSplineSet
Position2: "'cpsp' Capital Spacing lookup 0 subtable" dx=7 dy=0 dh=14 dv=0
EndChar

StartChar: ccedilla
Encoding: 231 231 207
Width: 444
Flags: MW
HStem: -11 25 294 92<358 358> 423 25<225.5 256.5>
VStem: 34 83<157.5 278> 312 92<327 346.5>
LayerCount: 2
Fore
SplineSet
415 119 m 0
 415 110 386 2 270 -10 c 1
 270 -66 l 1
 324 -66 378 -86 378 -133 c 0
 378 -200 245 -200 137 -200 c 2
 111 -200 l 1
 111 -174 l 1
 124 -174 l 2
 199 -174 294 -174 294 -133 c 0
 294 -101 255 -92 218 -92 c 1
 218 -9 l 1
 116 7 34 99 34 216 c 0
 34 340 126 448 251 448 c 0
 328 448 404 409 404 341 c 0
 404 311 384 294 358 294 c 0
 330 294 312 314 312 340 c 0
 312 353 318 383 359 386 c 1
 324 422 261 423 252 423 c 0
 199 423 117 381 117 218 c 0
 117 57 205 14 258 14 c 0
 295 14 360 26 389 119 c 0
 391 125 393 129 402 129 c 0
 405 129 415 129 415 119 c 0
EndSplineSet
EndChar

StartChar: Ccircumflex
Encoding: 264 264 208
Width: 722
Flags: MW
HStem: -22 31<385.5 470.5 385.5 485.5> 674 31<384.5 452 310.5 469.5> 736 21G<256 256 536 536> 849 20G<397 397>
VStem: 56 103<238.5 444> 635 30
LayerCount: 2
Fore
SplineSet
665 233 m 0
 665 117 567 -22 404 -22 c 0
 218 -22 56 135 56 342 c 0
 56 546 217 705 404 705 c 0
 500 705 551 655 588 619 c 1
 638 693 l 2
 646 705 650 705 654 705 c 0
 665 705 665 698 665 681 c 2
 665 444 l 2
 665 423 665 420 649 420 c 0
 635 420 635 423 633 437 c 0
 613 583 524 674 415 674 c 0
 354 674 159 640 159 341 c 0
 159 43 355 9 416 9 c 0
 525 9 632 91 640 234 c 0
 641 244 641 250 652 250 c 0
 665 250 665 243 665 233 c 0
548 752 m 1x30
 536 736 l 1
 396 802 l 1
 256 736 l 1
 246 752 l 1
 397 869 l 1
 548 752 l 1x30
EndSplineSet
Position2: "'cpsp' Capital Spacing lookup 0 subtable" dx=7 dy=0 dh=14 dv=0
EndChar

StartChar: ccircumflex
Encoding: 265 265 209
Width: 444
Flags: MW
HStem: -11 25<231.5 276.5 231.5 316> 294 92<358 358> 423 25<225.5 256.5> 516 21G<105 105 383 383> 672 20G<244 244>
VStem: 34 83<152 278> 312 92<327 346.5>
LayerCount: 2
Fore
SplineSet
415 119 m 0
 415 109 383 -11 249 -11 c 0
 133 -11 34 88 34 216 c 0
 34 340 126 448 251 448 c 0
 328 448 404 409 404 341 c 0
 404 311 384 294 358 294 c 0
 330 294 312 314 312 340 c 0
 312 353 318 383 359 386 c 1
 324 422 261 423 252 423 c 0
 199 423 117 381 117 218 c 0
 117 57 205 14 258 14 c 0
 295 14 360 26 389 119 c 0
 391 125 393 129 402 129 c 0
 405 129 415 129 415 119 c 0
396 530 m 1x18
 383 516 l 1
 244 624 l 1
 105 516 l 1
 92 530 l 1
 244 692 l 1
 396 530 l 1x18
EndSplineSet
EndChar

StartChar: Cdotaccent
Encoding: 266 266 210
Width: 722
Flags: MW
HStem: -22 31<385.5 470.5 385.5 485.5> 674 31<384.5 452 310.5 469.5> 758 106<381 412 380 413>
VStem: 56 103<238.5 444> 343 107<798.5 823.5> 635 30
LayerCount: 2
Fore
SplineSet
665 233 m 0
 665 117 567 -22 404 -22 c 0
 218 -22 56 135 56 342 c 0
 56 546 217 705 404 705 c 0
 500 705 551 655 588 619 c 1
 638 693 l 2
 646 705 650 705 654 705 c 0
 665 705 665 698 665 681 c 2
 665 444 l 2
 665 423 665 420 649 420 c 0
 635 420 635 423 633 437 c 0
 613 583 524 674 415 674 c 0
 354 674 159 640 159 341 c 0
 159 43 355 9 416 9 c 0
 525 9 632 91 640 234 c 0
 641 244 641 250 652 250 c 0
 665 250 665 243 665 233 c 0
450 811 m 0x28
 450 786 430 758 396 758 c 0
 366 758 343 784 343 811 c 0
 343 836 363 864 397 864 c 0
 427 864 450 838 450 811 c 0x28
EndSplineSet
Position2: "'cpsp' Capital Spacing lookup 0 subtable" dx=7 dy=0 dh=14 dv=0
EndChar

StartChar: cdotaccent
Encoding: 267 267 211
Width: 444
Flags: MW
HStem: -11 25<231.5 276.5 231.5 316> 294 92<358 358> 423 25<225.5 256.5> 551 106<228 259 227 260>
VStem: 34 83<152 278> 190 107<591.5 616.5> 312 92<327 346.5>
LayerCount: 2
Fore
SplineSet
415 119 m 0
 415 109 383 -11 249 -11 c 0
 133 -11 34 88 34 216 c 0
 34 340 126 448 251 448 c 0
 328 448 404 409 404 341 c 0
 404 311 384 294 358 294 c 0
 330 294 312 314 312 340 c 0
 312 353 318 383 359 386 c 1
 324 422 261 423 252 423 c 0
 199 423 117 381 117 218 c 0
 117 57 205 14 258 14 c 0
 295 14 360 26 389 119 c 0
 391 125 393 129 402 129 c 0
 405 129 415 129 415 119 c 0
297 604 m 0x14
 297 579 277 551 243 551 c 0
 213 551 190 577 190 604 c 0
 190 629 210 657 244 657 c 0
 274 657 297 631 297 604 c 0x14
EndSplineSet
EndChar

StartChar: cedilla
Encoding: 184 184 212
Width: 444
Flags: MW
HStem: -200 26<89 102 102 115 89 102> -92 26
VStem: 196 52<-66 5 -66 5 -66 5> 272 84<-153.5 -117>
LayerCount: 2
Fore
SplineSet
356 -133 m 0
 356 -200 223 -200 115 -200 c 2
 89 -200 l 1
 89 -174 l 1
 102 -174 l 2
 177 -174 272 -174 272 -133 c 0
 272 -101 233 -92 196 -92 c 1
 196 5 l 1
 248 5 l 1
 248 -66 l 1
 302 -66 356 -86 356 -133 c 0
EndSplineSet
EndChar

StartChar: cent
Encoding: 162 162 213
Width: 444
Flags: MW
HStem: -11 25<259 278> 294 92<358 358> 423 25<259 259>
VStem: 34 83<155.5 274.5> 229 30<-30 -11 -34 -10 -34 -10 18 421 421 421 448 461> 312 92<327 346.5> 359 30
LayerCount: 2
Fore
SplineSet
415 119 m 0xea
 415 109 385 -5 259 -11 c 1
 259 -30 l 2
 259 -38 253 -45 244 -45 c 0
 236 -45 229 -38 229 -30 c 2
 229 -10 l 1
 122 0 34 95 34 216 c 0
 34 333 116 435 229 447 c 1
 229 461 l 2
 229 469 236 476 244 476 c 0
 253 476 259 469 259 461 c 2
 259 448 l 1
 333 445 404 407 404 341 c 0
 404 311 384 294 358 294 c 0
 330 294 312 314 312 340 c 0xfc
 312 353 318 383 359 386 c 1
 329 417 279 422 259 423 c 1
 259 14 l 1
 297 14 360 27 389 119 c 0
 391 125 393 129 402 129 c 0
 405 129 415 129 415 119 c 0xea
229 18 m 1
 229 421 l 1
 179 410 117 359 117 218 c 0
 117 84 178 31 229 18 c 1
EndSplineSet
Substitution2: "'onum' Oldstyle Figures lookup 4 subtable" cent.oldstyle
Substitution2: "'aalt' Access All Alternates lookup 0 subtable" cent.oldstyle
EndChar

StartChar: centigrade
Encoding: 8451 8451 214
Width: 944
Flags: MW
HStem: 644 31 644 40<100 109 109 128> 653 31
VStem: 277 103<292.5 369 292.5 445.5>
CounterMasks: 1 e0
LayerCount: 2
Fore
SplineSet
888 234 m 0
 888 229 888 225 887 220 c 0
 874 82 762 -21 627 -21 c 0
 426 -21 277 153 277 343 c 0
 277 548 442 706 627 706 c 0
 681 706 734 687 776 653 c 0
 788 643 799 630 811 620 c 1
 814 627 861 706 876 706 c 0
 887 706 888 697 888 690 c 2
 888 436 l 2
 888 426 886 420 872 420 c 0
 851 420 857 438 854 449 c 1
 841 557 760 675 636 675 c 0
 545 675 459 615 418 535 c 0
 387 474 380 403 380 335 c 0
 380 250 397 161 454 96 c 0
 501 43 567 10 638 10 c 0
 747 10 837 92 858 193 c 0
 862 213 857 252 876 252 c 0
 885 252 888 245 888 234 c 0
222 574 m 0
 222 516 180 469 122 462 c 1
 113 462 l 2
 45 462 1 513 1 573 c 0
 1 631 42 677 100 684 c 1
 109 684 l 2
 175 684 222 633 222 574 c 0
182 573 m 2
 182 580 l 1
 175 618 146 644 110 644 c 0
 72 644 40 610 40 573 c 2
 40 566 l 1
 47 528 76 502 111 502 c 0
 150 502 182 535 182 573 c 2
EndSplineSet
EndChar

StartChar: Chi
Encoding: 935 935 215
Width: 750
Flags: MW
HStem: 0 31<24 74.5> 652 31<37 56 37 37>
VStem: 24 702<0 31 0 31>
LayerCount: 2
Fore
SplineSet
726 0 m 1
 596 3 l 2
 558 3 485 3 450 0 c 1
 450 31 l 1
 493 32 515 49 515 61 c 0
 515 64 512 68 510 72 c 2
 352 311 l 1
 210 101 l 2
 203 90 200 86 200 77 c 0
 200 59 217 32 263 31 c 1
 263 0 l 1
 227 3 172 3 135 3 c 2
 24 0 l 1
 24 31 l 1
 125 31 155 77 169 97 c 2
 333 339 l 1
 149 617 l 2
 130 645 111 652 56 652 c 2
 37 652 l 1
 37 683 l 1
 167 680 l 2
 205 680 278 680 313 683 c 1
 313 652 l 1
 270 651 248 634 248 622 c 0
 248 618 253 610 255 607 c 2
 384 414 l 1
 498 583 l 2
 505 594 507 596 507 606 c 0
 507 629 485 651 445 652 c 1
 445 683 l 1
 485 680 533 680 573 680 c 1
 684 683 l 1
 684 652 l 1
 595 651 561 619 539 587 c 2
 402 386 l 1
 613 67 l 2
 634 36 655 31 707 31 c 2
 726 31 l 1
 726 0 l 1
EndSplineSet
EndChar

StartChar: circumflex
Encoding: 710 710 216
Width: 500
Flags: MW
HStem: 516 21G<111 111 389 389> 672 20G<250 250>
LayerCount: 2
Fore
SplineSet
402 530 m 1
 389 516 l 1
 250 624 l 1
 111 516 l 1
 98 530 l 1
 250 692 l 1
 402 530 l 1
EndSplineSet
EndChar

StartChar: uni0302
Encoding: 770 770 217
Width: 0
Flags: MW
HStem: 516 21G<-389 -389 -111 -111> 672 20G<-250 -250>
LayerCount: 2
Fore
SplineSet
-98 530 m 1
 -111 516 l 1
 -250 624 l 1
 -389 516 l 1
 -402 530 l 1
 -250 692 l 1
 -98 530 l 1
EndSplineSet
EndChar

StartChar: colonmonetary
Encoding: 8353 8353 218
Width: 722
Flags: MW
HStem: -22 31<412 416> 674 31<412 415 412 412>
VStem: 56 103<242.5 440> 382 30<-30 -22 -34 -21 -34 -21 12 671 671 671 705 713> 635 30
LayerCount: 2
Fore
SplineSet
665 233 m 0
 665 119 570 -17 412 -22 c 1
 412 -30 l 2
 412 -38 406 -45 397 -45 c 0
 389 -45 382 -38 382 -30 c 2
 382 -21 l 1
 206 -10 56 143 56 342 c 0
 56 538 205 693 382 704 c 1
 382 713 l 2
 382 722 389 728 397 728 c 0
 406 728 412 722 412 713 c 2
 412 705 l 1
 503 702 552 654 588 619 c 1
 638 693 l 2
 646 705 650 705 654 705 c 0
 665 705 665 698 665 681 c 2
 665 444 l 2
 665 423 665 420 649 420 c 0
 635 420 635 423 633 437 c 0
 613 583 524 674 415 674 c 2
 412 674 l 1
 412 9 l 1
 416 9 l 2
 525 9 632 91 640 234 c 0
 641 244 641 250 652 250 c 0
 665 250 665 243 665 233 c 0
382 12 m 1
 382 671 l 1
 303 659 159 598 159 341 c 0
 159 86 303 24 382 12 c 1
EndSplineSet
EndChar

StartChar: uni0326
Encoding: 806 806 219
Width: 0
Flags: MW
HStem: -290 21G<-276 -269.5> -145 79<-267 -248.5>
LayerCount: 2
Fore
SplineSet
-206 -145 m 0
 -206 -231 -265 -290 -274 -290 c 0
 -278 -290 -282 -287 -282 -282 c 0
 -282 -279 -281 -278 -277 -274 c 0
 -244 -238 -223 -193 -224 -133 c 1
 -232 -141 -243 -145 -254 -145 c 0
 -281 -145 -294 -125 -294 -106 c 0
 -294 -86 -280 -66 -254 -66 c 0
 -224 -66 -206 -97 -206 -145 c 0
EndSplineSet
EndChar

StartChar: copyright
Encoding: 169 169 220
Width: 683
Flags: MW
HStem: 0 40<258.5 425 258.5 436> 495 40<447 475> 643 40<258.5 425>
VStem: 0 40<258.5 425 258.5 436> 643 40<258.5 425>
LayerCount: 2
Fore
SplineSet
683 342 m 0
 683 153 530 0 342 0 c 0
 153 0 0 153 0 342 c 0
 0 530 153 683 342 683 c 0
 530 683 683 530 683 342 c 0
643 342 m 0
 643 508 508 643 342 643 c 0
 175 643 40 508 40 342 c 0
 40 175 175 40 342 40 c 0
 508 40 643 175 643 342 c 0
489 282 m 0
 489 218 435 141 346 141 c 0
 243 141 154 228 154 342 c 0
 154 454 243 542 346 542 c 0
 398 542 427 514 447 495 c 1
 475 535 l 2
 479 542 481 542 483 542 c 0
 489 542 489 538 489 529 c 2
 489 398 l 2
 489 387 489 385 481 385 c 0
 473 385 473 387 472 394 c 0
 461 475 412 525 352 525 c 0
 318 525 211 506 211 341 c 0
 211 177 319 159 352 159 c 0
 412 159 471 204 476 282 c 0
 476 288 476 291 482 291 c 0
 489 291 489 287 489 282 c 0
EndSplineSet
EndChar

StartChar: currency
Encoding: 164 164 221
Width: 778
Flags: MW
HStem: 54 40<365.5 412.5> 406 40<365.5 412.5 365.5 432> 446 40
VStem: 153 40 193 40<226.5 273.5> 544 40<226.5 273.5 226.5 293> 584 40
LayerCount: 2
Fore
SplineSet
624 15 m 0xb2
 610 1 597 14 587 24 c 2
 512 98 l 1
 479 71 436 54 389 54 c 0
 342 54 299 71 265 98 c 1
 191 24 l 2
 181 14 168 1 153 15 c 0
 139 29 153 42 163 52 c 2
 237 127 l 1
 210 160 193 203 193 250 c 0
 193 297 210 340 237 374 c 1
 163 448 l 2
 153 458 139 472 153 486 c 0
 168 500 181 487 191 477 c 2
 266 402 l 1
 299 429 342 446 389 446 c 0
 436 446 478 429 512 402 c 1
 586 476 l 2
 596 486 609 499 624 485 c 0
 638 471 624 458 614 448 c 2
 540 374 l 1
 568 340 584 297 584 250 c 0
 584 203 568 160 541 127 c 1
 615 52 l 2
 625 42 638 29 624 15 c 0xb2
544 250 m 0
 544 336 475 406 389 406 c 0
 303 406 233 336 233 250 c 0x4c
 233 164 303 94 389 94 c 0
 475 94 544 164 544 250 c 0
EndSplineSet
EndChar

StartChar: dagger
Encoding: 8224 8224 222
Width: 444
Flags: MW
HStem: -216 21G<215.5 227> 397 67<77.5 103.5 339.5 365.5> 685 20G<205 238.5>
VStem: 164 67 188 67<170 244.5 646.5 668> 212 67
CounterMasks: 1 1c
LayerCount: 2
Fore
SplineSet
387 430 m 0
 387 425 385 397 350 397 c 0
 329 397 300 405 281 411 c 0
 262 416 242 420 231 421 c 1
 233 394 236 373 241 350 c 0
 255 279 255 272 255 218 c 0
 255 122 250 19 246 -44 c 1
 244 -95 241 -148 235 -198 c 0
 233 -211 233 -216 221 -216 c 0
 210 -216 209 -210 208 -196 c 0
 199 -101 188 67 188 218 c 0
 188 271 188 279 202 351 c 0
 207 376 210 396 212 421 c 1
 192 419 167 412 164 411 c 0
 143 405 114 397 93 397 c 0
 62 397 56 418 56 431 c 0
 56 436 58 464 93 464 c 0
 114 464 143 456 162 450 c 0
 181 445 201 441 212 440 c 1
 211 469 208 501 201 547 c 0
 197 571 188 629 188 664 c 0
 188 673 188 705 222 705 c 0
 255 705 255 672 255 664 c 0
 255 627 249 590 244 553 c 1
 233 488 232 460 231 440 c 1
 251 442 276 449 279 450 c 0
 300 456 329 464 350 464 c 0
 381 464 387 443 387 430 c 0
EndSplineSet
EndChar

StartChar: daggerdbl
Encoding: 8225 8225 223
Width: 444
Flags: MW
HStem: -205 21G<215.5 236> -11 66<78 93.5 77.5 102 350.5 364.5> 444 67<77.5 103.5 339.5 365.5> 685 20G<216 238>
VStem: 164 67 188 67<-173 -163.5 207.5 217 282 299 656 669.5> 212 67
CounterMasks: 1 0e
LayerCount: 2
Fore
SplineSet
387 477 m 0
 387 472 385 444 350 444 c 0
 329 444 300 452 281 458 c 0
 262 463 242 467 231 468 c 1
 232 442 237 414 244 373 c 1
 251 338 255 309 255 289 c 0
 255 275 251 250 221 250 c 0
 210 250 188 254 188 289 c 0
 188 317 195 357 201 390 c 0
 204 404 211 438 212 468 c 1
 192 466 167 459 164 458 c 0
 143 452 114 444 93 444 c 0
 62 444 56 465 56 478 c 0
 56 483 58 511 93 511 c 0
 114 511 143 503 162 497 c 0
 181 492 201 488 212 487 c 1
 211 513 206 541 199 582 c 1
 192 617 188 646 188 666 c 0
 188 702 211 705 221 705 c 0
 255 705 255 673 255 666 c 0
 255 638 248 598 242 565 c 0
 239 551 232 517 231 487 c 1
 251 489 276 496 279 497 c 0
 300 503 329 511 350 511 c 0
 381 511 387 490 387 477 c 0
387 22 m 0
 387 7 377 -11 353 -11 c 0
 348 -11 330 -11 297 -2 c 0
 257 9 254 10 231 12 c 1
 233 -18 238 -49 241 -60 c 1
 247 -94 255 -137 255 -166 c 0
 255 -180 251 -205 221 -205 c 0
 210 -205 188 -201 188 -166 c 0
 188 -161 188 -138 199 -82 c 1
 206 -40 210 -16 212 12 c 1
 195 10 188 9 149 -1 c 1
 138 -5 114 -11 90 -11 c 0
 66 -11 56 7 56 22 c 0
 56 35 65 55 90 55 c 0
 97 55 114 55 146 46 c 0
 186 35 189 34 212 32 c 1
 210 62 205 93 202 104 c 1
 196 138 188 181 188 210 c 0
 188 224 192 249 222 249 c 0
 233 249 255 245 255 210 c 0
 255 205 255 182 244 126 c 1
 237 84 233 60 231 32 c 1
 253 34 260 36 286 44 c 1
 317 52 334 55 354 55 c 0
 375 55 387 39 387 22 c 0
EndSplineSet
EndChar

StartChar: dblbracketleft
Encoding: 10214 10214 224
Width: 403
Flags: MW
HStem: -249 40<158 242 282 380> 711 40<158 242 158 158 282 380 282 282>
VStem: 118 40<-209 711 -209 751> 242 40<-209 711 -209 711>
LayerCount: 2
Fore
SplineSet
380 -249 m 1
 118 -249 l 1
 118 751 l 1
 380 751 l 1
 380 711 l 1
 282 711 l 1
 282 -209 l 1
 380 -209 l 1
 380 -249 l 1
242 -209 m 1
 242 711 l 1
 158 711 l 1
 158 -209 l 1
 242 -209 l 1
EndSplineSet
EndChar

StartChar: dblbracketright
Encoding: 10215 10215 225
Width: 403
Flags: MW
HStem: -249 40<23 120 160 244 23 120> 711 40<23 120 23 284 160 160 160 244>
VStem: 120 40<-209 711 -209 711> 244 40<-209 711 711 711>
LayerCount: 2
Fore
SplineSet
284 -249 m 1
 23 -249 l 1
 23 -209 l 1
 120 -209 l 1
 120 711 l 1
 23 711 l 1
 23 751 l 1
 284 751 l 1
 284 -249 l 1
244 -209 m 1
 244 711 l 1
 160 711 l 1
 160 -209 l 1
 244 -209 l 1
EndSplineSet
EndChar

StartChar: uni030F
Encoding: 783 783 226
Width: 0
Flags: MW
HStem: 511 21G<-316 -316 -149 -149> 677 20G<-392.5 -371.5 -225.5 -204.5>
LayerCount: 2
Fore
SplineSet
-128 523 m 1
 -132 520 -147 512 -149 511 c 1
 -241 637 l 2
 -250 649 -253 653 -253 663 c 0
 -253 681 -235 697 -216 697 c 0
 -193 697 -187 680 -182 668 c 2
 -128 523 l 1
-295 523 m 1
 -299 520 -314 512 -316 511 c 1
 -408 637 l 2
 -417 649 -420 653 -420 663 c 0
 -420 681 -402 697 -383 697 c 0
 -360 697 -354 680 -349 668 c 2
 -295 523 l 1
EndSplineSet
EndChar

StartChar: dblverticalbar
Encoding: 8214 8214 227
Width: 398
Flags: MW
HStem: -250 21G<129 149 249 269> 730 20G<129 149 249 269>
VStem: 119 40<-217 717> 239 40<-217 717>
LayerCount: 2
Fore
SplineSet
159 -217 m 2
 159 -231 159 -250 139 -250 c 0
 119 -250 119 -231 119 -217 c 2
 119 717 l 2
 119 731 119 750 139 750 c 0
 159 750 159 731 159 717 c 2
 159 -217 l 2
279 -217 m 2
 279 -231 279 -250 259 -250 c 0
 239 -250 239 -231 239 -217 c 2
 239 717 l 2
 239 731 239 750 259 750 c 0
 279 750 279 731 279 717 c 2
 279 -217 l 2
EndSplineSet
EndChar

StartChar: Dcaron
Encoding: 270 270 228
Width: 764
Flags: MW
HStem: 0 31<35 59 59 97.5 273 374 374 401 35 59> 652 31<35 59 35 401 249.5 273 273 373> 736 21G<323 323> 849 20G<184 184 464 464>
VStem: 138 86<78 605 605 612> 273 100<652 652> 607 100<280.5 375>
LayerCount: 2
Fore
SplineSet
707 336 m 0
 707 148 569 0 401 0 c 2
 35 0 l 1
 35 31 l 1
 59 31 l 2
 136 31 138 42 138 78 c 2
 138 605 l 2
 138 641 136 652 59 652 c 2
 35 652 l 1
 35 683 l 1
 401 683 l 2
 572 683 707 526 707 336 c 0
607 336 m 0
 607 414 598 500 555 559 c 0
 504 630 435 652 373 652 c 2
 273 652 l 2
 226 652 224 645 224 612 c 2
 224 71 l 2
 224 38 226 31 273 31 c 2
 374 31 l 2
 475 31 532 89 552 116 c 0
 588 165 607 225 607 336 c 0
474 853 m 1x30
 323 736 l 1
 172 853 l 1
 184 869 l 1
 324 803 l 1
 464 869 l 1
 474 853 l 1x30
EndSplineSet
Position2: "'cpsp' Capital Spacing lookup 0 subtable" dx=7 dy=0 dh=14 dv=0
EndChar

StartChar: dcaron
Encoding: 271 271 229
Width: 556
Flags: MW
HStem: -11 22<228.5 272.5 228.5 278> 0 31<492 527> 87 31 420 22<234 278.5> 470 21G<504 510.5> 615 79<513 531.5> 652 31<305 340> 652 42
VStem: 34 83<193.5 232.5 193.5 279.5> 383 66<380 596 596 620.5>
LayerCount: 2
Fore
SplineSet
527 0 m 1x6140
 380 -11 l 1
 380 55 l 1
 355 23 310 -11 246 -11 c 0
 132 -11 34 88 34 215 c 0
 34 344 139 442 257 442 c 0
 311 442 354 416 383 380 c 1
 383 596 l 2
 383 645 375 652 305 652 c 1
 305 683 l 1x92c0
 449 694 l 1
 449 87 l 2
 449 38 457 31 527 31 c 1
 527 0 l 1x6140
380 118 m 2x40
 380 323 l 2
 380 341 380 343 369 360 c 0
 338 405 296 420 261 420 c 0
 207 420 169 387 148 356 c 0
 119 311 117 251 117 214 c 0
 117 173 120 116 146 75 c 0
 170 37 206 11 251 11 c 0xb180
 294 11 339 33 369 81 c 0
 380 98 380 100 380 118 c 2x40
574 615 m 0
 574 529 515 470 506 470 c 0
 502 470 498 473 498 478 c 0
 498 481 499 482 503 486 c 0
 536 522 557 567 556 627 c 1
 548 619 537 615 526 615 c 0x0c
 499 615 486 635 486 654 c 0
 486 674 500 694 526 694 c 0
 556 694 574 663 574 615 c 0
EndSplineSet
EndChar

StartChar: Dcroat
Encoding: 272 272 230
Width: 764
Flags: MW
HStem: 0 31<35 59 59 97.5 273 374 374 401 35 59> 327 30<35 138 35 138 224 382> 652 31<35 59 35 401 249.5 273 273 373>
VStem: 138 86<78 327 357 605 605 612> 273 100<652 652> 607 100<280.5 375>
LayerCount: 2
Fore
SplineSet
707 336 m 0
 707 148 569 0 401 0 c 2
 35 0 l 1
 35 31 l 1
 59 31 l 2
 136 31 138 42 138 78 c 2
 138 327 l 1
 35 327 l 1
 35 357 l 1
 138 357 l 1
 138 605 l 2
 138 641 136 652 59 652 c 2
 35 652 l 1
 35 683 l 1
 401 683 l 2
 572 683 707 526 707 336 c 0
607 336 m 0
 607 414 598 500 555 559 c 0
 504 630 435 652 373 652 c 2
 273 652 l 2
 226 652 224 645 224 612 c 2
 224 357 l 1
 382 357 l 1
 382 327 l 1
 224 327 l 1
 224 71 l 2
 224 38 226 31 273 31 c 2
 374 31 l 2
 475 31 532 89 552 116 c 0
 588 165 607 225 607 336 c 0
EndSplineSet
Position2: "'cpsp' Capital Spacing lookup 0 subtable" dx=7 dy=0 dh=14 dv=0
EndChar

StartChar: dcroat
Encoding: 273 273 231
Width: 556
Flags: MW
HStem: -11 22<228.5 272.5 228.5 278> 0 31<492 527> 87 31 420 22<234 278.5> 533 30<222 383 222 383 449 527> 652 31<305 340> 652 42
VStem: 34 83<193.5 232.5 193.5 279.5> 222 83 383 66<380 533 563 596 596 620.5>
LayerCount: 2
Fore
SplineSet
527 0 m 1x6a40
 380 -11 l 1
 380 55 l 1
 355 23 310 -11 246 -11 c 0
 132 -11 34 88 34 215 c 0
 34 344 139 442 257 442 c 0
 311 442 354 416 383 380 c 1
 383 533 l 1
 222 533 l 1
 222 563 l 1
 383 563 l 1
 383 596 l 2
 383 645 375 652 305 652 c 1
 305 683 l 1x9dc0
 449 694 l 1
 449 563 l 1
 527 563 l 1
 527 533 l 1
 449 533 l 1
 449 87 l 2
 449 38 457 31 527 31 c 1
 527 0 l 1x6a40
380 118 m 2x40
 380 323 l 2
 380 341 380 343 369 360 c 0
 338 405 296 420 261 420 c 0
 207 420 169 387 148 356 c 0
 119 311 117 251 117 214 c 0
 117 173 120 116 146 75 c 0
 170 37 206 11 251 11 c 0xb1
 294 11 339 33 369 81 c 0
 380 98 380 100 380 118 c 2x40
EndSplineSet
EndChar

StartChar: Ddotbelow
Encoding: 7692 7692 232
Width: 764
Flags: MW
HStem: -200 106<307 338 306 339> 0 31<35 59 59 97.5 273 374 374 401 35 59> 652 31<35 59 35 401 249.5 273 273 373>
VStem: 138 86<78 605 605 612> 269 107<-159.5 -134.5> 273 100<652 652> 607 100<280.5 375>
LayerCount: 2
Fore
SplineSet
707 336 m 0x76
 707 148 569 0 401 0 c 2
 35 0 l 1
 35 31 l 1
 59 31 l 2
 136 31 138 42 138 78 c 2
 138 605 l 2
 138 641 136 652 59 652 c 2
 35 652 l 1
 35 683 l 1
 401 683 l 2
 572 683 707 526 707 336 c 0x76
607 336 m 0
 607 414 598 500 555 559 c 0
 504 630 435 652 373 652 c 2
 273 652 l 2
 226 652 224 645 224 612 c 2
 224 71 l 2
 224 38 226 31 273 31 c 2
 374 31 l 2
 475 31 532 89 552 116 c 0
 588 165 607 225 607 336 c 0
376 -147 m 0x88
 376 -172 356 -200 322 -200 c 0
 292 -200 269 -174 269 -147 c 0
 269 -122 289 -94 323 -94 c 0
 353 -94 376 -120 376 -147 c 0x88
EndSplineSet
Position2: "'cpsp' Capital Spacing lookup 0 subtable" dx=7 dy=0 dh=14 dv=0
EndChar

StartChar: ddotbelow
Encoding: 7693 7693 233
Width: 556
Flags: MW
HStem: -200 106<262 293 261 294> -11 22<228.5 272.5 228.5 278> 0 31<492 527> 87 31 420 22<234 278.5> 652 31<305 340> 652 42
VStem: 34 83<193.5 232.5 193.5 279.5> 224 107<-159.5 -134.5> 383 66<380 596 596 620.5>
LayerCount: 2
Fore
SplineSet
527 0 m 1x3240
 380 -11 l 1
 380 55 l 1
 355 23 310 -11 246 -11 c 0
 132 -11 34 88 34 215 c 0
 34 344 139 442 257 442 c 0
 311 442 354 416 383 380 c 1
 383 596 l 2
 383 645 375 652 305 652 c 1
 305 683 l 1x4d40
 449 694 l 1
 449 87 l 2
 449 38 457 31 527 31 c 1
 527 0 l 1x3240
380 118 m 2x20
 380 323 l 2
 380 341 380 343 369 360 c 0
 338 405 296 420 261 420 c 0
 207 420 169 387 148 356 c 0
 119 311 117 251 117 214 c 0
 117 173 120 116 146 75 c 0
 170 37 206 11 251 11 c 0x59
 294 11 339 33 369 81 c 0
 380 98 380 100 380 118 c 2x20
331 -147 m 0x8080
 331 -172 311 -200 277 -200 c 0
 247 -200 224 -174 224 -147 c 0
 224 -122 244 -94 278 -94 c 0
 308 -94 331 -120 331 -147 c 0x8080
EndSplineSet
EndChar

StartChar: degree
Encoding: 176 176 234
Width: 375
Flags: MW
HStem: 406 40<160.5 215 160.5 226> 643 40<160.5 215>
VStem: 49 40<517 571.5 517 582.5> 286 40<517 571.5>
LayerCount: 2
Fore
SplineSet
326 544 m 0
 326 468 264 406 188 406 c 0
 111 406 49 468 49 544 c 0
 49 621 111 683 188 683 c 0
 264 683 326 621 326 544 c 0
286 544 m 0
 286 599 242 643 188 643 c 0
 133 643 89 599 89 544 c 0
 89 490 133 446 188 446 c 0
 242 446 286 490 286 544 c 0
EndSplineSet
EndChar

StartChar: Delta
Encoding: 916 916 235
Width: 833
Flags: MW
HStem: 0 76<61 653 114 653 114 763> 696 20G<407.5 424.5>
VStem: 47 738<4 8>
LayerCount: 2
Fore
SplineSet
785 8 m 1
 785 0 779 0 763 0 c 2
 69 0 l 2
 53 0 47 0 47 8 c 1
 47 8 47 11 52 20 c 2
 390 698 l 2
 397 711 399 716 416 716 c 0
 433 716 435 711 442 698 c 2
 780 20 l 2
 785 11 785 8 785 8 c 1
653 76 m 1
 384 616 l 1
 114 76 l 1
 653 76 l 1
EndSplineSet
EndChar

StartChar: diameter
Encoding: 8960 8960 236
Width: 778
Flags: MW
HStem: -61 40<355 464 355 475> 521 40<314 422.5>
VStem: 78 40<216 325 216 336> 660 40<175 284>
LayerCount: 2
Fore
SplineSet
721 563 m 0
 721 557 719 552 715 549 c 2
 622 456 l 1
 671 401 700 329 700 250 c 0
 700 78 561 -61 389 -61 c 0
 310 -61 238 -32 184 16 c 1
 90 -77 l 2
 87 -81 82 -83 76 -83 c 0
 65 -83 56 -74 56 -63 c 0
 56 -57 58 -52 62 -49 c 2
 155 45 l 1
 107 100 78 171 78 250 c 0
 78 422 217 561 389 561 c 0
 467 561 539 532 594 484 c 1
 687 577 l 2
 690 581 695 583 701 583 c 0
 712 583 721 574 721 563 c 0
660 250 m 0
 660 318 635 380 594 427 c 1
 212 45 l 1
 259 4 321 -21 389 -21 c 0
 539 -21 660 100 660 250 c 0
566 456 m 1
 518 496 456 521 389 521 c 0
 239 521 118 400 118 250 c 0
 118 182 143 121 184 73 c 1
 566 456 l 1
EndSplineSet
EndChar

StartChar: dieresis
Encoding: 168 168 237
Width: 500
Flags: MW
HStem: 557 95<147.5 175.5 146.5 176.5 325.5 353.5>
VStem: 113 97<593.5 616> 291 97<593.5 616>
LayerCount: 2
Fore
SplineSet
210 605 m 0
 210 582 192 557 161 557 c 0
 134 557 113 580 113 605 c 0
 113 627 131 652 162 652 c 0
 189 652 210 629 210 605 c 0
388 605 m 0
 388 582 370 557 339 557 c 0
 312 557 291 580 291 605 c 0
 291 627 309 652 340 652 c 0
 367 652 388 629 388 605 c 0
EndSplineSet
EndChar

StartChar: uni0308
Encoding: 776 776 238
Width: 0
Flags: MW
HStem: 557 95<-352.5 -324.5 -353.5 -323.5 -174.5 -146.5>
VStem: -387 97<593.5 616> -209 97<593.5 616>
LayerCount: 2
Fore
SplineSet
-290 605 m 0
 -290 582 -308 557 -339 557 c 0
 -366 557 -387 580 -387 605 c 0
 -387 627 -369 652 -338 652 c 0
 -311 652 -290 629 -290 605 c 0
-112 605 m 0
 -112 582 -130 557 -161 557 c 0
 -188 557 -209 580 -209 605 c 0
 -209 627 -191 652 -160 652 c 0
 -133 652 -112 629 -112 605 c 0
EndSplineSet
EndChar

